STARTFONT 2.1
FONT -FontForge-Source Sans Pro-Book-R-Normal-SansPro--16-160-72-72-P-78-ISO10646-1
SIZE 16 72 72
FONTBOUNDINGBOX 42 21 -7 -5
COMMENT "Generated by fontforge, http://fontforge.sourceforge.net"
COMMENT "Copyright 2010, 2012, 2014 Adobe Systems Incorporated (http://www.adobe.com/), with Reserved Font Name `Source'."
STARTPROPERTIES 40
FOUNDRY "FontForge"
FAMILY_NAME "Source Sans Pro"
WEIGHT_NAME "Book"
SLANT "R"
SETWIDTH_NAME "Normal"
ADD_STYLE_NAME "SansPro"
PIXEL_SIZE 16
POINT_SIZE 160
RESOLUTION_X 72
RESOLUTION_Y 72
SPACING "P"
AVERAGE_WIDTH 78
CHARSET_REGISTRY "ISO10646"
CHARSET_ENCODING "1"
FONTNAME_REGISTRY ""
CHARSET_COLLECTIONS "ISO8859-2 ISO8859-5 ISO8859-7 ISO8859-9 ISO8859-4 ISO10646-1"
FONT_NAME "SourceSansPro-Regular"
FACE_NAME "Source Sans Pro Regular"
COPYRIGHT "Copyright 2010, 2012, 2014 Adobe Systems Incorporated (http://www.adobe.com/), with Reserved Font Name `Source'."
FONT_VERSION "2.021;PS 2.000;hotconv 1.0.86;makeotf.lib2.5.63406"
FONT_ASCENT 12
FONT_DESCENT 4
UNDERLINE_POSITION -2
UNDERLINE_THICKNESS 1
X_HEIGHT 7
CAP_HEIGHT 9
RAW_ASCENT 750
RAW_DESCENT 250
NORM_SPACE 3
RELATIVE_WEIGHT 40
RELATIVE_SETWIDTH 50
SUPERSCRIPT_X 0
SUPERSCRIPT_Y 5
SUPERSCRIPT_SIZE 9
SUBSCRIPT_X 0
SUBSCRIPT_Y 1
SUBSCRIPT_SIZE 9
FIGURE_WIDTH 8
AVG_LOWERCASE_WIDTH 81
AVG_UPPERCASE_WIDTH 96
ENDPROPERTIES
CHARS 1896
STARTCHAR space
ENCODING 32
SWIDTH 200 0
DWIDTH 3 0
BBX 1 1 0 0
BITMAP
00
ENDCHAR
STARTCHAR exclam
ENCODING 33
SWIDTH 289 0
DWIDTH 5 0
BBX 2 11 1 0
BITMAP
40
40
40
40
40
40
40
40
00
C0
C0
ENDCHAR
STARTCHAR quotedbl
ENCODING 34
SWIDTH 425 0
DWIDTH 7 0
BBX 5 4 1 7
BITMAP
D8
D0
D0
90
ENDCHAR
STARTCHAR numbersign
ENCODING 35
SWIDTH 497 0
DWIDTH 8 0
BBX 6 10 1 0
BITMAP
6C
48
FC
48
48
48
FC
48
50
90
ENDCHAR
STARTCHAR dollar
ENCODING 36
SWIDTH 497 0
DWIDTH 8 0
BBX 6 13 1 -1
BITMAP
10
10
78
CC
C0
C0
70
18
0C
04
8C
78
10
ENDCHAR
STARTCHAR percent
ENCODING 37
SWIDTH 824 0
DWIDTH 13 0
BBX 12 11 1 0
BITMAP
0080
E100
9100
9200
9200
94E0
E920
0910
1110
1120
20E0
ENDCHAR
STARTCHAR ampersand
ENCODING 38
SWIDTH 609 0
DWIDTH 10 0
BBX 9 10 1 0
BITMAP
3800
4800
4800
7000
6100
F100
9A00
8E00
8F00
7980
ENDCHAR
STARTCHAR quotesingle
ENCODING 39
SWIDTH 249 0
DWIDTH 4 0
BBX 2 4 1 7
BITMAP
C0
C0
C0
80
ENDCHAR
STARTCHAR parenleft
ENCODING 40
SWIDTH 303 0
DWIDTH 5 0
BBX 3 15 1 -3
BITMAP
20
20
40
40
40
C0
80
80
80
C0
40
40
40
20
20
ENDCHAR
STARTCHAR parenright
ENCODING 41
SWIDTH 303 0
DWIDTH 5 0
BBX 3 15 1 -3
BITMAP
80
80
40
40
40
40
60
60
60
40
40
40
40
80
80
ENDCHAR
STARTCHAR asterisk
ENCODING 42
SWIDTH 418 0
DWIDTH 7 0
BBX 5 5 1 6
BITMAP
20
A8
70
50
90
ENDCHAR
STARTCHAR plus
ENCODING 43
SWIDTH 497 0
DWIDTH 8 0
BBX 6 7 1 2
BITMAP
30
30
30
FC
30
30
30
ENDCHAR
STARTCHAR comma
ENCODING 44
SWIDTH 249 0
DWIDTH 4 0
BBX 2 5 1 -3
BITMAP
C0
C0
40
C0
80
ENDCHAR
STARTCHAR hyphen
ENCODING 45
SWIDTH 311 0
DWIDTH 5 0
BBX 3 1 1 4
BITMAP
E0
ENDCHAR
STARTCHAR period
ENCODING 46
SWIDTH 249 0
DWIDTH 4 0
BBX 2 2 1 0
BITMAP
C0
C0
ENDCHAR
STARTCHAR slash
ENCODING 47
SWIDTH 350 0
DWIDTH 6 0
BBX 5 14 0 -3
BITMAP
08
08
08
10
10
10
20
20
20
40
40
40
40
80
ENDCHAR
STARTCHAR zero
ENCODING 48
SWIDTH 497 0
DWIDTH 8 0
BBX 6 10 1 0
BITMAP
78
CC
84
84
84
84
84
84
CC
78
ENDCHAR
STARTCHAR one
ENCODING 49
SWIDTH 497 0
DWIDTH 8 0
BBX 6 10 1 0
BITMAP
30
70
10
10
10
10
10
10
10
FC
ENDCHAR
STARTCHAR two
ENCODING 50
SWIDTH 497 0
DWIDTH 8 0
BBX 6 10 1 0
BITMAP
78
88
0C
0C
08
18
30
60
C0
FC
ENDCHAR
STARTCHAR three
ENCODING 51
SWIDTH 497 0
DWIDTH 8 0
BBX 7 10 0 0
BITMAP
3C
46
06
04
18
06
02
02
46
BC
ENDCHAR
STARTCHAR four
ENCODING 52
SWIDTH 497 0
DWIDTH 8 0
BBX 8 10 0 0
BITMAP
0C
0C
14
24
64
44
FF
04
04
04
ENDCHAR
STARTCHAR five
ENCODING 53
SWIDTH 497 0
DWIDTH 8 0
BBX 7 10 0 0
BITMAP
3E
60
60
60
7C
46
02
02
46
BC
ENDCHAR
STARTCHAR six
ENCODING 54
SWIDTH 497 0
DWIDTH 8 0
BBX 6 10 1 0
BITMAP
38
44
C0
80
B8
C4
84
84
4C
38
ENDCHAR
STARTCHAR seven
ENCODING 55
SWIDTH 497 0
DWIDTH 8 0
BBX 6 10 1 0
BITMAP
FC
0C
08
18
10
10
30
20
20
20
ENDCHAR
STARTCHAR eight
ENCODING 56
SWIDTH 497 0
DWIDTH 8 0
BBX 6 10 1 0
BITMAP
78
CC
84
4C
38
D8
84
84
84
78
ENDCHAR
STARTCHAR nine
ENCODING 57
SWIDTH 497 0
DWIDTH 8 0
BBX 6 10 1 0
BITMAP
70
88
84
84
8C
74
04
0C
88
F0
ENDCHAR
STARTCHAR colon
ENCODING 58
SWIDTH 249 0
DWIDTH 4 0
BBX 2 8 1 0
BITMAP
C0
C0
00
00
00
00
C0
C0
ENDCHAR
STARTCHAR semicolon
ENCODING 59
SWIDTH 249 0
DWIDTH 4 0
BBX 2 11 1 -3
BITMAP
C0
C0
00
00
00
00
C0
C0
40
C0
80
ENDCHAR
STARTCHAR less
ENCODING 60
SWIDTH 497 0
DWIDTH 8 0
BBX 6 6 1 2
BITMAP
04
38
C0
C0
38
04
ENDCHAR
STARTCHAR equal
ENCODING 61
SWIDTH 497 0
DWIDTH 8 0
BBX 6 5 1 3
BITMAP
FC
00
00
00
FC
ENDCHAR
STARTCHAR greater
ENCODING 62
SWIDTH 497 0
DWIDTH 8 0
BBX 6 6 1 2
BITMAP
80
70
0C
0C
70
80
ENDCHAR
STARTCHAR question
ENCODING 63
SWIDTH 425 0
DWIDTH 7 0
BBX 5 11 1 0
BITMAP
70
98
08
08
10
30
20
20
00
60
60
ENDCHAR
STARTCHAR at
ENCODING 64
SWIDTH 847 0
DWIDTH 14 0
BBX 12 13 1 -3
BITMAP
0F80
3040
6020
4710
8910
9110
9110
9320
8DC0
8000
4000
6100
1F00
ENDCHAR
STARTCHAR A
ENCODING 65
SWIDTH 544 0
DWIDTH 9 0
BBX 9 10 0 0
BITMAP
1800
1C00
1400
3400
2600
2200
7E00
4300
4100
C180
ENDCHAR
STARTCHAR B
ENCODING 66
SWIDTH 588 0
DWIDTH 9 0
BBX 8 10 1 0
BITMAP
FC
C6
C2
C6
FC
C2
C3
C3
C2
FC
ENDCHAR
STARTCHAR C
ENCODING 67
SWIDTH 571 0
DWIDTH 9 0
BBX 8 10 1 0
BITMAP
3E
62
C0
80
80
80
80
C0
63
3E
ENDCHAR
STARTCHAR D
ENCODING 68
SWIDTH 615 0
DWIDTH 10 0
BBX 8 10 1 0
BITMAP
FC
C6
C3
C3
C1
C1
C3
C3
C6
FC
ENDCHAR
STARTCHAR E
ENCODING 69
SWIDTH 527 0
DWIDTH 8 0
BBX 7 10 1 0
BITMAP
FC
C0
C0
C0
FC
C0
C0
C0
C0
FE
ENDCHAR
STARTCHAR F
ENCODING 70
SWIDTH 494 0
DWIDTH 8 0
BBX 6 10 1 0
BITMAP
FC
C0
C0
C0
C0
FC
C0
C0
C0
C0
ENDCHAR
STARTCHAR G
ENCODING 71
SWIDTH 617 0
DWIDTH 10 0
BBX 8 10 1 0
BITMAP
3E
63
C0
80
80
8F
81
C1
63
3E
ENDCHAR
STARTCHAR H
ENCODING 72
SWIDTH 652 0
DWIDTH 10 0
BBX 8 10 1 0
BITMAP
C1
C1
C1
C1
FF
C1
C1
C1
C1
C1
ENDCHAR
STARTCHAR I
ENCODING 73
SWIDTH 263 0
DWIDTH 4 0
BBX 2 10 1 0
BITMAP
C0
C0
C0
C0
C0
C0
C0
C0
C0
C0
ENDCHAR
STARTCHAR J
ENCODING 74
SWIDTH 480 0
DWIDTH 8 0
BBX 6 10 0 0
BITMAP
04
04
04
04
04
04
04
04
C4
78
ENDCHAR
STARTCHAR K
ENCODING 75
SWIDTH 579 0
DWIDTH 9 0
BBX 8 10 1 0
BITMAP
C3
C4
CC
D8
F8
E8
C4
C6
C2
C3
ENDCHAR
STARTCHAR L
ENCODING 76
SWIDTH 486 0
DWIDTH 8 0
BBX 6 10 1 0
BITMAP
C0
C0
C0
C0
C0
C0
C0
C0
C0
FC
ENDCHAR
STARTCHAR M
ENCODING 77
SWIDTH 727 0
DWIDTH 12 0
BBX 9 10 1 0
BITMAP
C180
E180
E180
E280
D280
D280
DC80
CC80
C880
C080
ENDCHAR
STARTCHAR N
ENCODING 78
SWIDTH 647 0
DWIDTH 10 0
BBX 8 10 1 0
BITMAP
C1
E1
E1
D1
D9
C9
CD
C5
C3
C3
ENDCHAR
STARTCHAR O
ENCODING 79
SWIDTH 664 0
DWIDTH 11 0
BBX 9 10 1 0
BITMAP
3C00
6300
C100
8180
8180
8180
8180
C100
6300
3C00
ENDCHAR
STARTCHAR P
ENCODING 80
SWIDTH 566 0
DWIDTH 9 0
BBX 7 10 1 0
BITMAP
FC
C6
C2
C2
C6
FC
C0
C0
C0
C0
ENDCHAR
STARTCHAR Q
ENCODING 81
SWIDTH 664 0
DWIDTH 11 0
BBX 9 13 1 -3
BITMAP
3C00
6300
C100
8180
8180
8180
8180
C100
6300
3E00
0800
0C00
0380
ENDCHAR
STARTCHAR R
ENCODING 82
SWIDTH 569 0
DWIDTH 9 0
BBX 8 10 1 0
BITMAP
FC
C2
C2
C2
C6
F8
CC
C4
C6
C3
ENDCHAR
STARTCHAR S
ENCODING 83
SWIDTH 534 0
DWIDTH 9 0
BBX 7 10 1 0
BITMAP
7C
C6
C0
C0
70
1C
06
02
C6
7C
ENDCHAR
STARTCHAR T
ENCODING 84
SWIDTH 536 0
DWIDTH 9 0
BBX 8 10 0 0
BITMAP
FF
08
08
08
08
08
08
08
08
08
ENDCHAR
STARTCHAR U
ENCODING 85
SWIDTH 645 0
DWIDTH 10 0
BBX 8 10 1 0
BITMAP
C1
C1
C1
C1
C1
C1
C1
43
62
3C
ENDCHAR
STARTCHAR V
ENCODING 86
SWIDTH 515 0
DWIDTH 8 0
BBX 8 10 0 0
BITMAP
C1
43
42
62
26
24
24
14
18
18
ENDCHAR
STARTCHAR W
ENCODING 87
SWIDTH 786 0
DWIDTH 13 0
BBX 12 10 0 0
BITMAP
C210
4610
4730
4520
6520
2920
29A0
28E0
28C0
30C0
ENDCHAR
STARTCHAR X
ENCODING 88
SWIDTH 513 0
DWIDTH 8 0
BBX 8 10 0 0
BITMAP
C3
62
24
1C
18
18
34
24
42
C3
ENDCHAR
STARTCHAR Y
ENCODING 89
SWIDTH 476 0
DWIDTH 8 0
BBX 8 10 0 0
BITMAP
C3
42
64
24
38
18
10
10
10
10
ENDCHAR
STARTCHAR Z
ENCODING 90
SWIDTH 539 0
DWIDTH 9 0
BBX 7 10 1 0
BITMAP
FE
06
0C
08
10
30
60
40
C0
FE
ENDCHAR
STARTCHAR bracketleft
ENCODING 91
SWIDTH 303 0
DWIDTH 5 0
BBX 3 14 1 -3
BITMAP
E0
C0
C0
C0
C0
C0
C0
C0
C0
C0
C0
C0
C0
E0
ENDCHAR
STARTCHAR backslash
ENCODING 92
SWIDTH 350 0
DWIDTH 6 0
BBX 5 14 0 -3
BITMAP
80
40
40
40
20
20
20
20
10
10
10
08
08
08
ENDCHAR
STARTCHAR bracketright
ENCODING 93
SWIDTH 303 0
DWIDTH 5 0
BBX 3 14 0 -3
BITMAP
E0
20
20
20
20
20
20
20
20
20
20
20
20
E0
ENDCHAR
STARTCHAR asciicircum
ENCODING 94
SWIDTH 497 0
DWIDTH 8 0
BBX 6 6 1 4
BITMAP
30
30
48
48
48
84
ENDCHAR
STARTCHAR underscore
ENCODING 95
SWIDTH 500 0
DWIDTH 8 0
BBX 8 1 0 -2
BITMAP
FF
ENDCHAR
STARTCHAR grave
ENCODING 96
SWIDTH 542 0
DWIDTH 9 0
BBX 3 3 2 9
BITMAP
80
40
20
ENDCHAR
STARTCHAR a
ENCODING 97
SWIDTH 504 0
DWIDTH 8 0
BBX 6 8 1 0
BITMAP
78
8C
04
3C
C4
84
8C
74
ENDCHAR
STARTCHAR b
ENCODING 98
SWIDTH 553 0
DWIDTH 9 0
BBX 7 11 1 0
BITMAP
C0
C0
C0
FC
C6
C2
C2
C2
C6
C4
B8
ENDCHAR
STARTCHAR c
ENCODING 99
SWIDTH 456 0
DWIDTH 7 0
BBX 6 8 1 0
BITMAP
38
CC
80
80
80
80
C4
78
ENDCHAR
STARTCHAR d
ENCODING 100
SWIDTH 555 0
DWIDTH 9 0
BBX 7 11 1 0
BITMAP
06
06
06
7E
C6
86
86
86
86
C6
7E
ENDCHAR
STARTCHAR e
ENCODING 101
SWIDTH 496 0
DWIDTH 8 0
BBX 6 8 1 0
BITMAP
78
C4
84
FC
80
80
C4
3C
ENDCHAR
STARTCHAR f
ENCODING 102
SWIDTH 292 0
DWIDTH 5 0
BBX 5 11 0 0
BITMAP
38
20
20
F8
20
20
20
20
20
20
20
ENDCHAR
STARTCHAR g
ENCODING 103
SWIDTH 504 0
DWIDTH 8 0
BBX 7 11 1 -3
BITMAP
7E
CC
84
CC
78
80
80
7C
82
86
78
ENDCHAR
STARTCHAR h
ENCODING 104
SWIDTH 544 0
DWIDTH 9 0
BBX 7 11 1 0
BITMAP
C0
C0
C0
DC
E4
C6
C6
C6
C6
C6
C6
ENDCHAR
STARTCHAR i
ENCODING 105
SWIDTH 246 0
DWIDTH 4 0
BBX 2 12 1 0
BITMAP
C0
C0
00
00
C0
C0
C0
C0
C0
C0
C0
C0
ENDCHAR
STARTCHAR j
ENCODING 106
SWIDTH 247 0
DWIDTH 4 0
BBX 4 15 -1 -3
BITMAP
30
30
00
00
30
30
30
30
30
30
30
30
30
30
E0
ENDCHAR
STARTCHAR k
ENCODING 107
SWIDTH 495 0
DWIDTH 8 0
BBX 7 11 1 0
BITMAP
C0
C0
C0
C4
C8
D0
F0
F8
C8
CC
C6
ENDCHAR
STARTCHAR l
ENCODING 108
SWIDTH 255 0
DWIDTH 4 0
BBX 2 11 1 0
BITMAP
C0
C0
C0
C0
C0
C0
C0
C0
C0
C0
40
ENDCHAR
STARTCHAR m
ENCODING 109
SWIDTH 829 0
DWIDTH 13 0
BBX 11 8 1 0
BITMAP
BDC0
C660
C420
C420
C420
C420
C420
C420
ENDCHAR
STARTCHAR n
ENCODING 110
SWIDTH 547 0
DWIDTH 9 0
BBX 7 8 1 0
BITMAP
BC
C4
C6
C6
C6
C6
C6
C6
ENDCHAR
STARTCHAR o
ENCODING 111
SWIDTH 542 0
DWIDTH 9 0
BBX 7 8 1 0
BITMAP
78
C4
86
82
82
86
C4
78
ENDCHAR
STARTCHAR p
ENCODING 112
SWIDTH 555 0
DWIDTH 9 0
BBX 7 11 1 -3
BITMAP
BC
C6
C2
C2
C2
C6
C4
F8
C0
C0
C0
ENDCHAR
STARTCHAR q
ENCODING 113
SWIDTH 555 0
DWIDTH 9 0
BBX 7 11 1 -3
BITMAP
7E
C6
86
86
86
86
C6
7E
06
06
06
ENDCHAR
STARTCHAR r
ENCODING 114
SWIDTH 347 0
DWIDTH 6 0
BBX 5 8 1 0
BITMAP
B8
C0
C0
C0
C0
C0
C0
C0
ENDCHAR
STARTCHAR s
ENCODING 115
SWIDTH 419 0
DWIDTH 7 0
BBX 6 8 0 0
BITMAP
38
4C
40
70
0C
04
44
F8
ENDCHAR
STARTCHAR t
ENCODING 116
SWIDTH 338 0
DWIDTH 5 0
BBX 5 10 0 0
BITMAP
20
20
F8
20
20
20
20
20
20
38
ENDCHAR
STARTCHAR u
ENCODING 117
SWIDTH 544 0
DWIDTH 9 0
BBX 6 8 1 0
BITMAP
C4
C4
C4
C4
C4
C4
CC
74
ENDCHAR
STARTCHAR v
ENCODING 118
SWIDTH 467 0
DWIDTH 7 0
BBX 7 8 0 0
BITMAP
C2
46
44
64
24
28
38
18
ENDCHAR
STARTCHAR w
ENCODING 119
SWIDTH 718 0
DWIDTH 11 0
BBX 11 8 0 0
BITMAP
C620
4660
4A40
6A40
2940
2940
3180
3180
ENDCHAR
STARTCHAR x
ENCODING 120
SWIDTH 446 0
DWIDTH 7 0
BBX 7 8 0 0
BITMAP
C6
64
28
18
38
28
44
C6
ENDCHAR
STARTCHAR y
ENCODING 121
SWIDTH 467 0
DWIDTH 7 0
BBX 7 11 0 -3
BITMAP
C2
42
44
24
24
38
18
18
10
30
60
ENDCHAR
STARTCHAR z
ENCODING 122
SWIDTH 425 0
DWIDTH 7 0
BBX 6 8 0 0
BITMAP
7C
0C
08
18
30
20
40
FC
ENDCHAR
STARTCHAR braceleft
ENCODING 123
SWIDTH 303 0
DWIDTH 5 0
BBX 3 14 1 -3
BITMAP
60
40
40
40
40
40
80
40
40
40
40
40
40
60
ENDCHAR
STARTCHAR bar
ENCODING 124
SWIDTH 241 0
DWIDTH 4 0
BBX 1 16 1 -4
BITMAP
80
80
80
80
80
80
80
80
80
80
80
80
80
80
80
80
ENDCHAR
STARTCHAR braceright
ENCODING 125
SWIDTH 303 0
DWIDTH 5 0
BBX 4 14 0 -3
BITMAP
E0
20
20
20
20
20
10
20
20
20
20
20
20
E0
ENDCHAR
STARTCHAR asciitilde
ENCODING 126
SWIDTH 497 0
DWIDTH 8 0
BBX 6 2 1 4
BITMAP
E4
9C
ENDCHAR
STARTCHAR uni00A0
ENCODING 160
SWIDTH 202 0
DWIDTH 3 0
BBX 1 1 0 0
BITMAP
00
ENDCHAR
STARTCHAR exclamdown
ENCODING 161
SWIDTH 289 0
DWIDTH 5 0
BBX 2 11 1 -3
BITMAP
C0
C0
00
40
40
40
40
40
40
40
40
ENDCHAR
STARTCHAR cent
ENCODING 162
SWIDTH 497 0
DWIDTH 8 0
BBX 6 12 1 -1
BITMAP
10
10
3C
54
D0
90
90
D0
54
3C
10
10
ENDCHAR
STARTCHAR sterling
ENCODING 163
SWIDTH 497 0
DWIDTH 8 0
BBX 6 10 1 0
BITMAP
3C
44
40
40
F8
20
20
60
40
FC
ENDCHAR
STARTCHAR currency
ENCODING 164
SWIDTH 497 0
DWIDTH 8 0
BBX 8 8 0 1
BITMAP
82
7F
66
42
42
66
7E
83
ENDCHAR
STARTCHAR yen
ENCODING 165
SWIDTH 497 0
DWIDTH 8 0
BBX 8 10 0 0
BITMAP
C3
42
24
24
18
7E
18
7E
18
18
ENDCHAR
STARTCHAR brokenbar
ENCODING 166
SWIDTH 241 0
DWIDTH 4 0
BBX 1 16 1 -4
BITMAP
80
80
80
80
80
80
80
00
00
80
80
80
80
80
80
80
ENDCHAR
STARTCHAR section
ENCODING 167
SWIDTH 497 0
DWIDTH 8 0
BBX 6 12 1 -1
BITMAP
78
48
40
60
98
84
84
64
18
08
88
70
ENDCHAR
STARTCHAR dieresis
ENCODING 168
SWIDTH 542 0
DWIDTH 9 0
BBX 5 2 2 9
BITMAP
98
D8
ENDCHAR
STARTCHAR copyright
ENCODING 169
SWIDTH 744 0
DWIDTH 12 0
BBX 10 11 1 0
BITMAP
1E00
6180
4080
9E40
B240
A040
B240
9E40
4080
6180
1E00
ENDCHAR
STARTCHAR ordfeminine
ENCODING 170
SWIDTH 345 0
DWIDTH 6 0
BBX 4 6 1 6
BITMAP
E0
90
70
90
90
F0
ENDCHAR
STARTCHAR guillemotleft
ENCODING 171
SWIDTH 429 0
DWIDTH 7 0
BBX 5 6 1 1
BITMAP
48
50
A0
A0
50
48
ENDCHAR
STARTCHAR logicalnot
ENCODING 172
SWIDTH 497 0
DWIDTH 8 0
BBX 6 4 1 2
BITMAP
FC
04
04
04
ENDCHAR
STARTCHAR uni00AD
ENCODING 173
SWIDTH 311 0
DWIDTH 5 0
BBX 3 1 1 4
BITMAP
E0
ENDCHAR
STARTCHAR registered
ENCODING 174
SWIDTH 423 0
DWIDTH 7 0
BBX 6 7 0 5
BITMAP
38
44
BC
B4
AC
44
38
ENDCHAR
STARTCHAR macron
ENCODING 175
SWIDTH 542 0
DWIDTH 9 0
BBX 4 1 2 10
BITMAP
F0
ENDCHAR
STARTCHAR degree
ENCODING 176
SWIDTH 331 0
DWIDTH 5 0
BBX 4 4 1 7
BITMAP
E0
90
90
E0
ENDCHAR
STARTCHAR plusminus
ENCODING 177
SWIDTH 497 0
DWIDTH 8 0
BBX 6 9 1 0
BITMAP
30
30
30
FC
30
30
30
00
FC
ENDCHAR
STARTCHAR two.sups
ENCODING 178
SWIDTH 367 0
DWIDTH 6 0
BBX 4 6 1 6
BITMAP
E0
90
10
20
40
F0
ENDCHAR
STARTCHAR three.sups
ENCODING 179
SWIDTH 367 0
DWIDTH 6 0
BBX 4 6 1 6
BITMAP
60
90
60
10
90
E0
ENDCHAR
STARTCHAR acute
ENCODING 180
SWIDTH 542 0
DWIDTH 9 0
BBX 4 3 3 9
BITMAP
20
70
C0
ENDCHAR
STARTCHAR uni00B5
ENCODING 181
SWIDTH 562 0
DWIDTH 9 0
BBX 8 10 1 -2
BITMAP
C4
C4
C4
C4
C4
C4
CC
F3
C0
C0
ENDCHAR
STARTCHAR paragraph
ENCODING 182
SWIDTH 560 0
DWIDTH 9 0
BBX 6 12 1 -2
BITMAP
74
F4
F4
F4
F4
F4
34
04
04
04
04
04
ENDCHAR
STARTCHAR periodcentered
ENCODING 183
SWIDTH 249 0
DWIDTH 4 0
BBX 2 2 1 4
BITMAP
C0
C0
ENDCHAR
STARTCHAR cedilla
ENCODING 184
SWIDTH 542 0
DWIDTH 9 0
BBX 3 5 3 -5
BITMAP
40
40
A0
60
C0
ENDCHAR
STARTCHAR one.sups
ENCODING 185
SWIDTH 367 0
DWIDTH 6 0
BBX 3 6 1 6
BITMAP
E0
20
20
20
20
20
ENDCHAR
STARTCHAR ordmasculine
ENCODING 186
SWIDTH 365 0
DWIDTH 6 0
BBX 5 6 0 6
BITMAP
70
48
48
C8
48
70
ENDCHAR
STARTCHAR guillemotright
ENCODING 187
SWIDTH 429 0
DWIDTH 7 0
BBX 5 6 1 1
BITMAP
A0
50
68
68
50
A0
ENDCHAR
STARTCHAR onequarter
ENCODING 188
SWIDTH 781 0
DWIDTH 13 0
BBX 11 11 1 0
BITMAP
0180
C100
4200
4200
4400
44C0
48C0
0940
13E0
1040
2040
ENDCHAR
STARTCHAR onehalf
ENCODING 189
SWIDTH 808 0
DWIDTH 13 0
BBX 11 11 1 0
BITMAP
0100
C200
4200
4400
4400
49C0
4920
1020
1040
2080
21E0
ENDCHAR
STARTCHAR threequarters
ENCODING 190
SWIDTH 796 0
DWIDTH 13 0
BBX 11 11 1 0
BITMAP
0080
6100
9100
6200
1200
9440
E4C0
0940
09E0
1040
3040
ENDCHAR
STARTCHAR questiondown
ENCODING 191
SWIDTH 425 0
DWIDTH 7 0
BBX 5 11 1 -3
BITMAP
20
30
00
20
20
60
C0
80
80
88
70
ENDCHAR
STARTCHAR Agrave
ENCODING 192
SWIDTH 544 0
DWIDTH 9 0
BBX 9 14 0 0
BITMAP
2000
1000
0800
0000
1800
1C00
1400
3400
2600
2200
7E00
4300
4100
C180
ENDCHAR
STARTCHAR Aacute
ENCODING 193
SWIDTH 544 0
DWIDTH 9 0
BBX 9 14 0 0
BITMAP
0400
0E00
1800
0000
1800
1C00
1400
3400
2600
2200
7E00
4300
4100
C180
ENDCHAR
STARTCHAR Acircumflex
ENCODING 194
SWIDTH 544 0
DWIDTH 9 0
BBX 9 13 0 0
BITMAP
1C00
2600
0000
1800
1C00
1400
3400
2600
2200
7E00
4300
4100
C180
ENDCHAR
STARTCHAR Atilde
ENCODING 195
SWIDTH 544 0
DWIDTH 9 0
BBX 9 13 0 0
BITMAP
3A00
4E00
0000
1800
1C00
1400
3400
2600
2200
7E00
4300
4100
C180
ENDCHAR
STARTCHAR Adieresis
ENCODING 196
SWIDTH 544 0
DWIDTH 9 0
BBX 9 13 0 0
BITMAP
2600
2600
0000
1800
1C00
1400
3400
2600
2200
7E00
4300
4100
C180
ENDCHAR
STARTCHAR Aring
ENCODING 197
SWIDTH 544 0
DWIDTH 9 0
BBX 9 14 0 0
BITMAP
1C00
1400
1C00
0000
1800
1C00
1400
3400
2600
2200
7E00
4300
4100
C180
ENDCHAR
STARTCHAR AE
ENCODING 198
SWIDTH 822 0
DWIDTH 13 0
BBX 12 10 0 0
BITMAP
07F0
0700
0F00
0B00
13E0
1300
3F00
6300
4300
C3F0
ENDCHAR
STARTCHAR Ccedilla
ENCODING 199
SWIDTH 571 0
DWIDTH 9 0
BBX 8 15 1 -5
BITMAP
3E
62
C0
80
80
80
80
C0
63
3E
08
08
14
04
18
ENDCHAR
STARTCHAR Egrave
ENCODING 200
SWIDTH 527 0
DWIDTH 8 0
BBX 7 14 1 0
BITMAP
20
70
10
00
FC
C0
C0
C0
FC
C0
C0
C0
C0
FE
ENDCHAR
STARTCHAR Eacute
ENCODING 201
SWIDTH 527 0
DWIDTH 8 0
BBX 7 14 1 0
BITMAP
08
1C
10
00
FC
C0
C0
C0
FC
C0
C0
C0
C0
FE
ENDCHAR
STARTCHAR Ecircumflex
ENCODING 202
SWIDTH 527 0
DWIDTH 8 0
BBX 7 13 1 0
BITMAP
38
44
00
FC
C0
C0
C0
FC
C0
C0
C0
C0
FE
ENDCHAR
STARTCHAR Edieresis
ENCODING 203
SWIDTH 527 0
DWIDTH 8 0
BBX 7 13 1 0
BITMAP
6C
64
00
FC
C0
C0
C0
FC
C0
C0
C0
C0
FE
ENDCHAR
STARTCHAR Igrave
ENCODING 204
SWIDTH 263 0
DWIDTH 4 0
BBX 3 14 0 0
BITMAP
80
40
20
00
60
60
60
60
60
60
60
60
60
60
ENDCHAR
STARTCHAR Iacute
ENCODING 205
SWIDTH 263 0
DWIDTH 4 0
BBX 3 14 1 0
BITMAP
20
60
80
00
C0
C0
C0
C0
C0
C0
C0
C0
C0
C0
ENDCHAR
STARTCHAR Icircumflex
ENCODING 206
SWIDTH 263 0
DWIDTH 4 0
BBX 4 13 0 0
BITMAP
60
90
00
60
60
60
60
60
60
60
60
60
60
ENDCHAR
STARTCHAR Idieresis
ENCODING 207
SWIDTH 263 0
DWIDTH 4 0
BBX 5 13 0 0
BITMAP
90
98
00
60
60
60
60
60
60
60
60
60
60
ENDCHAR
STARTCHAR Eth
ENCODING 208
SWIDTH 638 0
DWIDTH 10 0
BBX 8 10 1 0
BITMAP
7C
46
43
41
F9
41
41
43
46
7C
ENDCHAR
STARTCHAR Ntilde
ENCODING 209
SWIDTH 647 0
DWIDTH 10 0
BBX 8 13 1 0
BITMAP
32
4E
00
C1
E1
E1
D1
D9
C9
CD
C5
C3
C3
ENDCHAR
STARTCHAR Ograve
ENCODING 210
SWIDTH 664 0
DWIDTH 11 0
BBX 9 14 1 0
BITMAP
2000
1000
0800
0000
3C00
6300
C100
8180
8180
8180
8180
C100
6300
3C00
ENDCHAR
STARTCHAR Oacute
ENCODING 211
SWIDTH 664 0
DWIDTH 11 0
BBX 9 14 1 0
BITMAP
0400
0C00
1800
0000
3C00
6300
C100
8180
8180
8180
8180
C100
6300
3C00
ENDCHAR
STARTCHAR Ocircumflex
ENCODING 212
SWIDTH 664 0
DWIDTH 11 0
BBX 9 13 1 0
BITMAP
1C00
2600
0000
3C00
6300
C100
8180
8180
8180
8180
C100
6300
3C00
ENDCHAR
STARTCHAR Otilde
ENCODING 213
SWIDTH 664 0
DWIDTH 11 0
BBX 9 13 1 0
BITMAP
3A00
4E00
0000
3C00
6300
C100
8180
8180
8180
8180
C100
6300
3C00
ENDCHAR
STARTCHAR Odieresis
ENCODING 214
SWIDTH 664 0
DWIDTH 11 0
BBX 9 13 1 0
BITMAP
2600
2600
0000
3C00
6300
C100
8180
8180
8180
8180
C100
6300
3C00
ENDCHAR
STARTCHAR multiply
ENCODING 215
SWIDTH 497 0
DWIDTH 8 0
BBX 6 7 1 2
BITMAP
84
C8
78
30
78
CC
84
ENDCHAR
STARTCHAR Oslash
ENCODING 216
SWIDTH 664 0
DWIDTH 11 0
BBX 9 10 1 0
BITMAP
3E80
6300
C300
8580
8D80
9980
F180
6100
6300
BE00
ENDCHAR
STARTCHAR Ugrave
ENCODING 217
SWIDTH 645 0
DWIDTH 10 0
BBX 8 14 1 0
BITMAP
20
10
08
00
C1
C1
C1
C1
C1
C1
C1
43
62
3C
ENDCHAR
STARTCHAR Uacute
ENCODING 218
SWIDTH 645 0
DWIDTH 10 0
BBX 8 14 1 0
BITMAP
04
0C
10
00
C1
C1
C1
C1
C1
C1
C1
43
62
3C
ENDCHAR
STARTCHAR Ucircumflex
ENCODING 219
SWIDTH 645 0
DWIDTH 10 0
BBX 8 13 1 0
BITMAP
18
24
02
C1
C1
C1
C1
C1
C1
C1
43
62
3C
ENDCHAR
STARTCHAR Udieresis
ENCODING 220
SWIDTH 645 0
DWIDTH 10 0
BBX 8 13 1 0
BITMAP
26
24
00
C1
C1
C1
C1
C1
C1
C1
43
62
3C
ENDCHAR
STARTCHAR Yacute
ENCODING 221
SWIDTH 476 0
DWIDTH 8 0
BBX 8 14 0 0
BITMAP
04
08
10
00
C3
42
64
24
38
18
10
10
10
10
ENDCHAR
STARTCHAR Thorn
ENCODING 222
SWIDTH 583 0
DWIDTH 9 0
BBX 8 10 1 0
BITMAP
C0
FC
C2
C2
C3
C2
C6
FC
C0
C0
ENDCHAR
STARTCHAR germandbls
ENCODING 223
SWIDTH 576 0
DWIDTH 9 0
BBX 8 11 1 0
BITMAP
38
44
C4
CC
C8
D8
CC
C6
C3
D3
DE
ENDCHAR
STARTCHAR agrave
ENCODING 224
SWIDTH 504 0
DWIDTH 8 0
BBX 6 12 1 0
BITMAP
40
20
10
00
78
8C
04
3C
C4
84
8C
74
ENDCHAR
STARTCHAR aacute
ENCODING 225
SWIDTH 504 0
DWIDTH 8 0
BBX 6 12 1 0
BITMAP
08
18
30
00
78
8C
04
3C
C4
84
8C
74
ENDCHAR
STARTCHAR acircumflex
ENCODING 226
SWIDTH 504 0
DWIDTH 8 0
BBX 6 12 1 0
BITMAP
30
68
44
00
78
8C
04
3C
C4
84
8C
74
ENDCHAR
STARTCHAR atilde
ENCODING 227
SWIDTH 504 0
DWIDTH 8 0
BBX 6 11 1 0
BITMAP
74
98
00
78
8C
04
3C
C4
84
8C
74
ENDCHAR
STARTCHAR adieresis
ENCODING 228
SWIDTH 504 0
DWIDTH 8 0
BBX 6 11 1 0
BITMAP
48
4C
00
78
8C
04
3C
C4
84
8C
74
ENDCHAR
STARTCHAR aring
ENCODING 229
SWIDTH 504 0
DWIDTH 8 0
BBX 6 12 1 0
BITMAP
38
48
38
00
78
8C
04
3C
C4
84
8C
74
ENDCHAR
STARTCHAR ae
ENCODING 230
SWIDTH 785 0
DWIDTH 13 0
BBX 11 8 1 0
BITMAP
7BC0
8A60
0420
3FE0
C400
8400
8E40
73E0
ENDCHAR
STARTCHAR ccedilla
ENCODING 231
SWIDTH 456 0
DWIDTH 7 0
BBX 6 13 1 -5
BITMAP
38
CC
80
80
80
80
C4
78
10
10
38
18
30
ENDCHAR
STARTCHAR egrave
ENCODING 232
SWIDTH 496 0
DWIDTH 8 0
BBX 6 12 1 0
BITMAP
40
20
10
00
78
C4
84
FC
80
80
C4
3C
ENDCHAR
STARTCHAR eacute
ENCODING 233
SWIDTH 496 0
DWIDTH 8 0
BBX 6 12 1 0
BITMAP
08
1C
30
00
78
C4
84
FC
80
80
C4
3C
ENDCHAR
STARTCHAR ecircumflex
ENCODING 234
SWIDTH 496 0
DWIDTH 8 0
BBX 6 12 1 0
BITMAP
30
68
44
00
78
C4
84
FC
80
80
C4
3C
ENDCHAR
STARTCHAR edieresis
ENCODING 235
SWIDTH 496 0
DWIDTH 8 0
BBX 6 11 1 0
BITMAP
48
4C
00
78
C4
84
FC
80
80
C4
3C
ENDCHAR
STARTCHAR igrave
ENCODING 236
SWIDTH 246 0
DWIDTH 4 0
BBX 3 12 0 0
BITMAP
80
C0
20
00
60
60
60
60
60
60
60
60
ENDCHAR
STARTCHAR iacute
ENCODING 237
SWIDTH 246 0
DWIDTH 4 0
BBX 3 12 1 0
BITMAP
20
40
80
00
C0
C0
C0
C0
C0
C0
C0
C0
ENDCHAR
STARTCHAR icircumflex
ENCODING 238
SWIDTH 246 0
DWIDTH 4 0
BBX 5 12 -1 0
BITMAP
30
58
C8
00
30
30
30
30
30
30
30
30
ENDCHAR
STARTCHAR idieresis
ENCODING 239
SWIDTH 246 0
DWIDTH 4 0
BBX 4 11 0 0
BITMAP
90
90
00
60
60
60
60
60
60
60
60
ENDCHAR
STARTCHAR eth
ENCODING 240
SWIDTH 545 0
DWIDTH 9 0
BBX 7 11 1 0
BITMAP
64
3E
38
6C
04
7E
C6
86
86
C4
78
ENDCHAR
STARTCHAR ntilde
ENCODING 241
SWIDTH 547 0
DWIDTH 9 0
BBX 7 11 1 0
BITMAP
74
4C
00
BC
C4
C6
C6
C6
C6
C6
C6
ENDCHAR
STARTCHAR ograve
ENCODING 242
SWIDTH 542 0
DWIDTH 9 0
BBX 7 12 1 0
BITMAP
40
20
10
00
78
C4
86
82
82
86
C4
78
ENDCHAR
STARTCHAR oacute
ENCODING 243
SWIDTH 542 0
DWIDTH 9 0
BBX 7 12 1 0
BITMAP
08
1C
30
00
78
C4
86
82
82
86
C4
78
ENDCHAR
STARTCHAR ocircumflex
ENCODING 244
SWIDTH 542 0
DWIDTH 9 0
BBX 7 12 1 0
BITMAP
30
28
44
00
78
C4
86
82
82
86
C4
78
ENDCHAR
STARTCHAR otilde
ENCODING 245
SWIDTH 542 0
DWIDTH 9 0
BBX 7 11 1 0
BITMAP
74
5C
00
78
C4
86
82
82
86
C4
78
ENDCHAR
STARTCHAR odieresis
ENCODING 246
SWIDTH 542 0
DWIDTH 9 0
BBX 7 11 1 0
BITMAP
4C
6C
00
78
C4
86
82
82
86
C4
78
ENDCHAR
STARTCHAR divide
ENCODING 247
SWIDTH 497 0
DWIDTH 8 0
BBX 6 7 1 2
BITMAP
30
00
00
FC
00
00
30
ENDCHAR
STARTCHAR oslash
ENCODING 248
SWIDTH 542 0
DWIDTH 9 0
BBX 7 8 1 0
BITMAP
7A
C4
8E
92
A2
A6
C4
F8
ENDCHAR
STARTCHAR ugrave
ENCODING 249
SWIDTH 544 0
DWIDTH 9 0
BBX 6 12 1 0
BITMAP
40
20
10
00
C4
C4
C4
C4
C4
C4
CC
74
ENDCHAR
STARTCHAR uacute
ENCODING 250
SWIDTH 544 0
DWIDTH 9 0
BBX 6 12 1 0
BITMAP
08
1C
30
00
C4
C4
C4
C4
C4
C4
CC
74
ENDCHAR
STARTCHAR ucircumflex
ENCODING 251
SWIDTH 544 0
DWIDTH 9 0
BBX 6 12 1 0
BITMAP
30
28
44
00
C4
C4
C4
C4
C4
C4
CC
74
ENDCHAR
STARTCHAR udieresis
ENCODING 252
SWIDTH 544 0
DWIDTH 9 0
BBX 6 11 1 0
BITMAP
6C
6C
00
C4
C4
C4
C4
C4
C4
CC
74
ENDCHAR
STARTCHAR yacute
ENCODING 253
SWIDTH 467 0
DWIDTH 7 0
BBX 7 15 0 -3
BITMAP
04
08
10
00
C2
42
44
24
24
38
18
18
10
30
60
ENDCHAR
STARTCHAR thorn
ENCODING 254
SWIDTH 555 0
DWIDTH 9 0
BBX 7 14 1 -3
BITMAP
C0
C0
C0
FC
C6
C2
C2
C2
C6
C4
F8
C0
C0
C0
ENDCHAR
STARTCHAR ydieresis
ENCODING 255
SWIDTH 467 0
DWIDTH 7 0
BBX 7 14 0 -3
BITMAP
24
24
00
C2
42
44
24
24
38
18
18
10
30
60
ENDCHAR
STARTCHAR Amacron
ENCODING 256
SWIDTH 544 0
DWIDTH 9 0
BBX 9 12 0 0
BITMAP
3C00
0000
1800
1C00
1400
3400
2600
2200
7E00
4300
4100
C180
ENDCHAR
STARTCHAR amacron
ENCODING 257
SWIDTH 504 0
DWIDTH 8 0
BBX 6 11 1 0
BITMAP
78
00
00
78
8C
04
3C
C4
84
8C
74
ENDCHAR
STARTCHAR Abreve
ENCODING 258
SWIDTH 544 0
DWIDTH 9 0
BBX 9 13 0 0
BITMAP
2200
1C00
0000
1800
1C00
1400
3400
2600
2200
7E00
4300
4100
C180
ENDCHAR
STARTCHAR abreve
ENCODING 259
SWIDTH 504 0
DWIDTH 8 0
BBX 6 12 1 0
BITMAP
44
48
38
00
78
8C
04
3C
C4
84
8C
74
ENDCHAR
STARTCHAR Aogonek
ENCODING 260
SWIDTH 544 0
DWIDTH 9 0
BBX 9 13 0 -3
BITMAP
1800
1C00
1400
3400
2600
2200
7E00
4300
4100
C100
0180
0200
0180
ENDCHAR
STARTCHAR aogonek
ENCODING 261
SWIDTH 504 0
DWIDTH 8 0
BBX 6 11 1 -3
BITMAP
78
8C
04
3C
C4
84
8C
74
08
08
0C
ENDCHAR
STARTCHAR Cacute
ENCODING 262
SWIDTH 571 0
DWIDTH 9 0
BBX 8 14 1 0
BITMAP
04
0C
18
00
3E
62
C0
80
80
80
80
C0
63
3E
ENDCHAR
STARTCHAR cacute
ENCODING 263
SWIDTH 456 0
DWIDTH 7 0
BBX 6 12 1 0
BITMAP
08
1C
10
00
38
CC
80
80
80
80
C4
78
ENDCHAR
STARTCHAR Ccircumflex
ENCODING 264
SWIDTH 571 0
DWIDTH 9 0
BBX 8 13 1 0
BITMAP
18
26
00
3E
62
C0
80
80
80
80
C0
63
3E
ENDCHAR
STARTCHAR ccircumflex
ENCODING 265
SWIDTH 456 0
DWIDTH 7 0
BBX 6 12 1 0
BITMAP
38
28
44
00
38
CC
80
80
80
80
C4
78
ENDCHAR
STARTCHAR Cdotaccent
ENCODING 266
SWIDTH 571 0
DWIDTH 9 0
BBX 8 13 1 0
BITMAP
18
18
00
3E
62
C0
80
80
80
80
C0
63
3E
ENDCHAR
STARTCHAR cdotaccent
ENCODING 267
SWIDTH 456 0
DWIDTH 7 0
BBX 6 11 1 0
BITMAP
10
10
00
38
CC
80
80
80
80
C4
78
ENDCHAR
STARTCHAR Ccaron
ENCODING 268
SWIDTH 571 0
DWIDTH 9 0
BBX 8 13 1 0
BITMAP
26
18
00
3E
62
C0
80
80
80
80
C0
63
3E
ENDCHAR
STARTCHAR ccaron
ENCODING 269
SWIDTH 456 0
DWIDTH 7 0
BBX 6 12 1 0
BITMAP
44
28
38
00
38
CC
80
80
80
80
C4
78
ENDCHAR
STARTCHAR Dcaron
ENCODING 270
SWIDTH 615 0
DWIDTH 10 0
BBX 8 13 1 0
BITMAP
24
18
00
FC
C6
C3
C3
C1
C1
C3
C3
C6
FC
ENDCHAR
STARTCHAR dcaron
ENCODING 271
SWIDTH 573 0
DWIDTH 9 0
BBX 8 12 1 0
BITMAP
01
07
07
06
7E
C6
86
86
86
86
C6
7E
ENDCHAR
STARTCHAR Dcroat
ENCODING 272
SWIDTH 638 0
DWIDTH 10 0
BBX 8 10 1 0
BITMAP
7C
46
43
41
F9
41
41
43
46
7C
ENDCHAR
STARTCHAR dcroat
ENCODING 273
SWIDTH 555 0
DWIDTH 9 0
BBX 8 11 1 0
BITMAP
06
1F
06
06
7E
C6
86
86
86
C6
7E
ENDCHAR
STARTCHAR Emacron
ENCODING 274
SWIDTH 527 0
DWIDTH 8 0
BBX 7 12 1 0
BITMAP
7C
00
FC
C0
C0
C0
FC
C0
C0
C0
C0
FE
ENDCHAR
STARTCHAR emacron
ENCODING 275
SWIDTH 496 0
DWIDTH 8 0
BBX 6 11 1 0
BITMAP
78
00
00
78
C4
84
FC
80
80
C4
3C
ENDCHAR
STARTCHAR Ebreve
ENCODING 276
SWIDTH 527 0
DWIDTH 8 0
BBX 7 13 1 0
BITMAP
44
38
00
FC
C0
C0
C0
FC
C0
C0
C0
C0
FE
ENDCHAR
STARTCHAR ebreve
ENCODING 277
SWIDTH 496 0
DWIDTH 8 0
BBX 6 12 1 0
BITMAP
44
48
38
00
78
C4
84
FC
80
80
C4
3C
ENDCHAR
STARTCHAR Edotaccent
ENCODING 278
SWIDTH 527 0
DWIDTH 8 0
BBX 7 13 1 0
BITMAP
10
10
00
FC
C0
C0
C0
FC
C0
C0
C0
C0
FE
ENDCHAR
STARTCHAR edotaccent
ENCODING 279
SWIDTH 496 0
DWIDTH 8 0
BBX 6 11 1 0
BITMAP
30
30
00
78
C4
84
FC
80
80
C4
3C
ENDCHAR
STARTCHAR Eogonek
ENCODING 280
SWIDTH 527 0
DWIDTH 8 0
BBX 7 13 1 -3
BITMAP
FC
C0
C0
C0
FC
C0
C0
C0
C0
FE
04
08
0E
ENDCHAR
STARTCHAR eogonek
ENCODING 281
SWIDTH 496 0
DWIDTH 8 0
BBX 6 11 1 -3
BITMAP
78
C4
84
FC
80
80
C4
3C
08
10
0C
ENDCHAR
STARTCHAR Ecaron
ENCODING 282
SWIDTH 527 0
DWIDTH 8 0
BBX 7 13 1 0
BITMAP
44
38
00
FC
C0
C0
C0
FC
C0
C0
C0
C0
FE
ENDCHAR
STARTCHAR ecaron
ENCODING 283
SWIDTH 496 0
DWIDTH 8 0
BBX 6 12 1 0
BITMAP
44
68
30
00
78
C4
84
FC
80
80
C4
3C
ENDCHAR
STARTCHAR Gcircumflex
ENCODING 284
SWIDTH 617 0
DWIDTH 10 0
BBX 8 13 1 0
BITMAP
1C
32
00
3E
63
C0
80
80
8F
81
C1
63
3E
ENDCHAR
STARTCHAR gcircumflex
ENCODING 285
SWIDTH 504 0
DWIDTH 8 0
BBX 7 15 1 -3
BITMAP
30
68
44
00
7E
CC
84
CC
78
80
80
7C
82
86
78
ENDCHAR
STARTCHAR Gbreve
ENCODING 286
SWIDTH 617 0
DWIDTH 10 0
BBX 8 13 1 0
BITMAP
22
1C
00
3E
63
C0
80
80
8F
81
C1
63
3E
ENDCHAR
STARTCHAR gbreve
ENCODING 287
SWIDTH 504 0
DWIDTH 8 0
BBX 7 15 1 -3
BITMAP
44
48
38
00
7E
CC
84
CC
78
80
80
7C
82
86
78
ENDCHAR
STARTCHAR Gdotaccent
ENCODING 288
SWIDTH 617 0
DWIDTH 10 0
BBX 8 13 1 0
BITMAP
08
0C
00
3E
63
C0
80
80
8F
81
C1
63
3E
ENDCHAR
STARTCHAR gdotaccent
ENCODING 289
SWIDTH 504 0
DWIDTH 8 0
BBX 7 14 1 -3
BITMAP
10
30
00
7E
CC
84
CC
78
80
80
7C
82
86
78
ENDCHAR
STARTCHAR uni0122
ENCODING 290
SWIDTH 617 0
DWIDTH 10 0
BBX 8 14 1 -4
BITMAP
3E
63
C0
80
80
8F
81
C1
63
3E
00
08
04
18
ENDCHAR
STARTCHAR uni0123
ENCODING 291
SWIDTH 504 0
DWIDTH 8 0
BBX 7 15 1 -3
BITMAP
18
20
30
00
7E
CC
84
CC
78
80
80
7C
82
86
78
ENDCHAR
STARTCHAR Hcircumflex
ENCODING 292
SWIDTH 652 0
DWIDTH 10 0
BBX 8 13 1 0
BITMAP
18
24
02
C1
C1
C1
C1
FF
C1
C1
C1
C1
C1
ENDCHAR
STARTCHAR hcircumflex
ENCODING 293
SWIDTH 544 0
DWIDTH 9 0
BBX 8 14 0 0
BITMAP
60
90
00
60
60
60
6E
72
63
63
63
63
63
63
ENDCHAR
STARTCHAR Hbar
ENCODING 294
SWIDTH 687 0
DWIDTH 11 0
BBX 9 10 1 0
BITMAP
4100
FF80
4100
4100
7F00
4100
4100
4100
4100
4100
ENDCHAR
STARTCHAR hbar
ENCODING 295
SWIDTH 544 0
DWIDTH 9 0
BBX 8 11 0 0
BITMAP
60
FC
60
60
7E
62
63
63
63
63
63
ENDCHAR
STARTCHAR Itilde
ENCODING 296
SWIDTH 263 0
DWIDTH 4 0
BBX 6 13 -1 0
BITMAP
64
98
00
30
30
30
30
30
30
30
30
30
30
ENDCHAR
STARTCHAR itilde
ENCODING 297
SWIDTH 246 0
DWIDTH 4 0
BBX 6 11 -1 0
BITMAP
E4
98
00
30
30
30
30
30
30
30
30
ENDCHAR
STARTCHAR Imacron
ENCODING 298
SWIDTH 263 0
DWIDTH 4 0
BBX 4 12 0 0
BITMAP
F0
00
60
60
60
60
60
60
60
60
60
60
ENDCHAR
STARTCHAR imacron
ENCODING 299
SWIDTH 246 0
DWIDTH 4 0
BBX 4 11 0 0
BITMAP
F0
00
00
60
60
60
60
60
60
60
60
ENDCHAR
STARTCHAR uni012C
ENCODING 300
SWIDTH 263 0
DWIDTH 4 0
BBX 4 13 0 0
BITMAP
90
F0
00
60
60
60
60
60
60
60
60
60
60
ENDCHAR
STARTCHAR uni012D
ENCODING 301
SWIDTH 246 0
DWIDTH 4 0
BBX 5 12 -1 0
BITMAP
88
48
70
00
30
30
30
30
30
30
30
30
ENDCHAR
STARTCHAR Iogonek
ENCODING 302
SWIDTH 263 0
DWIDTH 4 0
BBX 3 13 1 -3
BITMAP
C0
C0
C0
C0
C0
C0
C0
C0
C0
C0
80
80
E0
ENDCHAR
STARTCHAR iogonek
ENCODING 303
SWIDTH 246 0
DWIDTH 4 0
BBX 2 15 1 -3
BITMAP
C0
C0
00
00
C0
C0
C0
C0
C0
C0
C0
C0
80
80
C0
ENDCHAR
STARTCHAR Idotaccent
ENCODING 304
SWIDTH 263 0
DWIDTH 4 0
BBX 2 13 1 0
BITMAP
C0
C0
00
C0
C0
C0
C0
C0
C0
C0
C0
C0
C0
ENDCHAR
STARTCHAR dotlessi
ENCODING 305
SWIDTH 246 0
DWIDTH 4 0
BBX 2 8 1 0
BITMAP
C0
C0
C0
C0
C0
C0
C0
C0
ENDCHAR
STARTCHAR uni0132
ENCODING 306
SWIDTH 526 0
DWIDTH 8 0
BBX 6 13 1 -3
BITMAP
C4
C4
C4
C4
C4
C4
C4
C4
C4
C4
04
0C
18
ENDCHAR
STARTCHAR uni0133
ENCODING 307
SWIDTH 493 0
DWIDTH 8 0
BBX 6 14 1 -3
BITMAP
CC
00
00
CC
CC
CC
CC
CC
CC
CC
CC
0C
08
38
ENDCHAR
STARTCHAR Jcircumflex
ENCODING 308
SWIDTH 480 0
DWIDTH 8 0
BBX 8 13 0 0
BITMAP
0E
11
00
04
04
04
04
04
04
04
04
C4
78
ENDCHAR
STARTCHAR jcircumflex
ENCODING 309
SWIDTH 247 0
DWIDTH 4 0
BBX 5 15 -1 -3
BITMAP
30
58
C8
00
30
30
30
30
30
30
30
30
30
30
E0
ENDCHAR
STARTCHAR uni0136
ENCODING 310
SWIDTH 579 0
DWIDTH 9 0
BBX 8 14 1 -4
BITMAP
C3
C4
CC
D8
F8
E8
C4
C6
C2
C3
00
18
08
18
ENDCHAR
STARTCHAR uni0137
ENCODING 311
SWIDTH 495 0
DWIDTH 8 0
BBX 7 15 1 -4
BITMAP
C0
C0
C0
C4
C8
D0
F0
F8
C8
CC
C4
02
10
28
30
ENDCHAR
STARTCHAR kgreenlandic
ENCODING 312
SWIDTH 495 0
DWIDTH 8 0
BBX 7 8 1 0
BITMAP
C4
C8
D0
F0
F8
C8
CC
C6
ENDCHAR
STARTCHAR Lacute
ENCODING 313
SWIDTH 486 0
DWIDTH 8 0
BBX 6 14 1 0
BITMAP
20
60
80
00
C0
C0
C0
C0
C0
C0
C0
C0
C0
FC
ENDCHAR
STARTCHAR lacute
ENCODING 314
SWIDTH 255 0
DWIDTH 4 0
BBX 3 15 1 0
BITMAP
20
40
80
00
C0
C0
C0
C0
C0
C0
C0
C0
C0
C0
40
ENDCHAR
STARTCHAR uni013B
ENCODING 315
SWIDTH 486 0
DWIDTH 8 0
BBX 6 14 1 -4
BITMAP
C0
C0
C0
C0
C0
C0
C0
C0
C0
FC
00
18
08
30
ENDCHAR
STARTCHAR uni013C
ENCODING 316
SWIDTH 255 0
DWIDTH 4 0
BBX 3 15 1 -4
BITMAP
C0
C0
C0
C0
C0
C0
C0
C0
C0
C0
40
00
40
20
C0
ENDCHAR
STARTCHAR Lcaron
ENCODING 317
SWIDTH 486 0
DWIDTH 8 0
BBX 6 11 1 0
BITMAP
08
C8
C8
C0
C0
C0
C0
C0
C0
C0
FC
ENDCHAR
STARTCHAR lcaron
ENCODING 318
SWIDTH 270 0
DWIDTH 4 0
BBX 3 12 1 0
BITMAP
20
E0
E0
C0
C0
C0
C0
C0
C0
C0
C0
40
ENDCHAR
STARTCHAR Ldot
ENCODING 319
SWIDTH 486 0
DWIDTH 8 0
BBX 6 10 1 0
BITMAP
C0
C0
C0
C0
CC
CC
C0
C0
C0
FC
ENDCHAR
STARTCHAR ldot
ENCODING 320
SWIDTH 362 0
DWIDTH 6 0
BBX 5 11 1 0
BITMAP
C0
C0
C0
C0
C0
D8
D8
C0
C0
C0
40
ENDCHAR
STARTCHAR Lslash
ENCODING 321
SWIDTH 489 0
DWIDTH 8 0
BBX 7 10 0 0
BITMAP
20
20
20
24
38
60
A0
20
20
3E
ENDCHAR
STARTCHAR lslash
ENCODING 322
SWIDTH 262 0
DWIDTH 4 0
BBX 4 11 0 0
BITMAP
60
60
60
60
70
E0
E0
60
60
60
30
ENDCHAR
STARTCHAR Nacute
ENCODING 323
SWIDTH 647 0
DWIDTH 10 0
BBX 8 14 1 0
BITMAP
04
0C
18
00
C1
E1
E1
D1
D9
C9
CD
C5
C3
C3
ENDCHAR
STARTCHAR nacute
ENCODING 324
SWIDTH 547 0
DWIDTH 9 0
BBX 7 12 1 0
BITMAP
04
08
10
00
BC
C4
C6
C6
C6
C6
C6
C6
ENDCHAR
STARTCHAR uni0145
ENCODING 325
SWIDTH 647 0
DWIDTH 10 0
BBX 8 14 1 -4
BITMAP
C1
E1
E1
D1
D9
C9
CD
C5
C3
C3
00
18
0C
18
ENDCHAR
STARTCHAR uni0146
ENCODING 326
SWIDTH 547 0
DWIDTH 9 0
BBX 7 12 1 -4
BITMAP
BC
C4
C6
C6
C6
C6
C6
C6
00
10
08
30
ENDCHAR
STARTCHAR Ncaron
ENCODING 327
SWIDTH 647 0
DWIDTH 10 0
BBX 8 13 1 0
BITMAP
26
18
00
C1
E1
E1
D1
D9
C9
CD
C5
C3
C3
ENDCHAR
STARTCHAR ncaron
ENCODING 328
SWIDTH 547 0
DWIDTH 9 0
BBX 7 12 1 0
BITMAP
44
28
18
00
BC
C4
C6
C6
C6
C6
C6
C6
ENDCHAR
STARTCHAR napostrophe
ENCODING 329
SWIDTH 775 0
DWIDTH 12 0
BBX 10 11 1 0
BITMAP
C000
4000
4000
8B80
0CC0
0840
0840
0840
0840
0840
0840
ENDCHAR
STARTCHAR uni014A
ENCODING 330
SWIDTH 635 0
DWIDTH 10 0
BBX 8 10 1 0
BITMAP
DE
E3
C1
C1
C1
C1
C1
C1
C3
CE
ENDCHAR
STARTCHAR uni014B
ENCODING 331
SWIDTH 547 0
DWIDTH 9 0
BBX 7 11 1 -3
BITMAP
9C
E4
C6
C6
C6
C6
C6
C6
06
04
1C
ENDCHAR
STARTCHAR Omacron
ENCODING 332
SWIDTH 664 0
DWIDTH 11 0
BBX 9 12 1 0
BITMAP
3C00
0000
3C00
6300
C100
8180
8180
8180
8180
C100
6300
3C00
ENDCHAR
STARTCHAR omacron
ENCODING 333
SWIDTH 542 0
DWIDTH 9 0
BBX 7 11 1 0
BITMAP
78
00
00
78
C4
86
82
82
86
C4
78
ENDCHAR
STARTCHAR uni014E
ENCODING 334
SWIDTH 664 0
DWIDTH 11 0
BBX 9 13 1 0
BITMAP
2200
1C00
0000
3C00
6300
C100
8180
8180
8180
8180
C100
6300
3C00
ENDCHAR
STARTCHAR uni014F
ENCODING 335
SWIDTH 542 0
DWIDTH 9 0
BBX 7 12 1 0
BITMAP
44
4C
38
00
78
C4
86
82
82
86
C4
78
ENDCHAR
STARTCHAR Ohungarumlaut
ENCODING 336
SWIDTH 664 0
DWIDTH 11 0
BBX 9 14 1 0
BITMAP
0B00
1200
1400
0000
3C00
6300
C100
8180
8180
8180
8180
C100
6300
3C00
ENDCHAR
STARTCHAR ohungarumlaut
ENCODING 337
SWIDTH 542 0
DWIDTH 9 0
BBX 7 12 1 0
BITMAP
16
24
28
00
78
C4
86
82
82
86
C4
78
ENDCHAR
STARTCHAR OE
ENCODING 338
SWIDTH 847 0
DWIDTH 14 0
BBX 12 10 1 0
BITMAP
3FF0
6200
C200
8200
83E0
8200
8200
C200
6200
3FF0
ENDCHAR
STARTCHAR oe
ENCODING 339
SWIDTH 839 0
DWIDTH 13 0
BBX 12 8 1 0
BITMAP
79E0
C620
8610
87F0
8600
8600
C720
79F0
ENDCHAR
STARTCHAR Racute
ENCODING 340
SWIDTH 569 0
DWIDTH 9 0
BBX 8 14 1 0
BITMAP
08
0C
10
00
FC
C2
C2
C2
C6
F8
CC
C4
C6
C3
ENDCHAR
STARTCHAR racute
ENCODING 341
SWIDTH 347 0
DWIDTH 6 0
BBX 5 12 1 0
BITMAP
10
38
20
00
B8
C0
C0
C0
C0
C0
C0
C0
ENDCHAR
STARTCHAR uni0156
ENCODING 342
SWIDTH 569 0
DWIDTH 9 0
BBX 8 14 1 -4
BITMAP
FC
C2
C2
C2
C6
F8
CC
C4
C6
C2
01
18
08
30
ENDCHAR
STARTCHAR uni0157
ENCODING 343
SWIDTH 347 0
DWIDTH 6 0
BBX 6 12 0 -4
BITMAP
5C
60
60
60
60
60
60
60
00
60
20
E0
ENDCHAR
STARTCHAR Rcaron
ENCODING 344
SWIDTH 569 0
DWIDTH 9 0
BBX 8 13 1 0
BITMAP
44
38
00
FC
C2
C2
C2
C6
F8
CC
C4
C6
C3
ENDCHAR
STARTCHAR rcaron
ENCODING 345
SWIDTH 347 0
DWIDTH 6 0
BBX 5 12 1 0
BITMAP
88
50
70
00
B8
C0
C0
C0
C0
C0
C0
C0
ENDCHAR
STARTCHAR Sacute
ENCODING 346
SWIDTH 534 0
DWIDTH 9 0
BBX 7 14 1 0
BITMAP
08
1C
10
00
7C
C6
C0
C0
70
1C
06
02
C6
7C
ENDCHAR
STARTCHAR sacute
ENCODING 347
SWIDTH 419 0
DWIDTH 7 0
BBX 6 12 0 0
BITMAP
08
1C
10
00
38
4C
40
70
0C
04
44
F8
ENDCHAR
STARTCHAR Scircumflex
ENCODING 348
SWIDTH 534 0
DWIDTH 9 0
BBX 7 13 1 0
BITMAP
38
44
00
7C
C6
C0
C0
70
1C
06
02
C6
7C
ENDCHAR
STARTCHAR scircumflex
ENCODING 349
SWIDTH 419 0
DWIDTH 7 0
BBX 6 12 0 0
BITMAP
38
28
44
00
38
4C
40
70
0C
04
44
F8
ENDCHAR
STARTCHAR uni015E
ENCODING 350
SWIDTH 534 0
DWIDTH 9 0
BBX 7 15 1 -5
BITMAP
7C
C6
C0
C0
70
1C
06
02
C6
7C
10
10
38
18
30
ENDCHAR
STARTCHAR uni015F
ENCODING 351
SWIDTH 419 0
DWIDTH 7 0
BBX 6 13 0 -5
BITMAP
38
4C
40
70
0C
04
44
F8
10
10
08
08
30
ENDCHAR
STARTCHAR Scaron
ENCODING 352
SWIDTH 534 0
DWIDTH 9 0
BBX 7 13 1 0
BITMAP
44
38
00
7C
C6
C0
C0
70
1C
06
02
C6
7C
ENDCHAR
STARTCHAR scaron
ENCODING 353
SWIDTH 419 0
DWIDTH 7 0
BBX 6 12 0 0
BITMAP
44
28
38
00
38
4C
40
70
0C
04
44
F8
ENDCHAR
STARTCHAR uni0162
ENCODING 354
SWIDTH 536 0
DWIDTH 9 0
BBX 8 15 0 -5
BITMAP
FF
08
08
08
08
08
08
08
08
08
08
18
08
08
18
ENDCHAR
STARTCHAR uni0163
ENCODING 355
SWIDTH 338 0
DWIDTH 5 0
BBX 5 15 0 -5
BITMAP
20
20
F8
20
20
20
20
20
20
38
10
10
28
18
30
ENDCHAR
STARTCHAR Tcaron
ENCODING 356
SWIDTH 536 0
DWIDTH 9 0
BBX 8 13 0 0
BITMAP
26
18
00
FF
08
08
08
08
08
08
08
08
08
ENDCHAR
STARTCHAR tcaron
ENCODING 357
SWIDTH 338 0
DWIDTH 5 0
BBX 5 12 0 0
BITMAP
08
08
28
20
F8
20
20
20
20
20
20
38
ENDCHAR
STARTCHAR uni0166
ENCODING 358
SWIDTH 536 0
DWIDTH 9 0
BBX 8 10 0 0
BITMAP
FF
08
08
08
3E
08
08
08
08
08
ENDCHAR
STARTCHAR uni0167
ENCODING 359
SWIDTH 338 0
DWIDTH 5 0
BBX 5 10 0 0
BITMAP
20
20
F8
20
20
F8
20
20
20
38
ENDCHAR
STARTCHAR Utilde
ENCODING 360
SWIDTH 645 0
DWIDTH 10 0
BBX 8 13 1 0
BITMAP
32
4C
00
C1
C1
C1
C1
C1
C1
C1
43
62
3C
ENDCHAR
STARTCHAR utilde
ENCODING 361
SWIDTH 544 0
DWIDTH 9 0
BBX 6 11 1 0
BITMAP
74
5C
00
C4
C4
C4
C4
C4
C4
CC
74
ENDCHAR
STARTCHAR Umacron
ENCODING 362
SWIDTH 645 0
DWIDTH 10 0
BBX 8 12 1 0
BITMAP
3C
00
C1
C1
C1
C1
C1
C1
C1
43
62
3C
ENDCHAR
STARTCHAR umacron
ENCODING 363
SWIDTH 544 0
DWIDTH 9 0
BBX 6 11 1 0
BITMAP
78
00
00
C4
C4
C4
C4
C4
C4
CC
74
ENDCHAR
STARTCHAR Ubreve
ENCODING 364
SWIDTH 645 0
DWIDTH 10 0
BBX 8 13 1 0
BITMAP
26
1C
00
C1
C1
C1
C1
C1
C1
C1
43
62
3C
ENDCHAR
STARTCHAR ubreve
ENCODING 365
SWIDTH 544 0
DWIDTH 9 0
BBX 6 12 1 0
BITMAP
44
4C
38
00
C4
C4
C4
C4
C4
C4
CC
74
ENDCHAR
STARTCHAR Uring
ENCODING 366
SWIDTH 645 0
DWIDTH 10 0
BBX 8 14 1 0
BITMAP
18
24
18
00
C1
C1
C1
C1
C1
C1
C1
43
62
3C
ENDCHAR
STARTCHAR uring
ENCODING 367
SWIDTH 544 0
DWIDTH 9 0
BBX 6 12 1 0
BITMAP
38
48
38
00
C4
C4
C4
C4
C4
C4
CC
74
ENDCHAR
STARTCHAR Uhungarumlaut
ENCODING 368
SWIDTH 645 0
DWIDTH 10 0
BBX 8 14 1 0
BITMAP
0A
12
14
00
C1
C1
C1
C1
C1
C1
C1
43
62
3C
ENDCHAR
STARTCHAR uhungarumlaut
ENCODING 369
SWIDTH 544 0
DWIDTH 9 0
BBX 7 12 1 0
BITMAP
16
24
28
00
C4
C4
C4
C4
C4
C4
CC
74
ENDCHAR
STARTCHAR Uogonek
ENCODING 370
SWIDTH 645 0
DWIDTH 10 0
BBX 8 13 1 -3
BITMAP
C1
C1
C1
C1
C1
C1
C1
43
62
3C
08
10
1C
ENDCHAR
STARTCHAR uogonek
ENCODING 371
SWIDTH 544 0
DWIDTH 9 0
BBX 7 11 1 -3
BITMAP
C4
C4
C4
C4
C4
C4
CC
74
08
08
0E
ENDCHAR
STARTCHAR Wcircumflex
ENCODING 372
SWIDTH 786 0
DWIDTH 13 0
BBX 12 13 0 0
BITMAP
0600
0980
0000
C210
4610
4730
4520
6520
2920
29A0
28E0
28C0
30C0
ENDCHAR
STARTCHAR wcircumflex
ENCODING 373
SWIDTH 718 0
DWIDTH 11 0
BBX 11 12 0 0
BITMAP
0600
0B00
1100
0000
C620
4660
4A40
6A40
2940
2940
3180
3180
ENDCHAR
STARTCHAR Ycircumflex
ENCODING 374
SWIDTH 476 0
DWIDTH 8 0
BBX 8 13 0 0
BITMAP
18
24
40
C3
42
64
24
38
18
10
10
10
10
ENDCHAR
STARTCHAR ycircumflex
ENCODING 375
SWIDTH 467 0
DWIDTH 7 0
BBX 7 15 0 -3
BITMAP
18
2C
44
00
C2
42
44
24
24
38
18
18
10
30
60
ENDCHAR
STARTCHAR Ydieresis
ENCODING 376
SWIDTH 476 0
DWIDTH 8 0
BBX 8 13 0 0
BITMAP
64
64
00
C3
42
64
24
38
18
10
10
10
10
ENDCHAR
STARTCHAR Zacute
ENCODING 377
SWIDTH 539 0
DWIDTH 9 0
BBX 7 14 1 0
BITMAP
08
1C
10
00
FE
06
0C
08
10
30
60
40
C0
FE
ENDCHAR
STARTCHAR zacute
ENCODING 378
SWIDTH 425 0
DWIDTH 7 0
BBX 6 12 0 0
BITMAP
04
08
10
00
7C
0C
08
18
30
20
40
FC
ENDCHAR
STARTCHAR Zdotaccent
ENCODING 379
SWIDTH 539 0
DWIDTH 9 0
BBX 7 13 1 0
BITMAP
10
10
00
FE
06
0C
08
10
30
60
40
C0
FE
ENDCHAR
STARTCHAR zdotaccent
ENCODING 380
SWIDTH 425 0
DWIDTH 7 0
BBX 6 11 0 0
BITMAP
10
18
00
7C
0C
08
18
30
20
40
FC
ENDCHAR
STARTCHAR Zcaron
ENCODING 381
SWIDTH 539 0
DWIDTH 9 0
BBX 7 13 1 0
BITMAP
44
38
00
FE
06
0C
08
10
30
60
40
C0
FE
ENDCHAR
STARTCHAR zcaron
ENCODING 382
SWIDTH 425 0
DWIDTH 7 0
BBX 6 12 0 0
BITMAP
44
28
18
00
7C
0C
08
18
30
20
40
FC
ENDCHAR
STARTCHAR uni0180
ENCODING 384
SWIDTH 544 0
DWIDTH 9 0
BBX 8 11 0 0
BITMAP
60
FC
60
60
7E
63
61
61
61
63
5E
ENDCHAR
STARTCHAR uni018F
ENCODING 399
SWIDTH 658 0
DWIDTH 11 0
BBX 9 10 1 0
BITMAP
3E00
4300
0100
0180
0180
FF80
8180
C100
6300
3C00
ENDCHAR
STARTCHAR uni0192
ENCODING 402
SWIDTH 497 0
DWIDTH 8 0
BBX 7 13 0 -2
BITMAP
06
08
08
18
3E
10
10
10
10
10
10
30
E0
ENDCHAR
STARTCHAR uni0193
ENCODING 403
SWIDTH 617 0
DWIDTH 10 0
BBX 9 13 1 0
BITMAP
0180
0200
0200
3F00
6200
C000
8000
8000
8F00
8100
C100
6300
3E00
ENDCHAR
STARTCHAR Ohorn
ENCODING 416
SWIDTH 664 0
DWIDTH 11 0
BBX 9 12 1 0
BITMAP
0080
0080
3F00
6300
C100
8180
8180
8180
8180
C100
6300
3C00
ENDCHAR
STARTCHAR ohorn
ENCODING 417
SWIDTH 542 0
DWIDTH 9 0
BBX 7 11 1 0
BITMAP
02
02
02
7C
C4
86
82
82
86
C4
78
ENDCHAR
STARTCHAR Uhorn
ENCODING 431
SWIDTH 659 0
DWIDTH 11 0
BBX 10 13 1 0
BITMAP
0040
00C0
00C0
C180
C100
C100
C100
C100
C100
C100
4300
6200
3C00
ENDCHAR
STARTCHAR uhorn
ENCODING 432
SWIDTH 544 0
DWIDTH 9 0
BBX 8 11 1 0
BITMAP
01
01
03
C6
C4
C4
C4
C4
C4
CC
74
ENDCHAR
STARTCHAR uni01C2
ENCODING 450
SWIDTH 288 0
DWIDTH 5 0
BBX 5 17 0 -5
BITMAP
20
20
20
20
20
20
F8
20
20
F8
20
20
20
20
20
20
20
ENDCHAR
STARTCHAR uni01CD
ENCODING 461
SWIDTH 544 0
DWIDTH 9 0
BBX 9 13 0 0
BITMAP
2600
1C00
0000
1800
1C00
1400
3400
2600
2200
7E00
4300
4100
C180
ENDCHAR
STARTCHAR uni01CE
ENCODING 462
SWIDTH 504 0
DWIDTH 8 0
BBX 6 12 1 0
BITMAP
44
68
30
00
78
8C
04
3C
C4
84
8C
74
ENDCHAR
STARTCHAR uni01CF
ENCODING 463
SWIDTH 263 0
DWIDTH 4 0
BBX 4 13 0 0
BITMAP
90
60
00
60
60
60
60
60
60
60
60
60
60
ENDCHAR
STARTCHAR uni01D0
ENCODING 464
SWIDTH 246 0
DWIDTH 4 0
BBX 5 12 -1 0
BITMAP
48
D8
30
00
30
30
30
30
30
30
30
30
ENDCHAR
STARTCHAR uni01D1
ENCODING 465
SWIDTH 664 0
DWIDTH 11 0
BBX 9 13 1 0
BITMAP
2600
1C00
0000
3C00
6300
C100
8180
8180
8180
8180
C100
6300
3C00
ENDCHAR
STARTCHAR uni01D2
ENCODING 466
SWIDTH 542 0
DWIDTH 9 0
BBX 7 12 1 0
BITMAP
44
28
30
00
78
C4
86
82
82
86
C4
78
ENDCHAR
STARTCHAR uni01D3
ENCODING 467
SWIDTH 645 0
DWIDTH 10 0
BBX 8 13 1 0
BITMAP
26
18
00
C1
C1
C1
C1
C1
C1
C1
43
62
3C
ENDCHAR
STARTCHAR uni01D4
ENCODING 468
SWIDTH 544 0
DWIDTH 9 0
BBX 6 12 1 0
BITMAP
44
28
30
00
C4
C4
C4
C4
C4
C4
CC
74
ENDCHAR
STARTCHAR uni01D5
ENCODING 469
SWIDTH 645 0
DWIDTH 10 0
BBX 8 14 1 0
BITMAP
3C
00
26
00
C1
C1
C1
C1
C1
C1
C1
43
62
3C
ENDCHAR
STARTCHAR uni01D6
ENCODING 470
SWIDTH 544 0
DWIDTH 9 0
BBX 6 13 1 0
BITMAP
78
00
6C
00
00
C4
C4
C4
C4
C4
C4
CC
74
ENDCHAR
STARTCHAR uni01D7
ENCODING 471
SWIDTH 645 0
DWIDTH 10 0
BBX 8 15 1 0
BITMAP
04
08
00
26
00
C1
C1
C1
C1
C1
C1
C1
43
62
3C
ENDCHAR
STARTCHAR uni01D8
ENCODING 472
SWIDTH 544 0
DWIDTH 9 0
BBX 6 13 1 0
BITMAP
08
10
6C
00
00
C4
C4
C4
C4
C4
C4
CC
74
ENDCHAR
STARTCHAR uni01D9
ENCODING 473
SWIDTH 645 0
DWIDTH 10 0
BBX 8 15 1 0
BITMAP
24
18
00
26
00
C1
C1
C1
C1
C1
C1
C1
43
62
3C
ENDCHAR
STARTCHAR uni01DA
ENCODING 474
SWIDTH 544 0
DWIDTH 9 0
BBX 6 14 1 0
BITMAP
48
30
00
6C
00
00
C4
C4
C4
C4
C4
C4
CC
74
ENDCHAR
STARTCHAR uni01DB
ENCODING 475
SWIDTH 645 0
DWIDTH 10 0
BBX 8 15 1 0
BITMAP
30
08
00
26
00
C1
C1
C1
C1
C1
C1
C1
43
62
3C
ENDCHAR
STARTCHAR uni01DC
ENCODING 476
SWIDTH 544 0
DWIDTH 9 0
BBX 6 13 1 0
BITMAP
20
10
6C
00
00
C4
C4
C4
C4
C4
C4
CC
74
ENDCHAR
STARTCHAR uni01E2
ENCODING 482
SWIDTH 822 0
DWIDTH 13 0
BBX 12 12 0 0
BITMAP
01E0
0000
07F0
0700
0F00
0B00
13E0
1300
3F00
6300
4300
C3F0
ENDCHAR
STARTCHAR uni01E3
ENCODING 483
SWIDTH 785 0
DWIDTH 13 0
BBX 11 11 1 0
BITMAP
1F00
0000
0000
7BC0
8A60
0420
3FE0
C400
8400
8E40
73E0
ENDCHAR
STARTCHAR Gcaron
ENCODING 486
SWIDTH 617 0
DWIDTH 10 0
BBX 8 13 1 0
BITMAP
32
1C
00
3E
63
C0
80
80
8F
81
C1
63
3E
ENDCHAR
STARTCHAR gcaron
ENCODING 487
SWIDTH 504 0
DWIDTH 8 0
BBX 7 15 1 -3
BITMAP
44
68
30
00
7E
CC
84
CC
78
80
80
7C
82
86
78
ENDCHAR
STARTCHAR uni01EA
ENCODING 490
SWIDTH 664 0
DWIDTH 11 0
BBX 9 13 1 -3
BITMAP
3C00
6300
C100
8180
8180
8180
8180
C100
6300
3C00
0800
1000
0C00
ENDCHAR
STARTCHAR uni01EB
ENCODING 491
SWIDTH 542 0
DWIDTH 9 0
BBX 7 11 1 -3
BITMAP
78
C4
86
82
82
86
C4
38
10
20
18
ENDCHAR
STARTCHAR uni01F4
ENCODING 500
SWIDTH 617 0
DWIDTH 10 0
BBX 8 14 1 0
BITMAP
04
06
08
00
3E
63
C0
80
80
8F
81
C1
63
3E
ENDCHAR
STARTCHAR uni01F5
ENCODING 501
SWIDTH 504 0
DWIDTH 8 0
BBX 7 15 1 -3
BITMAP
08
1C
30
00
7E
CC
84
CC
78
80
80
7C
82
86
78
ENDCHAR
STARTCHAR uni01F8
ENCODING 504
SWIDTH 647 0
DWIDTH 10 0
BBX 8 14 1 0
BITMAP
20
10
08
00
C1
E1
E1
D1
D9
C9
CD
C5
C3
C3
ENDCHAR
STARTCHAR uni01F9
ENCODING 505
SWIDTH 547 0
DWIDTH 9 0
BBX 7 12 1 0
BITMAP
20
70
18
00
BC
C4
C6
C6
C6
C6
C6
C6
ENDCHAR
STARTCHAR uni01FC
ENCODING 508
SWIDTH 822 0
DWIDTH 13 0
BBX 12 14 0 0
BITMAP
0020
0060
0080
0000
07F0
0700
0F00
0B00
13E0
1300
3F00
6300
4300
C3F0
ENDCHAR
STARTCHAR uni01FD
ENCODING 509
SWIDTH 785 0
DWIDTH 13 0
BBX 11 12 1 0
BITMAP
0300
0200
0400
0000
7BC0
8A60
0420
3FE0
C400
8400
8E40
73E0
ENDCHAR
STARTCHAR uni0218
ENCODING 536
SWIDTH 534 0
DWIDTH 9 0
BBX 7 14 1 -4
BITMAP
7C
C6
C0
C0
70
1C
06
02
C6
7C
00
10
28
30
ENDCHAR
STARTCHAR uni0219
ENCODING 537
SWIDTH 419 0
DWIDTH 7 0
BBX 6 12 0 -4
BITMAP
38
4C
40
70
0C
04
44
F8
00
10
08
30
ENDCHAR
STARTCHAR uni021A
ENCODING 538
SWIDTH 536 0
DWIDTH 9 0
BBX 8 14 0 -4
BITMAP
FF
08
08
08
08
08
08
08
08
08
00
08
14
18
ENDCHAR
STARTCHAR uni021B
ENCODING 539
SWIDTH 338 0
DWIDTH 5 0
BBX 5 14 0 -4
BITMAP
20
20
F8
20
20
20
20
20
20
38
00
10
28
30
ENDCHAR
STARTCHAR uni0237
ENCODING 567
SWIDTH 247 0
DWIDTH 4 0
BBX 4 11 -1 -3
BITMAP
30
30
30
30
30
30
30
30
30
30
E0
ENDCHAR
STARTCHAR uni0243
ENCODING 579
SWIDTH 603 0
DWIDTH 10 0
BBX 9 10 0 0
BITMAP
3E00
2100
2100
2100
3E00
2180
F880
2080
2180
3E00
ENDCHAR
STARTCHAR uni0250
ENCODING 592
SWIDTH 512 0
DWIDTH 8 0
BBX 6 8 1 0
BITMAP
BC
C4
C4
CC
F0
C0
44
78
ENDCHAR
STARTCHAR uni0251
ENCODING 593
SWIDTH 555 0
DWIDTH 9 0
BBX 7 8 1 0
BITMAP
7E
C6
86
86
86
86
C6
7E
ENDCHAR
STARTCHAR uni0252
ENCODING 594
SWIDTH 555 0
DWIDTH 9 0
BBX 7 8 1 0
BITMAP
BC
C6
C2
C2
C2
C6
C4
B8
ENDCHAR
STARTCHAR uni0253
ENCODING 595
SWIDTH 555 0
DWIDTH 9 0
BBX 7 11 1 0
BITMAP
70
40
C0
FC
C6
C2
C2
C2
C6
C4
B8
ENDCHAR
STARTCHAR uni0254
ENCODING 596
SWIDTH 456 0
DWIDTH 7 0
BBX 7 8 0 0
BITMAP
78
8C
04
06
06
04
8C
78
ENDCHAR
STARTCHAR uni0255
ENCODING 597
SWIDTH 456 0
DWIDTH 7 0
BBX 6 9 1 -1
BITMAP
38
CC
80
80
98
E4
44
F8
80
ENDCHAR
STARTCHAR uni0256
ENCODING 598
SWIDTH 555 0
DWIDTH 9 0
BBX 8 14 1 -3
BITMAP
06
06
06
7E
C6
86
86
86
86
C6
7E
06
06
03
ENDCHAR
STARTCHAR uni0257
ENCODING 599
SWIDTH 555 0
DWIDTH 9 0
BBX 8 11 1 0
BITMAP
03
06
06
7E
C6
86
86
86
86
C6
7E
ENDCHAR
STARTCHAR uni0258
ENCODING 600
SWIDTH 496 0
DWIDTH 8 0
BBX 6 8 1 0
BITMAP
78
8C
84
FC
04
04
8C
F0
ENDCHAR
STARTCHAR uni0259
ENCODING 601
SWIDTH 496 0
DWIDTH 8 0
BBX 6 8 1 0
BITMAP
78
8C
04
04
FC
84
8C
78
ENDCHAR
STARTCHAR uni025A
ENCODING 602
SWIDTH 648 0
DWIDTH 10 0
BBX 10 8 1 0
BITMAP
7800
8E00
0700
1DC0
7400
8400
8C00
7800
ENDCHAR
STARTCHAR uni025B
ENCODING 603
SWIDTH 440 0
DWIDTH 7 0
BBX 6 8 1 0
BITMAP
78
C8
C0
70
80
80
C8
7C
ENDCHAR
STARTCHAR uni025C
ENCODING 604
SWIDTH 456 0
DWIDTH 7 0
BBX 6 8 1 0
BITMAP
F0
88
08
70
08
08
8C
F0
ENDCHAR
STARTCHAR uni025E
ENCODING 606
SWIDTH 546 0
DWIDTH 9 0
BBX 7 8 1 0
BITMAP
78
C4
C6
72
82
86
C4
78
ENDCHAR
STARTCHAR uni025F
ENCODING 607
SWIDTH 270 0
DWIDTH 4 0
BBX 4 11 0 -3
BITMAP
60
60
60
F0
60
60
60
60
60
60
C0
ENDCHAR
STARTCHAR uni0260
ENCODING 608
SWIDTH 559 0
DWIDTH 9 0
BBX 8 13 1 -3
BITMAP
03
06
7E
46
86
86
86
86
C6
7E
06
84
78
ENDCHAR
STARTCHAR uni0261
ENCODING 609
SWIDTH 559 0
DWIDTH 9 0
BBX 7 11 1 -3
BITMAP
7E
46
86
86
86
86
C6
7E
06
84
78
ENDCHAR
STARTCHAR uni0262
ENCODING 610
SWIDTH 497 0
DWIDTH 8 0
BBX 6 8 1 0
BITMAP
38
C4
80
80
9C
84
C4
7C
ENDCHAR
STARTCHAR uni0263
ENCODING 611
SWIDTH 467 0
DWIDTH 7 0
BBX 7 11 0 -3
BITMAP
C2
46
44
24
2C
38
18
18
28
2C
38
ENDCHAR
STARTCHAR uni0264
ENCODING 612
SWIDTH 511 0
DWIDTH 8 0
BBX 8 8 0 0
BITMAP
E7
1C
18
24
66
62
66
3C
ENDCHAR
STARTCHAR uni0265
ENCODING 613
SWIDTH 547 0
DWIDTH 9 0
BBX 6 11 1 -3
BITMAP
C4
C4
C4
C4
C4
C4
CC
74
04
04
04
ENDCHAR
STARTCHAR uni0266
ENCODING 614
SWIDTH 544 0
DWIDTH 9 0
BBX 7 11 1 0
BITMAP
70
40
C0
DC
E4
C6
C6
C6
C6
C6
C6
ENDCHAR
STARTCHAR uni0267
ENCODING 615
SWIDTH 544 0
DWIDTH 9 0
BBX 7 14 1 -3
BITMAP
70
40
C0
DC
E4
C6
C6
C6
C6
C6
C6
06
04
1C
ENDCHAR
STARTCHAR uni0268
ENCODING 616
SWIDTH 270 0
DWIDTH 4 0
BBX 4 12 0 0
BITMAP
60
60
00
00
60
60
60
F0
60
60
60
60
ENDCHAR
STARTCHAR uni026A
ENCODING 618
SWIDTH 341 0
DWIDTH 5 0
BBX 4 8 1 0
BITMAP
F0
40
40
40
40
40
40
F0
ENDCHAR
STARTCHAR uni026C
ENCODING 620
SWIDTH 302 0
DWIDTH 5 0
BBX 5 11 0 0
BITMAP
20
20
20
E0
A0
F8
20
20
20
20
30
ENDCHAR
STARTCHAR uni026D
ENCODING 621
SWIDTH 255 0
DWIDTH 4 0
BBX 3 14 1 -3
BITMAP
C0
C0
C0
C0
C0
C0
C0
C0
C0
C0
C0
C0
C0
60
ENDCHAR
STARTCHAR uni026E
ENCODING 622
SWIDTH 577 0
DWIDTH 9 0
BBX 8 14 1 -3
BITMAP
C0
C0
C0
FF
C2
C4
C8
D8
DE
C3
C1
03
22
7C
ENDCHAR
STARTCHAR uni026F
ENCODING 623
SWIDTH 829 0
DWIDTH 13 0
BBX 11 8 1 0
BITMAP
C420
C420
C420
C420
C420
C420
CE60
73A0
ENDCHAR
STARTCHAR uni0270
ENCODING 624
SWIDTH 829 0
DWIDTH 13 0
BBX 11 11 1 -3
BITMAP
C420
C420
C420
C420
C420
C420
CE60
73A0
0020
0020
0020
ENDCHAR
STARTCHAR uni0271
ENCODING 625
SWIDTH 829 0
DWIDTH 13 0
BBX 11 11 1 -3
BITMAP
B9C0
C660
C420
C420
C420
C420
C420
C420
0020
0020
00C0
ENDCHAR
STARTCHAR uni0272
ENCODING 626
SWIDTH 547 0
DWIDTH 9 0
BBX 8 11 0 -3
BITMAP
4E
72
63
63
63
63
63
63
60
60
C0
ENDCHAR
STARTCHAR uni0273
ENCODING 627
SWIDTH 547 0
DWIDTH 9 0
BBX 8 11 1 -3
BITMAP
9C
E4
C6
C6
C6
C6
C6
C6
06
06
03
ENDCHAR
STARTCHAR uni0274
ENCODING 628
SWIDTH 543 0
DWIDTH 9 0
BBX 6 8 1 0
BITMAP
C4
C4
A4
F4
D4
CC
CC
C4
ENDCHAR
STARTCHAR uni0275
ENCODING 629
SWIDTH 542 0
DWIDTH 9 0
BBX 7 8 1 0
BITMAP
78
C4
82
FE
82
86
C4
78
ENDCHAR
STARTCHAR uni0276
ENCODING 630
SWIDTH 699 0
DWIDTH 11 0
BBX 10 8 1 0
BITMAP
3FC0
C400
8400
8780
8400
8400
C400
3FC0
ENDCHAR
STARTCHAR uni0278
ENCODING 632
SWIDTH 680 0
DWIDTH 11 0
BBX 9 14 1 -3
BITMAP
0800
0800
0800
3E00
4900
8980
8880
8880
8980
4900
3E00
0800
0800
0800
ENDCHAR
STARTCHAR uni0279
ENCODING 633
SWIDTH 347 0
DWIDTH 6 0
BBX 4 8 0 0
BITMAP
10
10
10
10
10
10
30
D0
ENDCHAR
STARTCHAR uni027A
ENCODING 634
SWIDTH 347 0
DWIDTH 6 0
BBX 4 11 0 0
BITMAP
10
10
10
10
10
10
10
10
10
30
D0
ENDCHAR
STARTCHAR uni027B
ENCODING 635
SWIDTH 347 0
DWIDTH 6 0
BBX 6 11 0 -3
BITMAP
10
10
10
10
10
10
30
D0
10
10
0C
ENDCHAR
STARTCHAR uni027D
ENCODING 637
SWIDTH 347 0
DWIDTH 6 0
BBX 5 11 1 -3
BITMAP
B8
C0
C0
C0
C0
C0
C0
C0
C0
C0
60
ENDCHAR
STARTCHAR uni027E
ENCODING 638
SWIDTH 334 0
DWIDTH 5 0
BBX 4 8 1 0
BITMAP
70
40
C0
C0
C0
C0
C0
C0
ENDCHAR
STARTCHAR uni0280
ENCODING 640
SWIDTH 495 0
DWIDTH 8 0
BBX 6 8 1 0
BITMAP
F8
CC
C4
CC
F8
D8
C8
C4
ENDCHAR
STARTCHAR uni0281
ENCODING 641
SWIDTH 495 0
DWIDTH 8 0
BBX 6 8 1 0
BITMAP
8C
4C
6C
7C
CC
8C
CC
7C
ENDCHAR
STARTCHAR uni0282
ENCODING 642
SWIDTH 419 0
DWIDTH 7 0
BBX 6 11 0 -3
BITMAP
38
4C
40
70
0C
04
44
F8
C0
40
70
ENDCHAR
STARTCHAR uni0283
ENCODING 643
SWIDTH 247 0
DWIDTH 4 0
BBX 6 14 -1 -3
BITMAP
1C
30
30
30
30
30
30
30
30
30
30
30
30
E0
ENDCHAR
STARTCHAR uni0284
ENCODING 644
SWIDTH 270 0
DWIDTH 4 0
BBX 5 14 0 -3
BITMAP
38
20
60
60
60
60
F0
60
60
60
60
60
60
C0
ENDCHAR
STARTCHAR uni0288
ENCODING 648
SWIDTH 338 0
DWIDTH 5 0
BBX 5 13 0 -3
BITMAP
20
20
F8
20
20
20
20
20
20
20
20
20
38
ENDCHAR
STARTCHAR uni0289
ENCODING 649
SWIDTH 575 0
DWIDTH 9 0
BBX 9 8 0 0
BITMAP
6300
6300
6300
FF80
6300
2300
2300
3D00
ENDCHAR
STARTCHAR uni028A
ENCODING 650
SWIDTH 541 0
DWIDTH 9 0
BBX 7 8 1 0
BITMAP
EE
44
86
86
82
86
C4
78
ENDCHAR
STARTCHAR uni028B
ENCODING 651
SWIDTH 530 0
DWIDTH 8 0
BBX 7 8 1 0
BITMAP
DC
C4
C6
C6
C6
C4
4C
78
ENDCHAR
STARTCHAR uni028C
ENCODING 652
SWIDTH 467 0
DWIDTH 7 0
BBX 7 8 0 0
BITMAP
18
38
28
2C
64
44
46
C2
ENDCHAR
STARTCHAR uni028D
ENCODING 653
SWIDTH 718 0
DWIDTH 11 0
BBX 11 8 0 0
BITMAP
3180
3180
29C0
2940
4A40
4A40
4660
C420
ENDCHAR
STARTCHAR uni028E
ENCODING 654
SWIDTH 467 0
DWIDTH 7 0
BBX 7 11 0 0
BITMAP
06
08
18
10
18
28
28
64
44
46
C2
ENDCHAR
STARTCHAR uni028F
ENCODING 655
SWIDTH 415 0
DWIDTH 7 0
BBX 7 8 0 0
BITMAP
C6
44
68
28
30
10
10
10
ENDCHAR
STARTCHAR uni0290
ENCODING 656
SWIDTH 425 0
DWIDTH 7 0
BBX 8 11 0 -3
BITMAP
7C
0C
08
10
30
20
40
FC
04
04
07
ENDCHAR
STARTCHAR uni0291
ENCODING 657
SWIDTH 449 0
DWIDTH 7 0
BBX 7 9 0 -1
BITMAP
7C
0C
08
10
36
2A
4A
FE
10
ENDCHAR
STARTCHAR uni0292
ENCODING 658
SWIDTH 425 0
DWIDTH 7 0
BBX 7 11 0 -3
BITMAP
7C
0C
18
10
20
7C
04
04
06
8C
78
ENDCHAR
STARTCHAR uni0294
ENCODING 660
SWIDTH 417 0
DWIDTH 7 0
BBX 6 11 0 0
BITMAP
78
8C
04
04
0C
18
30
30
30
30
30
ENDCHAR
STARTCHAR uni0295
ENCODING 661
SWIDTH 443 0
DWIDTH 7 0
BBX 7 11 0 0
BITMAP
3C
46
40
C0
40
30
18
18
18
18
18
ENDCHAR
STARTCHAR uni0298
ENCODING 664
SWIDTH 525 0
DWIDTH 8 0
BBX 6 11 1 0
BITMAP
38
4C
C4
84
84
B4
84
84
C4
4C
38
ENDCHAR
STARTCHAR uni0299
ENCODING 665
SWIDTH 508 0
DWIDTH 8 0
BBX 7 8 1 0
BITMAP
F8
C4
C4
F8
C4
C4
C6
F8
ENDCHAR
STARTCHAR uni029C
ENCODING 668
SWIDTH 562 0
DWIDTH 9 0
BBX 7 8 1 0
BITMAP
C6
C6
C6
FE
C6
C6
C6
C6
ENDCHAR
STARTCHAR uni029D
ENCODING 669
SWIDTH 284 0
DWIDTH 5 0
BBX 6 16 -1 -4
BITMAP
10
10
00
00
10
10
10
10
10
10
10
10
F0
90
E8
04
ENDCHAR
STARTCHAR uni029F
ENCODING 671
SWIDTH 411 0
DWIDTH 7 0
BBX 5 8 1 0
BITMAP
C0
C0
C0
C0
C0
C0
C0
F8
ENDCHAR
STARTCHAR uni02A1
ENCODING 673
SWIDTH 441 0
DWIDTH 7 0
BBX 7 11 0 0
BITMAP
78
C4
06
06
04
08
FE
10
10
10
10
ENDCHAR
STARTCHAR uni02A2
ENCODING 674
SWIDTH 441 0
DWIDTH 7 0
BBX 7 11 0 0
BITMAP
3C
46
C0
40
40
30
FE
18
18
18
18
ENDCHAR
STARTCHAR h.sups
ENCODING 688
SWIDTH 366 0
DWIDTH 6 0
BBX 4 8 1 6
BITMAP
80
80
F0
90
90
90
90
90
ENDCHAR
STARTCHAR j.sups
ENCODING 690
SWIDTH 169 0
DWIDTH 3 0
BBX 2 9 0 4
BITMAP
40
00
40
40
40
40
40
40
C0
ENDCHAR
STARTCHAR r.sups
ENCODING 691
SWIDTH 240 0
DWIDTH 4 0
BBX 3 6 1 6
BITMAP
E0
80
80
80
80
80
ENDCHAR
STARTCHAR w.sups
ENCODING 695
SWIDTH 487 0
DWIDTH 8 0
BBX 8 5 0 6
BITMAP
9B
5A
5A
6A
24
ENDCHAR
STARTCHAR y.sups
ENCODING 696
SWIDTH 319 0
DWIDTH 5 0
BBX 5 7 0 4
BITMAP
88
50
50
50
20
20
C0
ENDCHAR
STARTCHAR uni02B9
ENCODING 697
SWIDTH 249 0
DWIDTH 4 0
BBX 2 4 1 7
BITMAP
40
40
C0
80
ENDCHAR
STARTCHAR uni02BB
ENCODING 699
SWIDTH 249 0
DWIDTH 4 0
BBX 2 4 1 7
BITMAP
40
80
80
C0
ENDCHAR
STARTCHAR uni02BC
ENCODING 700
SWIDTH 249 0
DWIDTH 4 0
BBX 2 4 1 7
BITMAP
C0
40
40
80
ENDCHAR
STARTCHAR uni02BE
ENCODING 702
SWIDTH 166 0
DWIDTH 3 0
BBX 2 3 0 9
BITMAP
C0
40
C0
ENDCHAR
STARTCHAR uni02BF
ENCODING 703
SWIDTH 166 0
DWIDTH 3 0
BBX 2 3 0 9
BITMAP
40
80
40
ENDCHAR
STARTCHAR uni02C1
ENCODING 705
SWIDTH 302 0
DWIDTH 5 0
BBX 5 8 0 6
BITMAP
70
D8
80
40
20
20
20
20
ENDCHAR
STARTCHAR circumflex
ENCODING 710
SWIDTH 542 0
DWIDTH 9 0
BBX 5 3 2 9
BITMAP
60
50
88
ENDCHAR
STARTCHAR caron
ENCODING 711
SWIDTH 542 0
DWIDTH 9 0
BBX 5 3 2 9
BITMAP
88
50
60
ENDCHAR
STARTCHAR uni02C8
ENCODING 712
SWIDTH 114 0
DWIDTH 2 0
BBX 1 3 0 9
BITMAP
80
80
80
ENDCHAR
STARTCHAR uni02C9
ENCODING 713
SWIDTH 277 0
DWIDTH 4 0
BBX 4 1 0 10
BITMAP
F0
ENDCHAR
STARTCHAR uni02CA
ENCODING 714
SWIDTH 225 0
DWIDTH 4 0
BBX 3 3 1 9
BITMAP
20
40
80
ENDCHAR
STARTCHAR uni02CB
ENCODING 715
SWIDTH 225 0
DWIDTH 4 0
BBX 4 3 -1 9
BITMAP
40
E0
30
ENDCHAR
STARTCHAR uni02CC
ENCODING 716
SWIDTH 114 0
DWIDTH 2 0
BBX 1 3 0 -4
BITMAP
80
80
80
ENDCHAR
STARTCHAR uni02D0
ENCODING 720
SWIDTH 249 0
DWIDTH 4 0
BBX 2 7 1 0
BITMAP
C0
80
00
00
00
80
C0
ENDCHAR
STARTCHAR uni02D1
ENCODING 721
SWIDTH 249 0
DWIDTH 4 0
BBX 2 2 1 4
BITMAP
C0
80
ENDCHAR
STARTCHAR breve
ENCODING 728
SWIDTH 542 0
DWIDTH 9 0
BBX 5 3 2 9
BITMAP
88
98
70
ENDCHAR
STARTCHAR dotaccent
ENCODING 729
SWIDTH 542 0
DWIDTH 9 0
BBX 2 2 3 9
BITMAP
40
C0
ENDCHAR
STARTCHAR ring
ENCODING 730
SWIDTH 542 0
DWIDTH 9 0
BBX 3 3 3 9
BITMAP
E0
A0
E0
ENDCHAR
STARTCHAR ogonek
ENCODING 731
SWIDTH 542 0
DWIDTH 9 0
BBX 3 3 3 -3
BITMAP
C0
80
60
ENDCHAR
STARTCHAR tilde
ENCODING 732
SWIDTH 542 0
DWIDTH 9 0
BBX 5 2 2 9
BITMAP
E8
B8
ENDCHAR
STARTCHAR hungarumlaut
ENCODING 733
SWIDTH 542 0
DWIDTH 9 0
BBX 5 3 3 9
BITMAP
58
90
A0
ENDCHAR
STARTCHAR uni02DE
ENCODING 734
SWIDTH 151 0
DWIDTH 2 0
BBX 5 3 -2 4
BITMAP
20
E0
18
ENDCHAR
STARTCHAR uni02E0
ENCODING 736
SWIDTH 318 0
DWIDTH 5 0
BBX 5 7 0 4
BITMAP
88
50
50
50
20
50
30
ENDCHAR
STARTCHAR l.sups
ENCODING 737
SWIDTH 174 0
DWIDTH 3 0
BBX 1 8 1 6
BITMAP
80
80
80
80
80
80
80
80
ENDCHAR
STARTCHAR s.sups
ENCODING 738
SWIDTH 283 0
DWIDTH 5 0
BBX 4 5 0 6
BITMAP
70
40
70
90
70
ENDCHAR
STARTCHAR x.sups
ENCODING 739
SWIDTH 307 0
DWIDTH 5 0
BBX 5 5 0 6
BITMAP
D8
50
20
50
98
ENDCHAR
STARTCHAR uni0300
ENCODING 768
SWIDTH 0 0
DWIDTH 0 0
BBX 3 3 -2 9
BITMAP
80
40
20
ENDCHAR
STARTCHAR uni0301
ENCODING 769
SWIDTH 0 0
DWIDTH 0 0
BBX 3 3 -1 9
BITMAP
20
40
80
ENDCHAR
STARTCHAR uni0302
ENCODING 770
SWIDTH 0 0
DWIDTH 0 0
BBX 4 3 -2 9
BITMAP
60
F0
90
ENDCHAR
STARTCHAR uni0303
ENCODING 771
SWIDTH 0 0
DWIDTH 0 0
BBX 6 2 -3 9
BITMAP
64
98
ENDCHAR
STARTCHAR uni0304
ENCODING 772
SWIDTH 0 0
DWIDTH 0 0
BBX 4 1 -2 10
BITMAP
F0
ENDCHAR
STARTCHAR uni0305
ENCODING 773
SWIDTH 0 0
DWIDTH 0 0
BBX 4 1 -2 10
BITMAP
F0
ENDCHAR
STARTCHAR uni0306
ENCODING 774
SWIDTH 0 0
DWIDTH 0 0
BBX 6 3 -3 9
BITMAP
8C
48
30
ENDCHAR
STARTCHAR uni0307
ENCODING 775
SWIDTH 0 0
DWIDTH 0 0
BBX 2 2 -1 9
BITMAP
C0
C0
ENDCHAR
STARTCHAR uni0308
ENCODING 776
SWIDTH 0 0
DWIDTH 0 0
BBX 4 2 -2 9
BITMAP
90
90
ENDCHAR
STARTCHAR uni0309
ENCODING 777
SWIDTH 0 0
DWIDTH 0 0
BBX 2 4 -1 9
BITMAP
C0
40
40
C0
ENDCHAR
STARTCHAR uni030A
ENCODING 778
SWIDTH 0 0
DWIDTH 0 0
BBX 4 3 -2 9
BITMAP
60
90
60
ENDCHAR
STARTCHAR uni030B
ENCODING 779
SWIDTH 0 0
DWIDTH 0 0
BBX 5 3 -2 9
BITMAP
28
50
90
ENDCHAR
STARTCHAR uni030C
ENCODING 780
SWIDTH 0 0
DWIDTH 0 0
BBX 4 3 -2 9
BITMAP
90
F0
60
ENDCHAR
STARTCHAR uni030F
ENCODING 783
SWIDTH 0 0
DWIDTH 0 0
BBX 5 3 -3 9
BITMAP
A0
D0
58
ENDCHAR
STARTCHAR uni0311
ENCODING 785
SWIDTH 0 0
DWIDTH 0 0
BBX 6 3 -3 9
BITMAP
30
48
8C
ENDCHAR
STARTCHAR uni0312
ENCODING 786
SWIDTH 0 0
DWIDTH 0 0
BBX 2 3 -1 9
BITMAP
40
80
C0
ENDCHAR
STARTCHAR uni0313
ENCODING 787
SWIDTH 0 0
DWIDTH 0 0
BBX 2 3 -1 9
BITMAP
C0
40
80
ENDCHAR
STARTCHAR uni0318
ENCODING 792
SWIDTH 0 0
DWIDTH 0 0
BBX 2 3 -1 -4
BITMAP
40
C0
40
ENDCHAR
STARTCHAR uni0319
ENCODING 793
SWIDTH 0 0
DWIDTH 0 0
BBX 2 3 -1 -4
BITMAP
80
C0
80
ENDCHAR
STARTCHAR uni031A
ENCODING 794
SWIDTH 0 0
DWIDTH 0 0
BBX 2 3 -1 8
BITMAP
C0
40
40
ENDCHAR
STARTCHAR uni031B
ENCODING 795
SWIDTH 0 0
DWIDTH 0 0
BBX 2 4 0 7
BITMAP
40
40
40
80
ENDCHAR
STARTCHAR uni031C
ENCODING 796
SWIDTH 0 0
DWIDTH 0 0
BBX 2 3 -1 -4
BITMAP
C0
80
C0
ENDCHAR
STARTCHAR uni031D
ENCODING 797
SWIDTH 0 0
DWIDTH 0 0
BBX 4 3 -2 -3
BITMAP
40
40
F0
ENDCHAR
STARTCHAR uni031E
ENCODING 798
SWIDTH 0 0
DWIDTH 0 0
BBX 4 3 -2 -4
BITMAP
F0
40
40
ENDCHAR
STARTCHAR uni031F
ENCODING 799
SWIDTH 0 0
DWIDTH 0 0
BBX 4 3 -2 -4
BITMAP
40
F0
40
ENDCHAR
STARTCHAR uni0320
ENCODING 800
SWIDTH 0 0
DWIDTH 0 0
BBX 4 1 -2 -3
BITMAP
F0
ENDCHAR
STARTCHAR uni0323
ENCODING 803
SWIDTH 0 0
DWIDTH 0 0
BBX 2 2 -1 -4
BITMAP
C0
C0
ENDCHAR
STARTCHAR uni0324
ENCODING 804
SWIDTH 0 0
DWIDTH 0 0
BBX 4 2 -2 -4
BITMAP
90
90
ENDCHAR
STARTCHAR uni0325
ENCODING 805
SWIDTH 0 0
DWIDTH 0 0
BBX 4 3 -2 -4
BITMAP
60
90
60
ENDCHAR
STARTCHAR uni0326
ENCODING 806
SWIDTH 0 0
DWIDTH 0 0
BBX 3 3 -2 -4
BITMAP
60
20
E0
ENDCHAR
STARTCHAR uni0327
ENCODING 807
SWIDTH 0 0
DWIDTH 0 0
BBX 3 5 -2 -5
BITMAP
60
60
20
20
C0
ENDCHAR
STARTCHAR uni0328
ENCODING 808
SWIDTH 0 0
DWIDTH 0 0
BBX 3 3 -1 -3
BITMAP
C0
80
E0
ENDCHAR
STARTCHAR uni0329
ENCODING 809
SWIDTH 0 0
DWIDTH 0 0
BBX 2 3 -1 -4
BITMAP
80
C0
C0
ENDCHAR
STARTCHAR uni032A
ENCODING 810
SWIDTH 0 0
DWIDTH 0 0
BBX 4 3 -2 -4
BITMAP
F0
90
90
ENDCHAR
STARTCHAR uni032C
ENCODING 812
SWIDTH 0 0
DWIDTH 0 0
BBX 4 3 -2 -4
BITMAP
90
F0
60
ENDCHAR
STARTCHAR uni032E
ENCODING 814
SWIDTH 0 0
DWIDTH 0 0
BBX 6 3 -3 -4
BITMAP
8C
48
30
ENDCHAR
STARTCHAR uni032F
ENCODING 815
SWIDTH 0 0
DWIDTH 0 0
BBX 6 3 -3 -4
BITMAP
30
48
8C
ENDCHAR
STARTCHAR uni0330
ENCODING 816
SWIDTH 0 0
DWIDTH 0 0
BBX 6 2 -3 -4
BITMAP
64
98
ENDCHAR
STARTCHAR uni0331
ENCODING 817
SWIDTH 0 0
DWIDTH 0 0
BBX 4 1 -2 -2
BITMAP
F0
ENDCHAR
STARTCHAR uni0334
ENCODING 820
SWIDTH 0 0
DWIDTH 0 0
BBX 6 2 -3 3
BITMAP
64
98
ENDCHAR
STARTCHAR uni0339
ENCODING 825
SWIDTH 0 0
DWIDTH 0 0
BBX 2 3 -1 -4
BITMAP
C0
40
C0
ENDCHAR
STARTCHAR uni033A
ENCODING 826
SWIDTH 0 0
DWIDTH 0 0
BBX 4 3 -2 -4
BITMAP
90
90
F0
ENDCHAR
STARTCHAR uni033B
ENCODING 827
SWIDTH 0 0
DWIDTH 0 0
BBX 4 3 -2 -4
BITMAP
F0
90
F0
ENDCHAR
STARTCHAR uni033C
ENCODING 828
SWIDTH 0 0
DWIDTH 0 0
BBX 6 2 -3 -3
BITMAP
78
A4
ENDCHAR
STARTCHAR uni033D
ENCODING 829
SWIDTH 0 0
DWIDTH 0 0
BBX 2 3 -1 8
BITMAP
C0
C0
C0
ENDCHAR
STARTCHAR uni0342
ENCODING 834
SWIDTH 0 0
DWIDTH 0 0
BBX 6 2 -3 9
BITMAP
64
98
ENDCHAR
STARTCHAR uni0345
ENCODING 837
SWIDTH 0 0
DWIDTH 0 0
BBX 2 2 -1 -3
BITMAP
C0
40
ENDCHAR
STARTCHAR uni0361
ENCODING 865
SWIDTH 0 0
DWIDTH 0 0
BBX 14 3 -7 9
BITMAP
1FE0
6018
8004
ENDCHAR
STARTCHAR uni0374
ENCODING 884
SWIDTH 249 0
DWIDTH 4 0
BBX 2 4 1 7
BITMAP
40
40
C0
80
ENDCHAR
STARTCHAR uni0375
ENCODING 885
SWIDTH 249 0
DWIDTH 4 0
BBX 2 4 1 0
BITMAP
40
C0
80
80
ENDCHAR
STARTCHAR uni037A
ENCODING 890
SWIDTH 542 0
DWIDTH 9 0
BBX 2 2 4 -3
BITMAP
80
C0
ENDCHAR
STARTCHAR uni037E
ENCODING 894
SWIDTH 249 0
DWIDTH 4 0
BBX 2 11 1 -3
BITMAP
C0
C0
00
00
00
00
C0
C0
40
C0
80
ENDCHAR
STARTCHAR tonos
ENCODING 900
SWIDTH 542 0
DWIDTH 9 0
BBX 2 3 4 9
BITMAP
C0
80
80
ENDCHAR
STARTCHAR dieresistonos
ENCODING 901
SWIDTH 542 0
DWIDTH 9 0
BBX 5 3 2 9
BITMAP
30
A8
20
ENDCHAR
STARTCHAR Alphatonos
ENCODING 902
SWIDTH 566 0
DWIDTH 9 0
BBX 9 10 0 0
BITMAP
CC00
9C00
9400
1600
3200
2200
3F00
6100
4100
C180
ENDCHAR
STARTCHAR anoteleia
ENCODING 903
SWIDTH 249 0
DWIDTH 4 0
BBX 2 2 1 6
BITMAP
C0
C0
ENDCHAR
STARTCHAR Epsilontonos
ENCODING 904
SWIDTH 591 0
DWIDTH 9 0
BBX 9 10 0 0
BITMAP
BF80
B000
B000
3000
3F00
3000
3000
3000
3000
3F80
ENDCHAR
STARTCHAR Etatonos
ENCODING 905
SWIDTH 716 0
DWIDTH 11 0
BBX 10 10 0 0
BITMAP
B040
B040
B040
3040
3FC0
3040
3040
3040
3040
3040
ENDCHAR
STARTCHAR Iotatonos
ENCODING 906
SWIDTH 327 0
DWIDTH 5 0
BBX 4 10 0 0
BITMAP
B0
B0
B0
30
30
30
30
30
30
30
ENDCHAR
STARTCHAR Omicrontonos
ENCODING 908
SWIDTH 711 0
DWIDTH 11 0
BBX 11 10 0 0
BITMAP
8F00
9080
B040
2040
2060
2060
2040
3040
1080
0F00
ENDCHAR
STARTCHAR Upsilontonos
ENCODING 910
SWIDTH 600 0
DWIDTH 10 0
BBX 10 10 0 0
BITMAP
B0C0
9080
9900
0900
0E00
0600
0400
0400
0400
0400
ENDCHAR
STARTCHAR Omegatonos
ENCODING 911
SWIDTH 723 0
DWIDTH 12 0
BBX 11 10 0 0
BITMAP
8F00
90C0
B040
2060
2060
2060
2040
3040
1880
79E0
ENDCHAR
STARTCHAR iotadieresistonos
ENCODING 912
SWIDTH 262 0
DWIDTH 4 0
BBX 5 12 -1 0
BITMAP
10
D8
20
00
30
30
30
30
30
30
30
18
ENDCHAR
STARTCHAR Alpha
ENCODING 913
SWIDTH 544 0
DWIDTH 9 0
BBX 9 10 0 0
BITMAP
1800
1C00
1400
3400
2600
2200
7E00
4300
4100
C180
ENDCHAR
STARTCHAR Beta
ENCODING 914
SWIDTH 588 0
DWIDTH 9 0
BBX 8 10 1 0
BITMAP
FC
C6
C2
C6
FC
C2
C3
C3
C2
FC
ENDCHAR
STARTCHAR Gamma
ENCODING 915
SWIDTH 498 0
DWIDTH 8 0
BBX 6 10 1 0
BITMAP
FC
C0
C0
C0
C0
C0
C0
C0
C0
C0
ENDCHAR
STARTCHAR uni0394
ENCODING 916
SWIDTH 588 0
DWIDTH 9 0
BBX 9 10 0 0
BITMAP
0C00
1C00
1400
1200
3200
2300
2100
4100
4180
FF80
ENDCHAR
STARTCHAR Epsilon
ENCODING 917
SWIDTH 527 0
DWIDTH 8 0
BBX 7 10 1 0
BITMAP
FC
C0
C0
C0
FC
C0
C0
C0
C0
FE
ENDCHAR
STARTCHAR Zeta
ENCODING 918
SWIDTH 539 0
DWIDTH 9 0
BBX 7 10 1 0
BITMAP
FE
06
0C
08
10
30
60
40
C0
FE
ENDCHAR
STARTCHAR Eta
ENCODING 919
SWIDTH 652 0
DWIDTH 10 0
BBX 8 10 1 0
BITMAP
C1
C1
C1
C1
FF
C1
C1
C1
C1
C1
ENDCHAR
STARTCHAR Theta
ENCODING 920
SWIDTH 664 0
DWIDTH 11 0
BBX 9 10 1 0
BITMAP
3C00
6300
C100
8180
9D80
8180
8180
C100
6300
3C00
ENDCHAR
STARTCHAR Iota
ENCODING 921
SWIDTH 263 0
DWIDTH 4 0
BBX 2 10 1 0
BITMAP
C0
C0
C0
C0
C0
C0
C0
C0
C0
C0
ENDCHAR
STARTCHAR Kappa
ENCODING 922
SWIDTH 579 0
DWIDTH 9 0
BBX 8 10 1 0
BITMAP
C3
C4
CC
D8
F8
E8
C4
C6
C2
C3
ENDCHAR
STARTCHAR Lambda
ENCODING 923
SWIDTH 515 0
DWIDTH 8 0
BBX 8 10 0 0
BITMAP
18
18
14
24
24
26
42
42
43
C1
ENDCHAR
STARTCHAR Mu
ENCODING 924
SWIDTH 727 0
DWIDTH 12 0
BBX 9 10 1 0
BITMAP
C180
E180
E180
E280
D280
D280
DC80
CC80
C880
C080
ENDCHAR
STARTCHAR Nu
ENCODING 925
SWIDTH 647 0
DWIDTH 10 0
BBX 8 10 1 0
BITMAP
C1
E1
E1
D1
D9
C9
CD
C5
C3
C3
ENDCHAR
STARTCHAR Xi
ENCODING 926
SWIDTH 533 0
DWIDTH 9 0
BBX 7 10 1 0
BITMAP
FE
00
00
00
7C
00
00
00
00
FE
ENDCHAR
STARTCHAR Omicron
ENCODING 927
SWIDTH 664 0
DWIDTH 11 0
BBX 9 10 1 0
BITMAP
3C00
6300
C100
8180
8180
8180
8180
C100
6300
3C00
ENDCHAR
STARTCHAR Pi
ENCODING 928
SWIDTH 645 0
DWIDTH 10 0
BBX 8 10 1 0
BITMAP
FF
C1
C1
C1
C1
C1
C1
C1
C1
C1
ENDCHAR
STARTCHAR Rho
ENCODING 929
SWIDTH 566 0
DWIDTH 9 0
BBX 7 10 1 0
BITMAP
FC
C6
C2
C2
C6
FC
C0
C0
C0
C0
ENDCHAR
STARTCHAR Sigma
ENCODING 931
SWIDTH 538 0
DWIDTH 9 0
BBX 7 10 1 0
BITMAP
FE
C0
60
30
10
18
20
60
C0
FE
ENDCHAR
STARTCHAR Tau
ENCODING 932
SWIDTH 536 0
DWIDTH 9 0
BBX 8 10 0 0
BITMAP
FF
08
08
08
08
08
08
08
08
08
ENDCHAR
STARTCHAR Upsilon
ENCODING 933
SWIDTH 476 0
DWIDTH 8 0
BBX 8 10 0 0
BITMAP
C3
42
64
24
38
18
10
10
10
10
ENDCHAR
STARTCHAR Phi
ENCODING 934
SWIDTH 719 0
DWIDTH 12 0
BBX 10 11 1 0
BITMAP
0800
0800
3F00
4980
8880
88C0
88C0
8880
4980
3F00
0800
ENDCHAR
STARTCHAR Chi
ENCODING 935
SWIDTH 513 0
DWIDTH 8 0
BBX 8 10 0 0
BITMAP
C3
62
24
1C
18
18
34
24
42
C3
ENDCHAR
STARTCHAR Psi
ENCODING 936
SWIDTH 699 0
DWIDTH 11 0
BBX 9 10 1 0
BITMAP
8880
8880
8880
8880
C980
7F00
0800
0800
0800
0800
ENDCHAR
STARTCHAR uni03A9
ENCODING 937
SWIDTH 678 0
DWIDTH 11 0
BBX 9 10 1 0
BITMAP
3E00
6300
C100
8180
8080
8080
C180
4100
6200
E780
ENDCHAR
STARTCHAR Iotadieresis
ENCODING 938
SWIDTH 263 0
DWIDTH 4 0
BBX 5 13 0 0
BITMAP
90
98
00
60
60
60
60
60
60
60
60
60
60
ENDCHAR
STARTCHAR Upsilondieresis
ENCODING 939
SWIDTH 476 0
DWIDTH 8 0
BBX 8 13 0 0
BITMAP
64
64
00
C3
42
64
24
38
18
10
10
10
10
ENDCHAR
STARTCHAR alphatonos
ENCODING 940
SWIDTH 560 0
DWIDTH 9 0
BBX 8 12 1 0
BITMAP
08
18
10
00
7A
CA
86
86
84
84
CC
77
ENDCHAR
STARTCHAR epsilontonos
ENCODING 941
SWIDTH 448 0
DWIDTH 7 0
BBX 6 12 1 0
BITMAP
10
10
10
20
78
CC
C0
70
80
80
88
7C
ENDCHAR
STARTCHAR etatonos
ENCODING 942
SWIDTH 541 0
DWIDTH 9 0
BBX 6 14 1 -2
BITMAP
08
18
10
00
9C
A4
C4
C4
C4
C4
C4
C4
04
04
ENDCHAR
STARTCHAR iotatonos
ENCODING 943
SWIDTH 262 0
DWIDTH 4 0
BBX 3 12 1 0
BITMAP
60
40
40
80
C0
C0
C0
C0
C0
C0
C0
60
ENDCHAR
STARTCHAR upsilondieresistonos
ENCODING 944
SWIDTH 510 0
DWIDTH 8 0
BBX 6 12 1 0
BITMAP
10
D8
20
00
8C
84
84
84
84
84
CC
78
ENDCHAR
STARTCHAR alpha
ENCODING 945
SWIDTH 560 0
DWIDTH 9 0
BBX 8 8 1 0
BITMAP
7A
CA
86
86
84
84
CC
77
ENDCHAR
STARTCHAR beta
ENCODING 946
SWIDTH 565 0
DWIDTH 9 0
BBX 7 13 1 -2
BITMAP
38
44
C4
C4
C8
DC
C2
C2
C2
C6
FC
C0
C0
ENDCHAR
STARTCHAR gamma
ENCODING 947
SWIDTH 484 0
DWIDTH 8 0
BBX 7 10 0 -2
BITMAP
C2
42
22
24
34
18
18
10
10
18
ENDCHAR
STARTCHAR delta
ENCODING 948
SWIDTH 531 0
DWIDTH 9 0
BBX 7 11 1 0
BITMAP
7C
46
40
30
38
4C
86
86
86
C4
78
ENDCHAR
STARTCHAR epsilon
ENCODING 949
SWIDTH 448 0
DWIDTH 7 0
BBX 6 8 1 0
BITMAP
78
CC
C0
70
80
80
88
7C
ENDCHAR
STARTCHAR zeta
ENCODING 950
SWIDTH 424 0
DWIDTH 7 0
BBX 6 13 1 -2
BITMAP
FC
18
30
60
40
C0
80
80
80
C0
78
0C
08
ENDCHAR
STARTCHAR eta
ENCODING 951
SWIDTH 541 0
DWIDTH 9 0
BBX 6 10 1 -2
BITMAP
9C
A4
C4
C4
C4
C4
C4
C4
04
04
ENDCHAR
STARTCHAR theta
ENCODING 952
SWIDTH 522 0
DWIDTH 8 0
BBX 6 11 1 0
BITMAP
38
4C
C4
84
84
FC
84
84
C4
4C
38
ENDCHAR
STARTCHAR iota
ENCODING 953
SWIDTH 262 0
DWIDTH 4 0
BBX 3 8 1 0
BITMAP
C0
C0
C0
C0
C0
C0
C0
60
ENDCHAR
STARTCHAR kappa
ENCODING 954
SWIDTH 494 0
DWIDTH 8 0
BBX 7 8 1 0
BITMAP
C4
CC
D0
F0
F0
C8
CC
C6
ENDCHAR
STARTCHAR lambda
ENCODING 955
SWIDTH 494 0
DWIDTH 8 0
BBX 8 11 0 0
BITMAP
E0
10
18
08
18
1C
24
24
62
42
C3
ENDCHAR
STARTCHAR uni03BC
ENCODING 956
SWIDTH 562 0
DWIDTH 9 0
BBX 8 10 1 -2
BITMAP
C4
C4
C4
C4
C4
C4
CC
F3
C0
C0
ENDCHAR
STARTCHAR nu
ENCODING 957
SWIDTH 474 0
DWIDTH 8 0
BBX 7 8 0 0
BITMAP
C2
42
66
24
24
3C
18
18
ENDCHAR
STARTCHAR xi
ENCODING 958
SWIDTH 431 0
DWIDTH 7 0
BBX 7 13 0 -2
BITMAP
FE
20
20
20
30
1C
60
40
40
60
3C
02
04
ENDCHAR
STARTCHAR omicron
ENCODING 959
SWIDTH 535 0
DWIDTH 9 0
BBX 7 8 1 0
BITMAP
78
C4
86
86
86
86
C4
78
ENDCHAR
STARTCHAR pi
ENCODING 960
SWIDTH 586 0
DWIDTH 9 0
BBX 9 8 0 0
BITMAP
FF80
2200
2200
2200
2200
2200
2200
2380
ENDCHAR
STARTCHAR rho
ENCODING 961
SWIDTH 549 0
DWIDTH 9 0
BBX 7 10 1 -2
BITMAP
3C
44
C2
C2
C2
C6
C4
F8
C0
C0
ENDCHAR
STARTCHAR uni03C2
ENCODING 962
SWIDTH 432 0
DWIDTH 7 0
BBX 5 10 1 -2
BITMAP
78
C8
80
80
80
80
C0
38
08
18
ENDCHAR
STARTCHAR sigma
ENCODING 963
SWIDTH 546 0
DWIDTH 9 0
BBX 8 8 1 0
BITMAP
7F
CC
84
86
86
84
CC
78
ENDCHAR
STARTCHAR tau
ENCODING 964
SWIDTH 460 0
DWIDTH 7 0
BBX 7 8 0 0
BITMAP
FE
10
10
10
10
10
10
1C
ENDCHAR
STARTCHAR upsilon
ENCODING 965
SWIDTH 510 0
DWIDTH 8 0
BBX 6 8 1 0
BITMAP
8C
84
84
84
84
84
CC
78
ENDCHAR
STARTCHAR phi
ENCODING 966
SWIDTH 680 0
DWIDTH 11 0
BBX 9 12 1 -2
BITMAP
0800
0800
3E00
4900
8980
8880
8880
8980
4900
3E00
0800
0800
ENDCHAR
STARTCHAR chi
ENCODING 967
SWIDTH 481 0
DWIDTH 8 0
BBX 8 10 0 -2
BITMAP
C2
44
24
38
18
18
3C
24
42
C3
ENDCHAR
STARTCHAR psi
ENCODING 968
SWIDTH 689 0
DWIDTH 11 0
BBX 9 12 1 -2
BITMAP
0800
0800
8980
8880
8880
8880
8880
8980
4900
3E00
0800
0800
ENDCHAR
STARTCHAR omega
ENCODING 969
SWIDTH 701 0
DWIDTH 11 0
BBX 9 8 1 0
BITMAP
4100
C180
C080
8880
8880
8880
CC80
7700
ENDCHAR
STARTCHAR iotadieresis
ENCODING 970
SWIDTH 262 0
DWIDTH 4 0
BBX 4 11 0 0
BITMAP
90
90
00
60
60
60
60
60
60
60
30
ENDCHAR
STARTCHAR upsilondieresis
ENCODING 971
SWIDTH 510 0
DWIDTH 8 0
BBX 6 11 1 0
BITMAP
48
48
00
8C
84
84
84
84
84
CC
78
ENDCHAR
STARTCHAR omicrontonos
ENCODING 972
SWIDTH 535 0
DWIDTH 9 0
BBX 7 12 1 0
BITMAP
18
10
10
00
78
C4
86
86
86
86
C4
78
ENDCHAR
STARTCHAR upsilontonos
ENCODING 973
SWIDTH 510 0
DWIDTH 8 0
BBX 6 12 1 0
BITMAP
10
10
20
00
8C
84
84
84
84
84
CC
78
ENDCHAR
STARTCHAR omegatonos
ENCODING 974
SWIDTH 701 0
DWIDTH 11 0
BBX 9 12 1 0
BITMAP
0400
0C00
0800
0000
4100
C180
C080
8880
8880
8880
CC80
7700
ENDCHAR
STARTCHAR uni03D0
ENCODING 976
SWIDTH 560 0
DWIDTH 9 0
BBX 7 11 1 0
BITMAP
38
44
C4
C4
D8
FC
C6
C2
C2
46
3C
ENDCHAR
STARTCHAR uni03D1
ENCODING 977
SWIDTH 522 0
DWIDTH 8 0
BBX 6 11 1 0
BITMAP
78
CC
84
84
44
3C
C4
C4
C4
4C
78
ENDCHAR
STARTCHAR uni03D5
ENCODING 981
SWIDTH 680 0
DWIDTH 11 0
BBX 9 10 1 -2
BITMAP
4700
E980
8880
8880
8880
8980
4900
3E00
0800
0800
ENDCHAR
STARTCHAR uni03D7
ENCODING 983
SWIDTH 494 0
DWIDTH 8 0
BBX 7 10 1 -2
BITMAP
C4
CC
D0
F0
F0
C8
CC
C6
04
18
ENDCHAR
STARTCHAR uni03D9
ENCODING 985
SWIDTH 535 0
DWIDTH 9 0
BBX 7 10 1 -2
BITMAP
78
C4
86
86
86
86
C4
78
10
10
ENDCHAR
STARTCHAR uni03DB
ENCODING 987
SWIDTH 466 0
DWIDTH 7 0
BBX 6 10 1 -2
BITMAP
3C
C0
80
80
80
80
C0
38
0C
08
ENDCHAR
STARTCHAR uni03DD
ENCODING 989
SWIDTH 413 0
DWIDTH 7 0
BBX 5 10 1 -2
BITMAP
F8
C0
C0
C0
C0
F8
C0
C0
C0
C0
ENDCHAR
STARTCHAR uni03E1
ENCODING 993
SWIDTH 498 0
DWIDTH 8 0
BBX 8 14 0 -3
BITMAP
60
30
18
08
04
1E
72
C2
0E
3B
23
03
03
02
ENDCHAR
STARTCHAR uni0400
ENCODING 1024
SWIDTH 527 0
DWIDTH 8 0
BBX 7 14 1 0
BITMAP
20
70
10
00
FC
C0
C0
C0
FC
C0
C0
C0
C0
FE
ENDCHAR
STARTCHAR uni0401
ENCODING 1025
SWIDTH 527 0
DWIDTH 8 0
BBX 7 13 1 0
BITMAP
6C
64
00
FC
C0
C0
C0
FC
C0
C0
C0
C0
FE
ENDCHAR
STARTCHAR uni0402
ENCODING 1026
SWIDTH 687 0
DWIDTH 11 0
BBX 10 10 0 0
BITMAP
FF00
1800
1800
1800
1F80
18C0
1840
1840
18C0
1B80
ENDCHAR
STARTCHAR uni0403
ENCODING 1027
SWIDTH 498 0
DWIDTH 8 0
BBX 6 14 1 0
BITMAP
08
0C
10
00
FC
C0
C0
C0
C0
C0
C0
C0
C0
C0
ENDCHAR
STARTCHAR uni0404
ENCODING 1028
SWIDTH 571 0
DWIDTH 9 0
BBX 8 10 1 0
BITMAP
3E
62
C0
80
FC
80
80
C0
63
3E
ENDCHAR
STARTCHAR uni0405
ENCODING 1029
SWIDTH 534 0
DWIDTH 9 0
BBX 7 10 1 0
BITMAP
7C
C6
C0
C0
70
1C
06
02
C6
7C
ENDCHAR
STARTCHAR uni0406
ENCODING 1030
SWIDTH 263 0
DWIDTH 4 0
BBX 2 10 1 0
BITMAP
C0
C0
C0
C0
C0
C0
C0
C0
C0
C0
ENDCHAR
STARTCHAR uni0407
ENCODING 1031
SWIDTH 263 0
DWIDTH 4 0
BBX 5 13 0 0
BITMAP
90
98
00
60
60
60
60
60
60
60
60
60
60
ENDCHAR
STARTCHAR uni0408
ENCODING 1032
SWIDTH 480 0
DWIDTH 8 0
BBX 6 10 0 0
BITMAP
04
04
04
04
04
04
04
04
C4
78
ENDCHAR
STARTCHAR uni0409
ENCODING 1033
SWIDTH 903 0
DWIDTH 14 0
BBX 14 10 0 0
BITMAP
1F00
1100
1100
1100
11F0
3108
310C
210C
2108
C1F0
ENDCHAR
STARTCHAR uni040A
ENCODING 1034
SWIDTH 929 0
DWIDTH 15 0
BBX 13 10 1 0
BITMAP
C300
C300
C300
C300
FFF0
C318
C308
C308
C318
C3F0
ENDCHAR
STARTCHAR uni040B
ENCODING 1035
SWIDTH 696 0
DWIDTH 11 0
BBX 10 10 0 0
BITMAP
FF00
1800
1800
1800
1F80
18C0
1840
1840
1840
1840
ENDCHAR
STARTCHAR uni040C
ENCODING 1036
SWIDTH 580 0
DWIDTH 9 0
BBX 8 14 1 0
BITMAP
04
0C
18
00
C3
C4
C4
C8
F8
C8
C4
C6
C2
C3
ENDCHAR
STARTCHAR uni040D
ENCODING 1037
SWIDTH 656 0
DWIDTH 11 0
BBX 8 14 1 0
BITMAP
20
10
08
00
C3
C3
C5
C5
C9
D9
D1
E1
E1
C1
ENDCHAR
STARTCHAR uni040E
ENCODING 1038
SWIDTH 514 0
DWIDTH 8 0
BBX 8 13 0 0
BITMAP
26
3C
00
C1
43
62
26
34
14
18
08
18
70
ENDCHAR
STARTCHAR uni040F
ENCODING 1039
SWIDTH 645 0
DWIDTH 10 0
BBX 8 13 1 -3
BITMAP
C1
C1
C1
C1
C1
C1
C1
C1
C1
FF
08
08
08
ENDCHAR
STARTCHAR uni0410
ENCODING 1040
SWIDTH 544 0
DWIDTH 9 0
BBX 9 10 0 0
BITMAP
1800
1C00
1400
3400
2600
2200
7E00
4300
4100
C180
ENDCHAR
STARTCHAR uni0411
ENCODING 1041
SWIDTH 580 0
DWIDTH 9 0
BBX 8 10 1 0
BITMAP
FE
C0
C0
C0
FC
C6
C3
C3
C2
FC
ENDCHAR
STARTCHAR uni0412
ENCODING 1042
SWIDTH 588 0
DWIDTH 9 0
BBX 8 10 1 0
BITMAP
FC
C6
C2
C6
FC
C2
C3
C3
C2
FC
ENDCHAR
STARTCHAR uni0413
ENCODING 1043
SWIDTH 498 0
DWIDTH 8 0
BBX 6 10 1 0
BITMAP
FC
C0
C0
C0
C0
C0
C0
C0
C0
C0
ENDCHAR
STARTCHAR uni0414
ENCODING 1044
SWIDTH 638 0
DWIDTH 10 0
BBX 10 13 0 -3
BITMAP
1F80
1180
1180
1180
1180
3180
2180
2180
6180
FFC0
C0C0
C0C0
40C0
ENDCHAR
STARTCHAR uni0415
ENCODING 1045
SWIDTH 527 0
DWIDTH 8 0
BBX 7 10 1 0
BITMAP
FC
C0
C0
C0
FC
C0
C0
C0
C0
FE
ENDCHAR
STARTCHAR uni0416
ENCODING 1046
SWIDTH 805 0
DWIDTH 13 0
BBX 13 10 0 0
BITMAP
C218
2220
3260
1240
1FC0
1240
2260
2220
4230
C218
ENDCHAR
STARTCHAR uni0417
ENCODING 1047
SWIDTH 554 0
DWIDTH 9 0
BBX 7 10 1 0
BITMAP
7C
86
06
04
38
06
02
02
86
7C
ENDCHAR
STARTCHAR uni0418
ENCODING 1048
SWIDTH 656 0
DWIDTH 11 0
BBX 8 10 1 0
BITMAP
C3
C3
C5
C5
C9
D9
D1
E1
E1
C1
ENDCHAR
STARTCHAR uni0419
ENCODING 1049
SWIDTH 656 0
DWIDTH 11 0
BBX 8 13 1 0
BITMAP
26
1C
00
C3
C3
C5
C5
C9
D9
D1
E1
E1
C1
ENDCHAR
STARTCHAR uni041A
ENCODING 1050
SWIDTH 580 0
DWIDTH 9 0
BBX 8 10 1 0
BITMAP
C3
C4
C4
C8
F8
C8
C4
C6
C2
C3
ENDCHAR
STARTCHAR uni041B
ENCODING 1051
SWIDTH 630 0
DWIDTH 10 0
BBX 9 10 0 0
BITMAP
1F80
1180
1180
1180
1180
3180
2180
2180
2180
C180
ENDCHAR
STARTCHAR uni041C
ENCODING 1052
SWIDTH 727 0
DWIDTH 12 0
BBX 9 10 1 0
BITMAP
C180
E180
E180
E280
D280
D280
DC80
CC80
C880
C080
ENDCHAR
STARTCHAR uni041D
ENCODING 1053
SWIDTH 652 0
DWIDTH 10 0
BBX 8 10 1 0
BITMAP
C1
C1
C1
C1
FF
C1
C1
C1
C1
C1
ENDCHAR
STARTCHAR uni041E
ENCODING 1054
SWIDTH 664 0
DWIDTH 11 0
BBX 9 10 1 0
BITMAP
3C00
6300
C100
8180
8180
8180
8180
C100
6300
3C00
ENDCHAR
STARTCHAR uni041F
ENCODING 1055
SWIDTH 645 0
DWIDTH 10 0
BBX 8 10 1 0
BITMAP
FF
C1
C1
C1
C1
C1
C1
C1
C1
C1
ENDCHAR
STARTCHAR uni0420
ENCODING 1056
SWIDTH 566 0
DWIDTH 9 0
BBX 7 10 1 0
BITMAP
FC
C6
C2
C2
C6
FC
C0
C0
C0
C0
ENDCHAR
STARTCHAR uni0421
ENCODING 1057
SWIDTH 571 0
DWIDTH 9 0
BBX 8 10 1 0
BITMAP
3E
62
C0
80
80
80
80
C0
63
3E
ENDCHAR
STARTCHAR uni0422
ENCODING 1058
SWIDTH 536 0
DWIDTH 9 0
BBX 8 10 0 0
BITMAP
FF
08
08
08
08
08
08
08
08
08
ENDCHAR
STARTCHAR uni0423
ENCODING 1059
SWIDTH 514 0
DWIDTH 8 0
BBX 8 10 0 0
BITMAP
C1
43
62
26
34
14
18
08
18
70
ENDCHAR
STARTCHAR uni0424
ENCODING 1060
SWIDTH 732 0
DWIDTH 12 0
BBX 10 10 1 0
BITMAP
0800
3F00
4980
88C0
8840
8840
88C0
4980
3F00
0800
ENDCHAR
STARTCHAR uni0425
ENCODING 1061
SWIDTH 513 0
DWIDTH 8 0
BBX 8 10 0 0
BITMAP
C3
62
24
1C
18
18
34
24
42
C3
ENDCHAR
STARTCHAR uni0426
ENCODING 1062
SWIDTH 642 0
DWIDTH 10 0
BBX 9 13 1 -3
BITMAP
C300
C300
C300
C300
C300
C300
C300
C300
C300
FF80
0080
0080
0080
ENDCHAR
STARTCHAR uni0427
ENCODING 1063
SWIDTH 598 0
DWIDTH 10 0
BBX 7 10 1 0
BITMAP
82
82
82
C2
7E
02
02
02
02
02
ENDCHAR
STARTCHAR uni0428
ENCODING 1064
SWIDTH 865 0
DWIDTH 14 0
BBX 11 10 1 0
BITMAP
C620
C620
C620
C620
C620
C620
C620
C620
C620
FFE0
ENDCHAR
STARTCHAR uni0429
ENCODING 1065
SWIDTH 874 0
DWIDTH 14 0
BBX 13 13 1 -3
BITMAP
C620
C620
C620
C620
C620
C620
C620
C620
C620
FFF8
0018
0010
0010
ENDCHAR
STARTCHAR uni042A
ENCODING 1066
SWIDTH 720 0
DWIDTH 12 0
BBX 11 10 0 0
BITMAP
F800
0800
0800
0800
0F80
0840
0860
0860
0840
0F80
ENDCHAR
STARTCHAR uni042B
ENCODING 1067
SWIDTH 798 0
DWIDTH 13 0
BBX 10 10 1 0
BITMAP
C040
C040
C040
C040
FC40
C640
C240
C240
C640
FC40
ENDCHAR
STARTCHAR uni042C
ENCODING 1068
SWIDTH 580 0
DWIDTH 9 0
BBX 8 10 1 0
BITMAP
C0
C0
C0
C0
FC
C2
C3
C3
C2
FC
ENDCHAR
STARTCHAR uni042D
ENCODING 1069
SWIDTH 571 0
DWIDTH 9 0
BBX 7 10 1 0
BITMAP
78
84
02
02
3E
02
02
06
84
78
ENDCHAR
STARTCHAR uni042E
ENCODING 1070
SWIDTH 908 0
DWIDTH 15 0
BBX 13 10 1 0
BITMAP
C3C0
C630
CC10
CC18
F818
C818
CC18
C410
C630
C3C0
ENDCHAR
STARTCHAR uni042F
ENCODING 1071
SWIDTH 582 0
DWIDTH 9 0
BBX 8 10 0 0
BITMAP
3F
61
41
41
61
3F
11
31
61
C1
ENDCHAR
STARTCHAR uni0430
ENCODING 1072
SWIDTH 504 0
DWIDTH 8 0
BBX 6 8 1 0
BITMAP
78
8C
04
3C
C4
84
8C
74
ENDCHAR
STARTCHAR uni0431
ENCODING 1073
SWIDTH 544 0
DWIDTH 9 0
BBX 7 11 1 0
BITMAP
1E
60
C0
80
BC
C6
86
82
86
44
38
ENDCHAR
STARTCHAR uni0432
ENCODING 1074
SWIDTH 508 0
DWIDTH 8 0
BBX 7 8 1 0
BITMAP
F8
C4
C4
F8
C4
C4
C6
F8
ENDCHAR
STARTCHAR uni0433
ENCODING 1075
SWIDTH 411 0
DWIDTH 7 0
BBX 5 8 1 0
BITMAP
F8
C0
C0
C0
C0
C0
C0
C0
ENDCHAR
STARTCHAR uni0434
ENCODING 1076
SWIDTH 532 0
DWIDTH 9 0
BBX 8 10 0 -2
BITMAP
3E
22
22
22
22
62
42
FF
C1
C1
ENDCHAR
STARTCHAR uni0435
ENCODING 1077
SWIDTH 496 0
DWIDTH 8 0
BBX 6 8 1 0
BITMAP
78
C4
84
FC
80
80
C4
3C
ENDCHAR
STARTCHAR uni0436
ENCODING 1078
SWIDTH 681 0
DWIDTH 11 0
BBX 11 8 0 0
BITMAP
C440
2480
2580
1F00
2480
2480
4440
C460
ENDCHAR
STARTCHAR uni0437
ENCODING 1079
SWIDTH 456 0
DWIDTH 7 0
BBX 6 8 1 0
BITMAP
F8
88
08
70
08
0C
88
F0
ENDCHAR
STARTCHAR uni0438
ENCODING 1080
SWIDTH 565 0
DWIDTH 9 0
BBX 7 8 1 0
BITMAP
C6
C6
CA
D6
D6
E6
C6
C6
ENDCHAR
STARTCHAR uni0439
ENCODING 1081
SWIDTH 565 0
DWIDTH 9 0
BBX 7 12 1 0
BITMAP
44
64
38
00
C6
C6
CA
D6
D6
E6
C6
C6
ENDCHAR
STARTCHAR uni043A
ENCODING 1082
SWIDTH 498 0
DWIDTH 8 0
BBX 7 8 1 0
BITMAP
C4
C8
D8
F0
D8
C8
C4
C6
ENDCHAR
STARTCHAR uni043B
ENCODING 1083
SWIDTH 531 0
DWIDTH 9 0
BBX 7 8 0 0
BITMAP
3E
22
22
22
22
22
62
C2
ENDCHAR
STARTCHAR uni043C
ENCODING 1084
SWIDTH 633 0
DWIDTH 10 0
BBX 8 8 1 0
BITMAP
C3
C3
A5
A5
D5
D9
D9
C1
ENDCHAR
STARTCHAR uni043D
ENCODING 1085
SWIDTH 562 0
DWIDTH 9 0
BBX 7 8 1 0
BITMAP
C6
C6
C6
FE
C6
C6
C6
C6
ENDCHAR
STARTCHAR uni043E
ENCODING 1086
SWIDTH 542 0
DWIDTH 9 0
BBX 7 8 1 0
BITMAP
78
C4
86
82
82
86
C4
78
ENDCHAR
STARTCHAR uni043F
ENCODING 1087
SWIDTH 553 0
DWIDTH 9 0
BBX 7 8 1 0
BITMAP
FE
C6
C6
C6
C6
C6
C6
C6
ENDCHAR
STARTCHAR uni0440
ENCODING 1088
SWIDTH 555 0
DWIDTH 9 0
BBX 7 11 1 -3
BITMAP
BC
C6
C2
C2
C2
C6
C4
F8
C0
C0
C0
ENDCHAR
STARTCHAR uni0441
ENCODING 1089
SWIDTH 456 0
DWIDTH 7 0
BBX 6 8 1 0
BITMAP
38
CC
80
80
80
80
C4
78
ENDCHAR
STARTCHAR uni0442
ENCODING 1090
SWIDTH 460 0
DWIDTH 7 0
BBX 7 8 0 0
BITMAP
FE
10
10
10
10
10
10
10
ENDCHAR
STARTCHAR uni0443
ENCODING 1091
SWIDTH 467 0
DWIDTH 7 0
BBX 7 11 0 -3
BITMAP
C2
42
44
24
24
38
18
18
10
30
60
ENDCHAR
STARTCHAR uni0444
ENCODING 1092
SWIDTH 734 0
DWIDTH 12 0
BBX 10 14 1 -3
BITMAP
0C00
0C00
0C00
7B80
CCC0
88C0
8840
8840
88C0
CC80
7B80
0C00
0C00
0C00
ENDCHAR
STARTCHAR uni0445
ENCODING 1093
SWIDTH 446 0
DWIDTH 7 0
BBX 7 8 0 0
BITMAP
C6
64
28
18
38
28
44
C6
ENDCHAR
STARTCHAR uni0446
ENCODING 1094
SWIDTH 554 0
DWIDTH 9 0
BBX 8 10 1 -2
BITMAP
C4
C4
C4
C4
C4
C4
C4
FF
03
02
ENDCHAR
STARTCHAR uni0447
ENCODING 1095
SWIDTH 512 0
DWIDTH 8 0
BBX 6 8 1 0
BITMAP
84
84
84
C4
7C
04
04
04
ENDCHAR
STARTCHAR uni0448
ENCODING 1096
SWIDTH 749 0
DWIDTH 12 0
BBX 10 8 1 0
BITMAP
CCC0
CCC0
CCC0
CCC0
CCC0
CCC0
CCC0
FFC0
ENDCHAR
STARTCHAR uni0449
ENCODING 1097
SWIDTH 757 0
DWIDTH 12 0
BBX 11 10 1 -2
BITMAP
CCC0
CCC0
CCC0
CCC0
CCC0
CCC0
CCC0
FFE0
0020
0020
ENDCHAR
STARTCHAR uni044A
ENCODING 1098
SWIDTH 596 0
DWIDTH 10 0
BBX 9 8 0 0
BITMAP
F000
1000
1000
1F00
1180
1080
1180
1F00
ENDCHAR
STARTCHAR uni044B
ENCODING 1099
SWIDTH 674 0
DWIDTH 11 0
BBX 8 8 1 0
BITMAP
C1
C1
C1
F9
CD
C5
CD
F9
ENDCHAR
STARTCHAR uni044C
ENCODING 1100
SWIDTH 491 0
DWIDTH 8 0
BBX 6 8 1 0
BITMAP
C0
C0
C0
F8
C4
C4
C4
F8
ENDCHAR
STARTCHAR uni044D
ENCODING 1101
SWIDTH 456 0
DWIDTH 7 0
BBX 7 8 0 0
BITMAP
78
8C
04
3E
06
04
8C
78
ENDCHAR
STARTCHAR uni044E
ENCODING 1102
SWIDTH 738 0
DWIDTH 12 0
BBX 10 8 1 0
BITMAP
C700
C880
C8C0
D840
F840
D8C0
C880
C700
ENDCHAR
STARTCHAR uni044F
ENCODING 1103
SWIDTH 514 0
DWIDTH 8 0
BBX 6 8 1 0
BITMAP
7C
C4
84
C4
7C
64
44
84
ENDCHAR
STARTCHAR uni0450
ENCODING 1104
SWIDTH 496 0
DWIDTH 8 0
BBX 6 12 1 0
BITMAP
40
20
10
00
78
C4
84
FC
80
80
C4
3C
ENDCHAR
STARTCHAR uni0451
ENCODING 1105
SWIDTH 496 0
DWIDTH 8 0
BBX 6 11 1 0
BITMAP
48
4C
00
78
C4
84
FC
80
80
C4
3C
ENDCHAR
STARTCHAR uni0452
ENCODING 1106
SWIDTH 548 0
DWIDTH 9 0
BBX 8 14 0 -3
BITMAP
60
FC
60
60
7E
63
63
61
61
61
63
03
02
0C
ENDCHAR
STARTCHAR uni0453
ENCODING 1107
SWIDTH 411 0
DWIDTH 7 0
BBX 5 12 1 0
BITMAP
08
10
20
00
F8
C0
C0
C0
C0
C0
C0
C0
ENDCHAR
STARTCHAR uni0454
ENCODING 1108
SWIDTH 456 0
DWIDTH 7 0
BBX 6 8 1 0
BITMAP
38
CC
80
F8
80
80
C4
78
ENDCHAR
STARTCHAR uni0455
ENCODING 1109
SWIDTH 419 0
DWIDTH 7 0
BBX 6 8 0 0
BITMAP
38
4C
40
70
0C
04
44
F8
ENDCHAR
STARTCHAR uni0456
ENCODING 1110
SWIDTH 246 0
DWIDTH 4 0
BBX 2 12 1 0
BITMAP
C0
C0
00
00
C0
C0
C0
C0
C0
C0
C0
C0
ENDCHAR
STARTCHAR uni0457
ENCODING 1111
SWIDTH 246 0
DWIDTH 4 0
BBX 4 11 0 0
BITMAP
90
90
00
60
60
60
60
60
60
60
60
ENDCHAR
STARTCHAR uni0458
ENCODING 1112
SWIDTH 247 0
DWIDTH 4 0
BBX 4 15 -1 -3
BITMAP
30
30
00
00
30
30
30
30
30
30
30
30
30
30
E0
ENDCHAR
STARTCHAR uni0459
ENCODING 1113
SWIDTH 735 0
DWIDTH 12 0
BBX 11 8 0 0
BITMAP
3E00
2200
2200
23C0
2260
2220
2260
C3C0
ENDCHAR
STARTCHAR uni045A
ENCODING 1114
SWIDTH 758 0
DWIDTH 12 0
BBX 10 8 1 0
BITMAP
C400
C400
C400
FF80
C440
C440
C440
C780
ENDCHAR
STARTCHAR uni045B
ENCODING 1115
SWIDTH 544 0
DWIDTH 9 0
BBX 8 11 0 0
BITMAP
60
FC
60
60
7E
62
63
63
63
63
63
ENDCHAR
STARTCHAR uni045C
ENCODING 1116
SWIDTH 498 0
DWIDTH 8 0
BBX 7 12 1 0
BITMAP
08
1C
10
00
C4
C8
D8
F0
D8
C8
C4
C6
ENDCHAR
STARTCHAR uni045D
ENCODING 1117
SWIDTH 565 0
DWIDTH 9 0
BBX 7 12 1 0
BITMAP
20
70
10
00
C6
C6
CA
D6
D6
E6
C6
C6
ENDCHAR
STARTCHAR uni045E
ENCODING 1118
SWIDTH 467 0
DWIDTH 7 0
BBX 7 15 0 -3
BITMAP
44
24
38
00
C2
42
44
24
24
38
18
18
10
30
60
ENDCHAR
STARTCHAR uni045F
ENCODING 1119
SWIDTH 558 0
DWIDTH 9 0
BBX 7 10 1 -2
BITMAP
C6
C6
C6
C6
C6
C6
C6
FE
10
10
ENDCHAR
STARTCHAR uni0462
ENCODING 1122
SWIDTH 614 0
DWIDTH 10 0
BBX 9 11 0 0
BITMAP
1000
1000
FF00
1000
1000
1F00
1180
1080
1080
1180
1F00
ENDCHAR
STARTCHAR uni0463
ENCODING 1123
SWIDTH 576 0
DWIDTH 9 0
BBX 9 10 0 0
BITMAP
1000
1000
FE00
1000
1000
1F00
1100
1180
1100
1F00
ENDCHAR
STARTCHAR uni0472
ENCODING 1138
SWIDTH 664 0
DWIDTH 11 0
BBX 9 10 1 0
BITMAP
3E00
6300
C100
8180
FF80
8180
8180
C100
6300
3C00
ENDCHAR
STARTCHAR uni0473
ENCODING 1139
SWIDTH 542 0
DWIDTH 9 0
BBX 7 8 1 0
BITMAP
78
C4
82
FE
82
86
C4
78
ENDCHAR
STARTCHAR uni0474
ENCODING 1140
SWIDTH 529 0
DWIDTH 8 0
BBX 9 10 0 0
BITMAP
C180
4300
4200
6200
2600
2400
2400
1400
1800
1800
ENDCHAR
STARTCHAR uni0475
ENCODING 1141
SWIDTH 477 0
DWIDTH 8 0
BBX 8 8 0 0
BITMAP
C3
46
44
64
2C
28
38
18
ENDCHAR
STARTCHAR uni0490
ENCODING 1168
SWIDTH 498 0
DWIDTH 8 0
BBX 7 14 1 0
BITMAP
06
06
06
06
FC
C0
C0
C0
C0
C0
C0
C0
C0
C0
ENDCHAR
STARTCHAR uni0491
ENCODING 1169
SWIDTH 416 0
DWIDTH 7 0
BBX 5 11 1 0
BITMAP
08
08
08
F8
C0
C0
C0
C0
C0
C0
C0
ENDCHAR
STARTCHAR uni0492
ENCODING 1170
SWIDTH 521 0
DWIDTH 8 0
BBX 7 10 1 0
BITMAP
7E
40
40
40
F8
40
40
40
40
40
ENDCHAR
STARTCHAR uni0493
ENCODING 1171
SWIDTH 424 0
DWIDTH 7 0
BBX 6 8 0 0
BITMAP
3C
20
20
20
F8
20
20
20
ENDCHAR
STARTCHAR uni0496
ENCODING 1174
SWIDTH 847 0
DWIDTH 14 0
BBX 13 13 0 -3
BITMAP
C218
2220
3260
1240
1FC0
1240
2260
2220
4230
C218
0008
0008
0008
ENDCHAR
STARTCHAR uni0497
ENCODING 1175
SWIDTH 718 0
DWIDTH 11 0
BBX 11 10 0 -2
BITMAP
C440
2480
2580
1F00
2480
2480
4440
C460
0020
0020
ENDCHAR
STARTCHAR uni0498
ENCODING 1176
SWIDTH 554 0
DWIDTH 9 0
BBX 7 13 1 -3
BITMAP
7C
86
06
04
38
06
02
02
86
7C
10
10
10
ENDCHAR
STARTCHAR uni0499
ENCODING 1177
SWIDTH 456 0
DWIDTH 7 0
BBX 6 10 1 -2
BITMAP
F0
88
08
78
08
0C
8C
F8
20
20
ENDCHAR
STARTCHAR uni049A
ENCODING 1178
SWIDTH 628 0
DWIDTH 10 0
BBX 9 13 1 -3
BITMAP
C300
C400
C400
C800
F800
C800
C400
C600
C200
C380
0180
0180
0180
ENDCHAR
STARTCHAR uni049B
ENCODING 1179
SWIDTH 536 0
DWIDTH 9 0
BBX 7 11 1 -3
BITMAP
C4
C8
D8
F0
D8
C8
C4
C6
02
02
02
ENDCHAR
STARTCHAR uni04A0
ENCODING 1184
SWIDTH 716 0
DWIDTH 11 0
BBX 11 10 0 0
BITMAP
F860
08C0
0880
0900
0F00
0900
0880
08C0
0840
0820
ENDCHAR
STARTCHAR uni04A1
ENCODING 1185
SWIDTH 614 0
DWIDTH 10 0
BBX 10 8 0 0
BITMAP
F180
1100
1200
1E00
1300
1100
1180
10C0
ENDCHAR
STARTCHAR uni04A2
ENCODING 1186
SWIDTH 661 0
DWIDTH 11 0
BBX 9 13 1 -3
BITMAP
C100
C100
C100
C100
FF00
C100
C100
C100
C100
C180
0080
0080
0080
ENDCHAR
STARTCHAR uni04A3
ENCODING 1187
SWIDTH 570 0
DWIDTH 9 0
BBX 8 10 1 -2
BITMAP
C6
C6
C6
FE
C6
C6
C6
C7
01
01
ENDCHAR
STARTCHAR uni04AA
ENCODING 1194
SWIDTH 571 0
DWIDTH 9 0
BBX 8 13 1 -3
BITMAP
3E
62
C0
80
80
80
80
C0
63
3E
08
08
08
ENDCHAR
STARTCHAR uni04AB
ENCODING 1195
SWIDTH 456 0
DWIDTH 7 0
BBX 6 10 1 -2
BITMAP
38
CC
80
80
80
80
C4
78
10
10
ENDCHAR
STARTCHAR uni04AE
ENCODING 1198
SWIDTH 476 0
DWIDTH 8 0
BBX 8 10 0 0
BITMAP
C3
42
64
24
38
18
10
10
10
10
ENDCHAR
STARTCHAR uni04AF
ENCODING 1199
SWIDTH 467 0
DWIDTH 7 0
BBX 7 11 0 -3
BITMAP
C2
46
44
64
2C
28
18
18
10
10
10
ENDCHAR
STARTCHAR uni04B0
ENCODING 1200
SWIDTH 476 0
DWIDTH 8 0
BBX 8 10 0 0
BITMAP
C3
42
64
24
38
18
7E
10
10
10
ENDCHAR
STARTCHAR uni04B1
ENCODING 1201
SWIDTH 467 0
DWIDTH 7 0
BBX 7 11 0 -3
BITMAP
C2
46
44
64
2C
28
18
7E
10
10
10
ENDCHAR
STARTCHAR uni04B2
ENCODING 1202
SWIDTH 551 0
DWIDTH 9 0
BBX 8 13 0 -3
BITMAP
C3
62
24
1C
18
18
34
24
42
43
81
01
01
ENDCHAR
STARTCHAR uni04B3
ENCODING 1203
SWIDTH 482 0
DWIDTH 8 0
BBX 7 10 0 -2
BITMAP
C6
64
28
18
38
28
44
46
82
02
ENDCHAR
STARTCHAR uni04B6
ENCODING 1206
SWIDTH 607 0
DWIDTH 10 0
BBX 8 13 1 -3
BITMAP
82
82
82
C2
7E
02
02
02
02
03
01
01
01
ENDCHAR
STARTCHAR uni04B7
ENCODING 1207
SWIDTH 520 0
DWIDTH 8 0
BBX 7 11 1 -3
BITMAP
84
84
84
C4
7C
04
04
06
02
02
02
ENDCHAR
STARTCHAR uni04BA
ENCODING 1210
SWIDTH 598 0
DWIDTH 10 0
BBX 8 10 1 0
BITMAP
C0
C0
C0
C0
FC
C2
C2
C3
C3
C3
ENDCHAR
STARTCHAR uni04BB
ENCODING 1211
SWIDTH 544 0
DWIDTH 9 0
BBX 7 11 1 0
BITMAP
C0
C0
C0
DC
E4
C6
C6
C6
C6
C6
C6
ENDCHAR
STARTCHAR uni04C0
ENCODING 1216
SWIDTH 263 0
DWIDTH 4 0
BBX 2 10 1 0
BITMAP
C0
C0
C0
C0
C0
C0
C0
C0
C0
C0
ENDCHAR
STARTCHAR uni04C1
ENCODING 1217
SWIDTH 805 0
DWIDTH 13 0
BBX 13 13 0 0
BITMAP
0880
0700
0000
C218
2220
3260
1240
1FC0
1240
2260
2220
4230
C218
ENDCHAR
STARTCHAR uni04C2
ENCODING 1218
SWIDTH 681 0
DWIDTH 11 0
BBX 11 12 0 0
BITMAP
1100
1300
0E00
0000
C440
2480
2580
1F00
2480
2480
4440
C460
ENDCHAR
STARTCHAR uni04CF
ENCODING 1231
SWIDTH 255 0
DWIDTH 4 0
BBX 2 11 1 0
BITMAP
C0
C0
C0
C0
C0
C0
C0
C0
C0
C0
40
ENDCHAR
STARTCHAR uni04D0
ENCODING 1232
SWIDTH 544 0
DWIDTH 9 0
BBX 9 13 0 0
BITMAP
2600
1C00
0000
1800
1C00
1400
3400
2600
2200
7E00
4300
4100
C180
ENDCHAR
STARTCHAR uni04D1
ENCODING 1233
SWIDTH 504 0
DWIDTH 8 0
BBX 6 12 1 0
BITMAP
44
48
38
00
78
8C
04
3C
C4
84
8C
74
ENDCHAR
STARTCHAR uni04D4
ENCODING 1236
SWIDTH 822 0
DWIDTH 13 0
BBX 12 10 0 0
BITMAP
07F0
0700
0F00
0B00
13E0
1300
3F00
6300
4300
C3F0
ENDCHAR
STARTCHAR uni04D5
ENCODING 1237
SWIDTH 785 0
DWIDTH 13 0
BBX 11 8 1 0
BITMAP
7BC0
8A60
0420
3FE0
C400
8400
8E40
73E0
ENDCHAR
STARTCHAR uni04D6
ENCODING 1238
SWIDTH 527 0
DWIDTH 8 0
BBX 7 13 1 0
BITMAP
44
38
00
FC
C0
C0
C0
FC
C0
C0
C0
C0
FE
ENDCHAR
STARTCHAR uni04D7
ENCODING 1239
SWIDTH 496 0
DWIDTH 8 0
BBX 6 12 1 0
BITMAP
44
48
38
00
78
C4
84
FC
80
80
C4
3C
ENDCHAR
STARTCHAR uni04D8
ENCODING 1240
SWIDTH 658 0
DWIDTH 11 0
BBX 9 10 1 0
BITMAP
3E00
4300
0100
0180
0180
FF80
8180
C100
6300
3C00
ENDCHAR
STARTCHAR uni04D9
ENCODING 1241
SWIDTH 496 0
DWIDTH 8 0
BBX 6 8 1 0
BITMAP
78
8C
04
04
FC
84
8C
78
ENDCHAR
STARTCHAR uni04E2
ENCODING 1250
SWIDTH 656 0
DWIDTH 11 0
BBX 8 12 1 0
BITMAP
3C
00
C3
C3
C5
C5
C9
D9
D1
E1
E1
C1
ENDCHAR
STARTCHAR uni04E3
ENCODING 1251
SWIDTH 565 0
DWIDTH 9 0
BBX 7 11 1 0
BITMAP
7C
00
00
C6
C6
CA
D6
D6
E6
C6
C6
ENDCHAR
STARTCHAR uni04E6
ENCODING 1254
SWIDTH 664 0
DWIDTH 11 0
BBX 9 13 1 0
BITMAP
2600
2600
0000
3C00
6300
C100
8180
8180
8180
8180
C100
6300
3C00
ENDCHAR
STARTCHAR uni04E7
ENCODING 1255
SWIDTH 542 0
DWIDTH 9 0
BBX 7 11 1 0
BITMAP
4C
6C
00
78
C4
86
82
82
86
C4
78
ENDCHAR
STARTCHAR uni04E8
ENCODING 1256
SWIDTH 664 0
DWIDTH 11 0
BBX 9 10 1 0
BITMAP
3E00
6300
C100
8180
FF80
8180
8180
C100
6300
3C00
ENDCHAR
STARTCHAR uni04E9
ENCODING 1257
SWIDTH 542 0
DWIDTH 9 0
BBX 7 8 1 0
BITMAP
78
C4
82
FE
82
86
C4
78
ENDCHAR
STARTCHAR uni04EE
ENCODING 1262
SWIDTH 514 0
DWIDTH 8 0
BBX 8 12 0 0
BITMAP
3C
00
C1
43
62
26
34
14
18
08
18
70
ENDCHAR
STARTCHAR uni04EF
ENCODING 1263
SWIDTH 467 0
DWIDTH 7 0
BBX 7 14 0 -3
BITMAP
3C
00
00
C2
42
44
24
24
38
18
18
10
30
60
ENDCHAR
STARTCHAR uni04F2
ENCODING 1266
SWIDTH 514 0
DWIDTH 8 0
BBX 8 14 0 0
BITMAP
0A
12
24
00
C1
43
62
26
34
14
18
08
18
70
ENDCHAR
STARTCHAR uni04F3
ENCODING 1267
SWIDTH 467 0
DWIDTH 7 0
BBX 7 15 0 -3
BITMAP
1A
14
24
00
C2
42
44
24
24
38
18
18
10
30
60
ENDCHAR
STARTCHAR a.sups
ENCODING 7491
SWIDTH 345 0
DWIDTH 6 0
BBX 4 6 1 6
BITMAP
E0
90
70
90
90
F0
ENDCHAR
STARTCHAR b.sups
ENCODING 7495
SWIDTH 374 0
DWIDTH 6 0
BBX 4 8 1 6
BITMAP
80
80
80
F0
90
90
90
F0
ENDCHAR
STARTCHAR d.sups
ENCODING 7496
SWIDTH 374 0
DWIDTH 6 0
BBX 4 8 1 6
BITMAP
10
10
F0
90
90
90
90
F0
ENDCHAR
STARTCHAR e.sups
ENCODING 7497
SWIDTH 336 0
DWIDTH 5 0
BBX 5 6 0 6
BITMAP
70
48
F8
80
40
78
ENDCHAR
STARTCHAR g.sups
ENCODING 7501
SWIDTH 343 0
DWIDTH 5 0
BBX 5 7 0 4
BITMAP
78
48
70
40
78
88
78
ENDCHAR
STARTCHAR k.sups
ENCODING 7503
SWIDTH 337 0
DWIDTH 5 0
BBX 4 8 1 6
BITMAP
80
80
80
90
A0
E0
A0
90
ENDCHAR
STARTCHAR m.sups
ENCODING 7504
SWIDTH 559 0
DWIDTH 9 0
BBX 7 6 1 6
BITMAP
FE
92
92
92
92
92
ENDCHAR
STARTCHAR o.sups
ENCODING 7506
SWIDTH 365 0
DWIDTH 6 0
BBX 5 6 0 6
BITMAP
70
48
48
C8
48
70
ENDCHAR
STARTCHAR p.sups
ENCODING 7510
SWIDTH 374 0
DWIDTH 6 0
BBX 4 7 1 4
BITMAP
F0
90
90
90
F0
80
80
ENDCHAR
STARTCHAR t.sups
ENCODING 7511
SWIDTH 232 0
DWIDTH 4 0
BBX 4 6 0 6
BITMAP
40
E0
40
40
40
70
ENDCHAR
STARTCHAR u.sups
ENCODING 7512
SWIDTH 370 0
DWIDTH 6 0
BBX 4 5 1 6
BITMAP
90
90
90
90
F0
ENDCHAR
STARTCHAR v.sups
ENCODING 7515
SWIDTH 321 0
DWIDTH 5 0
BBX 5 5 0 6
BITMAP
88
50
50
50
20
ENDCHAR
STARTCHAR c.sups
ENCODING 7580
SWIDTH 306 0
DWIDTH 5 0
BBX 5 6 0 6
BITMAP
30
48
40
C0
40
78
ENDCHAR
STARTCHAR f.sups
ENCODING 7584
SWIDTH 201 0
DWIDTH 3 0
BBX 4 8 0 6
BITMAP
70
40
40
E0
40
40
40
40
ENDCHAR
STARTCHAR z.sups
ENCODING 7611
SWIDTH 290 0
DWIDTH 5 0
BBX 4 5 0 6
BITMAP
70
10
20
40
F0
ENDCHAR
STARTCHAR uni1E06
ENCODING 7686
SWIDTH 588 0
DWIDTH 9 0
BBX 8 12 1 -2
BITMAP
FC
C6
C2
C6
FC
C2
C3
C3
C2
FC
00
3C
ENDCHAR
STARTCHAR uni1E07
ENCODING 7687
SWIDTH 553 0
DWIDTH 9 0
BBX 7 13 1 -2
BITMAP
C0
C0
C0
FC
C6
C2
C2
C2
C6
C4
B8
00
7C
ENDCHAR
STARTCHAR uni1E0C
ENCODING 7692
SWIDTH 615 0
DWIDTH 10 0
BBX 8 14 1 -4
BITMAP
FC
C6
C3
C3
C1
C1
C3
C3
C6
FC
00
00
18
18
ENDCHAR
STARTCHAR uni1E0D
ENCODING 7693
SWIDTH 555 0
DWIDTH 9 0
BBX 7 15 1 -4
BITMAP
06
06
06
7E
C6
86
86
86
86
C6
7E
00
00
18
18
ENDCHAR
STARTCHAR uni1E0E
ENCODING 7694
SWIDTH 615 0
DWIDTH 10 0
BBX 8 12 1 -2
BITMAP
FC
C6
C3
C3
C1
C1
C3
C3
C6
FC
00
3C
ENDCHAR
STARTCHAR uni1E0F
ENCODING 7695
SWIDTH 555 0
DWIDTH 9 0
BBX 7 13 1 -2
BITMAP
06
06
06
7E
C6
86
86
86
86
C6
7E
00
3C
ENDCHAR
STARTCHAR uni1E16
ENCODING 7702
SWIDTH 527 0
DWIDTH 8 0
BBX 7 15 1 0
BITMAP
08
10
00
7C
00
FC
C0
C0
C0
FC
C0
C0
C0
C0
FE
ENDCHAR
STARTCHAR uni1E17
ENCODING 7703
SWIDTH 496 0
DWIDTH 8 0
BBX 6 14 1 0
BITMAP
08
30
00
78
00
00
78
C4
84
FC
80
80
C4
3C
ENDCHAR
STARTCHAR uni1E20
ENCODING 7712
SWIDTH 617 0
DWIDTH 10 0
BBX 8 12 1 0
BITMAP
3E
00
3E
63
C0
80
80
8F
81
C1
63
3E
ENDCHAR
STARTCHAR uni1E21
ENCODING 7713
SWIDTH 504 0
DWIDTH 8 0
BBX 7 14 1 -3
BITMAP
78
00
00
7E
CC
84
CC
78
80
80
7C
82
86
78
ENDCHAR
STARTCHAR uni1E24
ENCODING 7716
SWIDTH 652 0
DWIDTH 10 0
BBX 8 14 1 -4
BITMAP
C1
C1
C1
C1
FF
C1
C1
C1
C1
C1
00
00
18
18
ENDCHAR
STARTCHAR uni1E25
ENCODING 7717
SWIDTH 544 0
DWIDTH 9 0
BBX 7 15 1 -4
BITMAP
C0
C0
C0
DC
E4
C6
C6
C6
C6
C6
C6
00
00
10
10
ENDCHAR
STARTCHAR uni1E2A
ENCODING 7722
SWIDTH 652 0
DWIDTH 10 0
BBX 8 14 1 -4
BITMAP
C1
C1
C1
C1
FF
C1
C1
C1
C1
C1
00
22
24
1C
ENDCHAR
STARTCHAR uni1E2B
ENCODING 7723
SWIDTH 544 0
DWIDTH 9 0
BBX 7 15 1 -4
BITMAP
C0
C0
C0
DC
E4
C6
C6
C6
C6
C6
C6
00
44
44
38
ENDCHAR
STARTCHAR uni1E32
ENCODING 7730
SWIDTH 579 0
DWIDTH 9 0
BBX 8 14 1 -4
BITMAP
C3
C4
CC
D8
F8
E8
C4
C6
C2
C3
00
00
18
18
ENDCHAR
STARTCHAR uni1E33
ENCODING 7731
SWIDTH 495 0
DWIDTH 8 0
BBX 7 15 1 -4
BITMAP
C0
C0
C0
C4
C8
D0
F0
F8
C8
CC
C4
02
00
10
30
ENDCHAR
STARTCHAR uni1E34
ENCODING 7732
SWIDTH 579 0
DWIDTH 9 0
BBX 8 12 1 -2
BITMAP
C3
C4
CC
D8
F8
E8
C4
C6
C2
C3
00
3C
ENDCHAR
STARTCHAR uni1E35
ENCODING 7733
SWIDTH 495 0
DWIDTH 8 0
BBX 7 13 1 -2
BITMAP
C0
C0
C0
C4
C8
D0
F0
F8
C8
CC
C4
02
78
ENDCHAR
STARTCHAR uni1E36
ENCODING 7734
SWIDTH 486 0
DWIDTH 8 0
BBX 6 14 1 -4
BITMAP
C0
C0
C0
C0
C0
C0
C0
C0
C0
FC
00
00
10
10
ENDCHAR
STARTCHAR uni1E37
ENCODING 7735
SWIDTH 255 0
DWIDTH 4 0
BBX 2 15 1 -4
BITMAP
C0
C0
C0
C0
C0
C0
C0
C0
C0
C0
40
00
00
40
40
ENDCHAR
STARTCHAR uni1E38
ENCODING 7736
SWIDTH 486 0
DWIDTH 8 0
BBX 7 16 0 -4
BITMAP
F0
00
60
60
60
60
60
60
60
60
60
7E
00
00
08
08
ENDCHAR
STARTCHAR uni1E39
ENCODING 7737
SWIDTH 255 0
DWIDTH 4 0
BBX 4 19 0 -4
BITMAP
F0
00
00
00
60
60
60
60
60
60
60
60
60
60
20
00
00
20
20
ENDCHAR
STARTCHAR uni1E3A
ENCODING 7738
SWIDTH 486 0
DWIDTH 8 0
BBX 6 12 1 -2
BITMAP
C0
C0
C0
C0
C0
C0
C0
C0
C0
FC
00
7C
ENDCHAR
STARTCHAR uni1E3B
ENCODING 7739
SWIDTH 255 0
DWIDTH 4 0
BBX 5 13 0 -2
BITMAP
60
60
60
60
60
60
60
60
60
60
20
00
F8
ENDCHAR
STARTCHAR uni1E3E
ENCODING 7742
SWIDTH 727 0
DWIDTH 12 0
BBX 9 14 1 0
BITMAP
0200
0400
0800
0000
C180
E180
E180
E280
D280
D280
DC80
CC80
C880
C080
ENDCHAR
STARTCHAR uni1E3F
ENCODING 7743
SWIDTH 829 0
DWIDTH 13 0
BBX 11 12 1 0
BITMAP
0100
0200
0400
0000
BDC0
C660
C420
C420
C420
C420
C420
C420
ENDCHAR
STARTCHAR uni1E40
ENCODING 7744
SWIDTH 727 0
DWIDTH 12 0
BBX 9 13 1 0
BITMAP
0C00
0C00
0000
C180
E180
E180
E280
D280
D280
DC80
CC80
C880
C080
ENDCHAR
STARTCHAR uni1E41
ENCODING 7745
SWIDTH 829 0
DWIDTH 13 0
BBX 11 11 1 0
BITMAP
0400
0600
0000
BDC0
C660
C420
C420
C420
C420
C420
C420
ENDCHAR
STARTCHAR uni1E42
ENCODING 7746
SWIDTH 727 0
DWIDTH 12 0
BBX 9 14 1 -4
BITMAP
C180
E180
E180
E280
D280
D280
DC80
CC80
C880
C080
0000
0000
0C00
0C00
ENDCHAR
STARTCHAR uni1E43
ENCODING 7747
SWIDTH 829 0
DWIDTH 13 0
BBX 11 12 1 -4
BITMAP
BDC0
C660
C420
C420
C420
C420
C420
C420
0000
0000
0600
0600
ENDCHAR
STARTCHAR uni1E44
ENCODING 7748
SWIDTH 647 0
DWIDTH 10 0
BBX 8 13 1 0
BITMAP
18
18
00
C1
E1
E1
D1
D9
C9
CD
C5
C3
C3
ENDCHAR
STARTCHAR uni1E45
ENCODING 7749
SWIDTH 547 0
DWIDTH 9 0
BBX 7 11 1 0
BITMAP
10
18
00
BC
C4
C6
C6
C6
C6
C6
C6
ENDCHAR
STARTCHAR uni1E46
ENCODING 7750
SWIDTH 647 0
DWIDTH 10 0
BBX 8 14 1 -4
BITMAP
C1
E1
E1
D1
D9
C9
CD
C5
C3
C3
00
00
18
18
ENDCHAR
STARTCHAR uni1E47
ENCODING 7751
SWIDTH 547 0
DWIDTH 9 0
BBX 7 12 1 -4
BITMAP
BC
C4
C6
C6
C6
C6
C6
C6
00
00
10
10
ENDCHAR
STARTCHAR uni1E48
ENCODING 7752
SWIDTH 647 0
DWIDTH 10 0
BBX 8 12 1 -2
BITMAP
C1
E1
E1
D1
D9
C9
CD
C5
C3
C3
00
3C
ENDCHAR
STARTCHAR uni1E49
ENCODING 7753
SWIDTH 547 0
DWIDTH 9 0
BBX 7 10 1 -2
BITMAP
BC
C4
C6
C6
C6
C6
C6
C6
00
7C
ENDCHAR
STARTCHAR uni1E52
ENCODING 7762
SWIDTH 664 0
DWIDTH 11 0
BBX 9 15 1 0
BITMAP
0400
0800
0000
3C00
0000
3C00
6300
C100
8180
8180
8180
8180
C100
6300
3C00
ENDCHAR
STARTCHAR uni1E53
ENCODING 7763
SWIDTH 542 0
DWIDTH 9 0
BBX 7 14 1 0
BITMAP
08
30
00
78
00
00
78
C4
86
82
82
86
C4
78
ENDCHAR
STARTCHAR uni1E58
ENCODING 7768
SWIDTH 569 0
DWIDTH 9 0
BBX 8 13 1 0
BITMAP
10
18
00
FC
C2
C2
C2
C6
F8
CC
C4
C6
C3
ENDCHAR
STARTCHAR uni1E59
ENCODING 7769
SWIDTH 347 0
DWIDTH 6 0
BBX 5 11 1 0
BITMAP
20
20
00
B8
C0
C0
C0
C0
C0
C0
C0
ENDCHAR
STARTCHAR uni1E5A
ENCODING 7770
SWIDTH 569 0
DWIDTH 9 0
BBX 8 14 1 -4
BITMAP
FC
C2
C2
C2
C6
F8
CC
C4
C6
C2
01
00
18
18
ENDCHAR
STARTCHAR uni1E5B
ENCODING 7771
SWIDTH 347 0
DWIDTH 6 0
BBX 5 12 1 -4
BITMAP
B8
C0
C0
C0
C0
C0
C0
C0
00
00
C0
C0
ENDCHAR
STARTCHAR uni1E5C
ENCODING 7772
SWIDTH 569 0
DWIDTH 9 0
BBX 8 16 1 -4
BITMAP
7C
00
FC
C2
C2
C2
C6
F8
CC
C4
C6
C2
01
00
18
18
ENDCHAR
STARTCHAR uni1E5D
ENCODING 7773
SWIDTH 347 0
DWIDTH 6 0
BBX 5 15 1 -4
BITMAP
F8
00
00
B8
C0
C0
C0
C0
C0
C0
C0
00
00
C0
C0
ENDCHAR
STARTCHAR uni1E5E
ENCODING 7774
SWIDTH 569 0
DWIDTH 9 0
BBX 8 12 1 -2
BITMAP
FC
C2
C2
C2
C6
F8
CC
C4
C6
C2
01
3C
ENDCHAR
STARTCHAR uni1E5F
ENCODING 7775
SWIDTH 347 0
DWIDTH 6 0
BBX 6 10 0 -2
BITMAP
5C
60
60
60
60
60
60
60
00
F0
ENDCHAR
STARTCHAR uni1E60
ENCODING 7776
SWIDTH 534 0
DWIDTH 9 0
BBX 7 13 1 0
BITMAP
10
10
00
7C
C6
C0
C0
70
1C
06
02
C6
7C
ENDCHAR
STARTCHAR uni1E61
ENCODING 7777
SWIDTH 419 0
DWIDTH 7 0
BBX 6 11 0 0
BITMAP
10
10
00
38
4C
40
70
0C
04
44
F8
ENDCHAR
STARTCHAR uni1E62
ENCODING 7778
SWIDTH 534 0
DWIDTH 9 0
BBX 7 14 1 -4
BITMAP
7C
C6
C0
C0
70
1C
06
02
C6
7C
00
00
10
10
ENDCHAR
STARTCHAR uni1E63
ENCODING 7779
SWIDTH 419 0
DWIDTH 7 0
BBX 6 12 0 -4
BITMAP
38
4C
40
70
0C
04
44
F8
00
00
10
10
ENDCHAR
STARTCHAR uni1E6C
ENCODING 7788
SWIDTH 536 0
DWIDTH 9 0
BBX 8 14 0 -4
BITMAP
FF
08
08
08
08
08
08
08
08
08
00
00
08
18
ENDCHAR
STARTCHAR uni1E6D
ENCODING 7789
SWIDTH 338 0
DWIDTH 5 0
BBX 5 14 0 -4
BITMAP
20
20
F8
20
20
20
20
20
20
38
00
00
10
10
ENDCHAR
STARTCHAR uni1E6E
ENCODING 7790
SWIDTH 536 0
DWIDTH 9 0
BBX 8 12 0 -2
BITMAP
FF
08
08
08
08
08
08
08
08
08
00
3C
ENDCHAR
STARTCHAR uni1E6F
ENCODING 7791
SWIDTH 338 0
DWIDTH 5 0
BBX 6 12 0 -2
BITMAP
20
20
F8
20
20
20
20
20
20
38
00
7C
ENDCHAR
STARTCHAR Wgrave
ENCODING 7808
SWIDTH 786 0
DWIDTH 13 0
BBX 12 14 0 0
BITMAP
0800
0400
0200
0000
C210
4610
4730
4520
6520
2920
29A0
28E0
28C0
30C0
ENDCHAR
STARTCHAR wgrave
ENCODING 7809
SWIDTH 718 0
DWIDTH 11 0
BBX 11 12 0 0
BITMAP
0800
1C00
0600
0000
C620
4660
4A40
6A40
2940
2940
3180
3180
ENDCHAR
STARTCHAR Wacute
ENCODING 7810
SWIDTH 786 0
DWIDTH 13 0
BBX 12 14 0 0
BITMAP
0100
0300
0600
0000
C210
4610
4730
4520
6520
2920
29A0
28E0
28C0
30C0
ENDCHAR
STARTCHAR wacute
ENCODING 7811
SWIDTH 718 0
DWIDTH 11 0
BBX 11 12 0 0
BITMAP
0100
0200
0400
0000
C620
4660
4A40
6A40
2940
2940
3180
3180
ENDCHAR
STARTCHAR Wdieresis
ENCODING 7812
SWIDTH 786 0
DWIDTH 13 0
BBX 12 13 0 0
BITMAP
0980
0980
0000
C210
4610
4730
4520
6520
2920
29A0
28E0
28C0
30C0
ENDCHAR
STARTCHAR wdieresis
ENCODING 7813
SWIDTH 718 0
DWIDTH 11 0
BBX 11 11 0 0
BITMAP
0900
1900
0000
C620
4660
4A40
6A40
2940
2940
3180
3180
ENDCHAR
STARTCHAR uni1E8E
ENCODING 7822
SWIDTH 476 0
DWIDTH 8 0
BBX 8 13 0 0
BITMAP
18
18
00
C3
42
64
24
38
18
10
10
10
10
ENDCHAR
STARTCHAR uni1E8F
ENCODING 7823
SWIDTH 467 0
DWIDTH 7 0
BBX 7 14 0 -3
BITMAP
18
18
00
C2
42
44
24
24
38
18
18
10
30
60
ENDCHAR
STARTCHAR uni1E92
ENCODING 7826
SWIDTH 539 0
DWIDTH 9 0
BBX 7 14 1 -4
BITMAP
FE
06
0C
08
10
30
60
40
C0
FE
00
00
10
10
ENDCHAR
STARTCHAR uni1E93
ENCODING 7827
SWIDTH 425 0
DWIDTH 7 0
BBX 6 12 0 -4
BITMAP
7C
0C
08
18
30
20
40
FC
00
00
10
18
ENDCHAR
STARTCHAR uni1E94
ENCODING 7828
SWIDTH 539 0
DWIDTH 9 0
BBX 7 12 1 -2
BITMAP
FE
06
0C
08
10
30
60
40
C0
FE
00
7C
ENDCHAR
STARTCHAR uni1E95
ENCODING 7829
SWIDTH 425 0
DWIDTH 7 0
BBX 6 10 0 -2
BITMAP
7C
0C
08
18
30
20
40
FC
00
3C
ENDCHAR
STARTCHAR uni1E96
ENCODING 7830
SWIDTH 544 0
DWIDTH 9 0
BBX 7 13 1 -2
BITMAP
C0
C0
C0
DC
E4
C6
C6
C6
C6
C6
C6
00
7C
ENDCHAR
STARTCHAR uni1E97
ENCODING 7831
SWIDTH 338 0
DWIDTH 5 0
BBX 5 13 0 0
BITMAP
98
D8
00
20
20
F8
20
20
20
20
20
20
38
ENDCHAR
STARTCHAR uni1E9E
ENCODING 7838
SWIDTH 667 0
DWIDTH 11 0
BBX 9 10 1 0
BITMAP
3E00
6300
4300
C600
CE00
C300
C180
C080
D180
CF00
ENDCHAR
STARTCHAR uni1EA0
ENCODING 7840
SWIDTH 544 0
DWIDTH 9 0
BBX 9 14 0 -4
BITMAP
1800
1C00
1400
3400
2600
2200
7E00
4300
4100
C100
0080
0000
0800
1800
ENDCHAR
STARTCHAR uni1EA1
ENCODING 7841
SWIDTH 504 0
DWIDTH 8 0
BBX 6 12 1 -4
BITMAP
78
8C
04
3C
C4
84
8C
74
00
00
30
30
ENDCHAR
STARTCHAR uni1EA2
ENCODING 7842
SWIDTH 544 0
DWIDTH 9 0
BBX 9 14 0 0
BITMAP
1800
0400
0800
0000
1800
1C00
1400
3400
2600
2200
7E00
4300
4100
C180
ENDCHAR
STARTCHAR uni1EA3
ENCODING 7843
SWIDTH 504 0
DWIDTH 8 0
BBX 6 13 1 0
BITMAP
30
10
10
10
00
78
8C
04
3C
C4
84
8C
74
ENDCHAR
STARTCHAR uni1EA4
ENCODING 7844
SWIDTH 544 0
DWIDTH 9 0
BBX 9 14 0 0
BITMAP
0100
1A00
3400
0000
1800
1C00
1400
3400
2600
2200
7E00
4300
4100
C180
ENDCHAR
STARTCHAR uni1EA5
ENCODING 7845
SWIDTH 504 0
DWIDTH 8 0
BBX 7 12 1 0
BITMAP
02
34
68
48
78
8C
04
3C
C4
84
8C
74
ENDCHAR
STARTCHAR uni1EA6
ENCODING 7846
SWIDTH 544 0
DWIDTH 9 0
BBX 9 14 0 0
BITMAP
4000
3800
3400
0000
1800
1C00
1400
3400
2600
2200
7E00
4300
4100
C180
ENDCHAR
STARTCHAR uni1EA7
ENCODING 7847
SWIDTH 504 0
DWIDTH 8 0
BBX 7 12 0 0
BITMAP
C0
78
34
24
3C
46
02
1E
62
42
46
3A
ENDCHAR
STARTCHAR uni1EA8
ENCODING 7848
SWIDTH 544 0
DWIDTH 9 0
BBX 9 15 0 0
BITMAP
0200
0100
1A00
3400
0000
1800
1C00
1400
3400
2600
2200
7E00
4300
4100
C180
ENDCHAR
STARTCHAR uni1EA9
ENCODING 7849
SWIDTH 504 0
DWIDTH 8 0
BBX 7 13 1 0
BITMAP
04
0A
34
68
48
78
8C
04
3C
C4
84
8C
74
ENDCHAR
STARTCHAR uni1EAA
ENCODING 7850
SWIDTH 544 0
DWIDTH 9 0
BBX 9 16 0 0
BITMAP
3200
2C00
0000
1800
3400
0000
1800
1C00
1400
3400
2600
2200
7E00
4300
4100
C180
ENDCHAR
STARTCHAR uni1EAB
ENCODING 7851
SWIDTH 504 0
DWIDTH 8 0
BBX 6 14 1 0
BITMAP
68
58
00
30
68
48
78
8C
04
3C
C4
84
8C
74
ENDCHAR
STARTCHAR uni1EAC
ENCODING 7852
SWIDTH 544 0
DWIDTH 9 0
BBX 9 17 0 -4
BITMAP
1C00
2600
0000
1800
1C00
1400
3400
2600
2200
7E00
4300
4100
C100
0080
0000
0800
1800
ENDCHAR
STARTCHAR uni1EAD
ENCODING 7853
SWIDTH 504 0
DWIDTH 8 0
BBX 6 16 1 -4
BITMAP
30
68
44
00
78
8C
04
3C
C4
84
8C
74
00
00
30
30
ENDCHAR
STARTCHAR uni1EAE
ENCODING 7854
SWIDTH 544 0
DWIDTH 9 0
BBX 9 15 0 0
BITMAP
0400
0800
2200
1C00
0000
1800
1C00
1400
3400
2600
2200
7E00
4300
4100
C180
ENDCHAR
STARTCHAR uni1EAF
ENCODING 7855
SWIDTH 504 0
DWIDTH 8 0
BBX 6 13 1 0
BITMAP
18
54
68
38
00
78
8C
04
3C
C4
84
8C
74
ENDCHAR
STARTCHAR uni1EB0
ENCODING 7856
SWIDTH 544 0
DWIDTH 9 0
BBX 9 15 0 0
BITMAP
1000
0800
2200
1C00
0000
1800
1C00
1400
3400
2600
2200
7E00
4300
4100
C180
ENDCHAR
STARTCHAR uni1EB1
ENCODING 7857
SWIDTH 504 0
DWIDTH 8 0
BBX 6 13 1 0
BITMAP
20
54
48
38
00
78
8C
04
3C
C4
84
8C
74
ENDCHAR
STARTCHAR uni1EB2
ENCODING 7858
SWIDTH 544 0
DWIDTH 9 0
BBX 9 16 0 0
BITMAP
1800
0800
0800
2200
1C00
0000
1800
1C00
1400
3400
2600
2200
7E00
4300
4100
C180
ENDCHAR
STARTCHAR uni1EB3
ENCODING 7859
SWIDTH 504 0
DWIDTH 8 0
BBX 6 14 1 0
BITMAP
30
10
54
48
38
00
78
8C
04
3C
C4
84
8C
74
ENDCHAR
STARTCHAR uni1EB4
ENCODING 7860
SWIDTH 544 0
DWIDTH 9 0
BBX 9 16 0 0
BITMAP
3200
2C00
0000
2200
1C00
0000
1800
1C00
1400
3400
2600
2200
7E00
4300
4100
C180
ENDCHAR
STARTCHAR uni1EB5
ENCODING 7861
SWIDTH 504 0
DWIDTH 8 0
BBX 6 14 1 0
BITMAP
68
58
00
48
38
00
78
8C
04
3C
C4
84
8C
74
ENDCHAR
STARTCHAR uni1EB6
ENCODING 7862
SWIDTH 544 0
DWIDTH 9 0
BBX 9 17 0 -4
BITMAP
2200
1C00
0000
1800
1C00
1400
3400
2600
2200
7E00
4300
4100
C100
0080
0000
0800
1800
ENDCHAR
STARTCHAR uni1EB7
ENCODING 7863
SWIDTH 504 0
DWIDTH 8 0
BBX 6 16 1 -4
BITMAP
44
48
38
00
78
8C
04
3C
C4
84
8C
74
00
00
30
30
ENDCHAR
STARTCHAR uni1EB8
ENCODING 7864
SWIDTH 527 0
DWIDTH 8 0
BBX 7 14 1 -4
BITMAP
FC
C0
C0
C0
FC
C0
C0
C0
C0
FE
00
00
10
18
ENDCHAR
STARTCHAR uni1EB9
ENCODING 7865
SWIDTH 496 0
DWIDTH 8 0
BBX 6 12 1 -4
BITMAP
78
C4
84
FC
80
80
C4
3C
00
00
30
30
ENDCHAR
STARTCHAR uni1EBA
ENCODING 7866
SWIDTH 527 0
DWIDTH 8 0
BBX 7 14 1 0
BITMAP
10
28
10
00
FC
C0
C0
C0
FC
C0
C0
C0
C0
FE
ENDCHAR
STARTCHAR uni1EBB
ENCODING 7867
SWIDTH 496 0
DWIDTH 8 0
BBX 6 13 1 0
BITMAP
30
10
18
10
00
78
C4
84
FC
80
80
C4
3C
ENDCHAR
STARTCHAR uni1EBC
ENCODING 7868
SWIDTH 527 0
DWIDTH 8 0
BBX 7 13 1 0
BITMAP
74
5C
00
FC
C0
C0
C0
FC
C0
C0
C0
C0
FE
ENDCHAR
STARTCHAR uni1EBD
ENCODING 7869
SWIDTH 496 0
DWIDTH 8 0
BBX 6 11 1 0
BITMAP
74
98
00
78
C4
84
FC
80
80
C4
3C
ENDCHAR
STARTCHAR uni1EBE
ENCODING 7870
SWIDTH 527 0
DWIDTH 8 0
BBX 7 14 1 0
BITMAP
02
3C
2C
40
FC
C0
C0
C0
FC
C0
C0
C0
C0
FE
ENDCHAR
STARTCHAR uni1EBF
ENCODING 7871
SWIDTH 496 0
DWIDTH 8 0
BBX 7 12 1 0
BITMAP
02
34
68
48
78
C4
84
FC
80
80
C4
3C
ENDCHAR
STARTCHAR uni1EC0
ENCODING 7872
SWIDTH 527 0
DWIDTH 8 0
BBX 7 14 1 0
BITMAP
80
78
2C
40
FC
C0
C0
C0
FC
C0
C0
C0
C0
FE
ENDCHAR
STARTCHAR uni1EC1
ENCODING 7873
SWIDTH 496 0
DWIDTH 8 0
BBX 7 12 0 0
BITMAP
C0
78
34
24
3C
62
42
7E
40
40
62
1E
ENDCHAR
STARTCHAR uni1EC2
ENCODING 7874
SWIDTH 527 0
DWIDTH 8 0
BBX 7 15 1 0
BITMAP
04
02
3C
2C
40
FC
C0
C0
C0
FC
C0
C0
C0
C0
FE
ENDCHAR
STARTCHAR uni1EC3
ENCODING 7875
SWIDTH 496 0
DWIDTH 8 0
BBX 7 13 1 0
BITMAP
04
02
34
68
48
78
C4
84
FC
80
80
C4
3C
ENDCHAR
STARTCHAR uni1EC4
ENCODING 7876
SWIDTH 527 0
DWIDTH 8 0
BBX 7 16 1 0
BITMAP
34
5C
00
38
2C
40
FC
C0
C0
C0
FC
C0
C0
C0
C0
FE
ENDCHAR
STARTCHAR uni1EC5
ENCODING 7877
SWIDTH 496 0
DWIDTH 8 0
BBX 6 14 1 0
BITMAP
68
58
00
30
68
48
78
C4
84
FC
80
80
C4
3C
ENDCHAR
STARTCHAR uni1EC6
ENCODING 7878
SWIDTH 527 0
DWIDTH 8 0
BBX 7 17 1 -4
BITMAP
38
44
00
FC
C0
C0
C0
FC
C0
C0
C0
C0
FE
00
00
10
18
ENDCHAR
STARTCHAR uni1EC7
ENCODING 7879
SWIDTH 496 0
DWIDTH 8 0
BBX 6 16 1 -4
BITMAP
30
68
44
00
78
C4
84
FC
80
80
C4
3C
00
00
30
30
ENDCHAR
STARTCHAR uni1EC8
ENCODING 7880
SWIDTH 263 0
DWIDTH 4 0
BBX 2 14 1 0
BITMAP
C0
40
C0
00
C0
C0
C0
C0
C0
C0
C0
C0
C0
C0
ENDCHAR
STARTCHAR uni1EC9
ENCODING 7881
SWIDTH 246 0
DWIDTH 4 0
BBX 2 13 1 0
BITMAP
C0
40
40
C0
00
C0
C0
C0
C0
C0
C0
C0
C0
ENDCHAR
STARTCHAR uni1ECA
ENCODING 7882
SWIDTH 263 0
DWIDTH 4 0
BBX 2 14 1 -4
BITMAP
C0
C0
C0
C0
C0
C0
C0
C0
C0
C0
00
00
C0
C0
ENDCHAR
STARTCHAR uni1ECB
ENCODING 7883
SWIDTH 246 0
DWIDTH 4 0
BBX 2 16 1 -4
BITMAP
C0
C0
00
00
C0
C0
C0
C0
C0
C0
C0
C0
00
00
C0
C0
ENDCHAR
STARTCHAR uni1ECC
ENCODING 7884
SWIDTH 664 0
DWIDTH 11 0
BBX 9 14 1 -4
BITMAP
3C00
6300
C100
8180
8180
8180
8180
C100
6300
3C00
0000
0000
0800
1800
ENDCHAR
STARTCHAR uni1ECD
ENCODING 7885
SWIDTH 542 0
DWIDTH 9 0
BBX 7 12 1 -4
BITMAP
78
C4
86
82
82
86
C4
78
00
00
10
30
ENDCHAR
STARTCHAR uni1ECE
ENCODING 7886
SWIDTH 664 0
DWIDTH 11 0
BBX 9 14 1 0
BITMAP
1800
0400
0800
0000
3C00
6300
C100
8180
8180
8180
8180
C100
6300
3C00
ENDCHAR
STARTCHAR uni1ECF
ENCODING 7887
SWIDTH 542 0
DWIDTH 9 0
BBX 7 13 1 0
BITMAP
30
18
18
10
00
78
C4
86
82
82
86
C4
78
ENDCHAR
STARTCHAR uni1ED0
ENCODING 7888
SWIDTH 664 0
DWIDTH 11 0
BBX 9 14 1 0
BITMAP
0100
1A00
3400
0000
3C00
6300
C100
8180
8180
8180
8180
C100
6300
3C00
ENDCHAR
STARTCHAR uni1ED1
ENCODING 7889
SWIDTH 542 0
DWIDTH 9 0
BBX 7 12 1 0
BITMAP
02
34
28
48
78
C4
86
82
82
86
C4
78
ENDCHAR
STARTCHAR uni1ED2
ENCODING 7890
SWIDTH 664 0
DWIDTH 11 0
BBX 9 14 1 0
BITMAP
4000
3800
3400
0000
3C00
6300
C100
8180
8180
8180
8180
C100
6300
3C00
ENDCHAR
STARTCHAR uni1ED3
ENCODING 7891
SWIDTH 542 0
DWIDTH 9 0
BBX 8 12 0 0
BITMAP
C0
38
14
24
3C
62
43
41
41
43
62
3C
ENDCHAR
STARTCHAR uni1ED4
ENCODING 7892
SWIDTH 664 0
DWIDTH 11 0
BBX 9 15 1 0
BITMAP
0200
0100
1A00
3400
0000
3C00
6300
C100
8180
8180
8180
8180
C100
6300
3C00
ENDCHAR
STARTCHAR uni1ED5
ENCODING 7893
SWIDTH 542 0
DWIDTH 9 0
BBX 7 13 1 0
BITMAP
04
02
34
28
48
78
C4
86
82
82
86
C4
78
ENDCHAR
STARTCHAR uni1ED6
ENCODING 7894
SWIDTH 664 0
DWIDTH 11 0
BBX 9 16 1 0
BITMAP
3200
2C00
0000
1800
3400
0000
3C00
6300
C100
8180
8180
8180
8180
C100
6300
3C00
ENDCHAR
STARTCHAR uni1ED7
ENCODING 7895
SWIDTH 542 0
DWIDTH 9 0
BBX 7 14 1 0
BITMAP
24
58
00
30
28
48
78
C4
86
82
82
86
C4
78
ENDCHAR
STARTCHAR uni1ED8
ENCODING 7896
SWIDTH 664 0
DWIDTH 11 0
BBX 9 17 1 -4
BITMAP
1C00
2600
0000
3C00
6300
C100
8180
8180
8180
8180
C100
6300
3C00
0000
0000
0800
1800
ENDCHAR
STARTCHAR uni1ED9
ENCODING 7897
SWIDTH 542 0
DWIDTH 9 0
BBX 7 16 1 -4
BITMAP
30
28
44
00
78
C4
86
82
82
86
C4
78
00
00
10
30
ENDCHAR
STARTCHAR uni1EDA
ENCODING 7898
SWIDTH 664 0
DWIDTH 11 0
BBX 9 14 1 0
BITMAP
0400
0C00
1880
0080
3F00
6300
C100
8180
8180
8180
8180
C100
6300
3C00
ENDCHAR
STARTCHAR uni1EDB
ENCODING 7899
SWIDTH 542 0
DWIDTH 9 0
BBX 7 12 1 0
BITMAP
08
1E
32
02
7C
C4
86
82
82
86
C4
78
ENDCHAR
STARTCHAR uni1EDC
ENCODING 7900
SWIDTH 664 0
DWIDTH 11 0
BBX 9 14 1 0
BITMAP
2000
1000
0880
0080
3F00
6300
C100
8180
8180
8180
8180
C100
6300
3C00
ENDCHAR
STARTCHAR uni1EDD
ENCODING 7901
SWIDTH 542 0
DWIDTH 9 0
BBX 7 12 1 0
BITMAP
40
22
12
02
7C
C4
86
82
82
86
C4
78
ENDCHAR
STARTCHAR uni1EDE
ENCODING 7902
SWIDTH 664 0
DWIDTH 11 0
BBX 9 14 1 0
BITMAP
1800
0400
0880
0080
3F00
6300
C100
8180
8180
8180
8180
C100
6300
3C00
ENDCHAR
STARTCHAR uni1EDF
ENCODING 7903
SWIDTH 542 0
DWIDTH 9 0
BBX 7 13 1 0
BITMAP
30
18
1A
12
02
7C
C4
86
82
82
86
C4
78
ENDCHAR
STARTCHAR uni1EE0
ENCODING 7904
SWIDTH 664 0
DWIDTH 11 0
BBX 9 13 1 0
BITMAP
3200
4E80
0080
3F00
6300
C100
8180
8180
8180
8180
C100
6300
3C00
ENDCHAR
STARTCHAR uni1EE1
ENCODING 7905
SWIDTH 542 0
DWIDTH 9 0
BBX 7 11 1 0
BITMAP
66
9A
02
7C
C4
86
82
82
86
C4
78
ENDCHAR
STARTCHAR uni1EE2
ENCODING 7906
SWIDTH 664 0
DWIDTH 11 0
BBX 9 16 1 -4
BITMAP
0080
0080
3F00
6300
C100
8180
8180
8180
8180
C100
6300
3C00
0000
0000
0800
1800
ENDCHAR
STARTCHAR uni1EE3
ENCODING 7907
SWIDTH 542 0
DWIDTH 9 0
BBX 7 15 1 -4
BITMAP
02
02
02
7C
C4
86
82
82
86
C4
78
00
00
10
30
ENDCHAR
STARTCHAR uni1EE4
ENCODING 7908
SWIDTH 645 0
DWIDTH 10 0
BBX 8 14 1 -4
BITMAP
C1
C1
C1
C1
C1
C1
C1
43
62
3C
00
00
18
18
ENDCHAR
STARTCHAR uni1EE5
ENCODING 7909
SWIDTH 544 0
DWIDTH 9 0
BBX 6 12 1 -4
BITMAP
C4
C4
C4
C4
C4
C4
CC
74
00
00
10
18
ENDCHAR
STARTCHAR uni1EE6
ENCODING 7910
SWIDTH 645 0
DWIDTH 10 0
BBX 8 14 1 0
BITMAP
18
08
18
00
C1
C1
C1
C1
C1
C1
C1
43
62
3C
ENDCHAR
STARTCHAR uni1EE7
ENCODING 7911
SWIDTH 544 0
DWIDTH 9 0
BBX 6 13 1 0
BITMAP
30
18
18
10
00
C4
C4
C4
C4
C4
C4
CC
74
ENDCHAR
STARTCHAR uni1EE8
ENCODING 7912
SWIDTH 659 0
DWIDTH 11 0
BBX 10 14 1 0
BITMAP
0400
0C40
10C0
00C0
C180
C100
C100
C100
C100
C100
C100
4300
6200
3C00
ENDCHAR
STARTCHAR uni1EE9
ENCODING 7913
SWIDTH 544 0
DWIDTH 9 0
BBX 8 12 1 0
BITMAP
08
1D
31
03
C6
C4
C4
C4
C4
C4
CC
74
ENDCHAR
STARTCHAR uni1EEA
ENCODING 7914
SWIDTH 659 0
DWIDTH 11 0
BBX 10 14 1 0
BITMAP
2000
1040
08C0
00C0
C180
C100
C100
C100
C100
C100
C100
4300
6200
3C00
ENDCHAR
STARTCHAR uni1EEB
ENCODING 7915
SWIDTH 544 0
DWIDTH 9 0
BBX 8 12 1 0
BITMAP
40
21
11
03
C6
C4
C4
C4
C4
C4
CC
74
ENDCHAR
STARTCHAR uni1EEC
ENCODING 7916
SWIDTH 659 0
DWIDTH 11 0
BBX 10 14 1 0
BITMAP
1800
0840
18C0
00C0
C180
C100
C100
C100
C100
C100
C100
4300
6200
3C00
ENDCHAR
STARTCHAR uni1EED
ENCODING 7917
SWIDTH 544 0
DWIDTH 9 0
BBX 8 13 1 0
BITMAP
30
10
19
11
03
C6
C4
C4
C4
C4
C4
CC
74
ENDCHAR
STARTCHAR uni1EEE
ENCODING 7918
SWIDTH 659 0
DWIDTH 11 0
BBX 10 13 1 0
BITMAP
3240
4CC0
00C0
C180
C100
C100
C100
C100
C100
C100
4300
6200
3C00
ENDCHAR
STARTCHAR uni1EEF
ENCODING 7919
SWIDTH 544 0
DWIDTH 9 0
BBX 8 11 1 0
BITMAP
75
99
03
C6
C4
C4
C4
C4
C4
CC
74
ENDCHAR
STARTCHAR uni1EF0
ENCODING 7920
SWIDTH 659 0
DWIDTH 11 0
BBX 10 17 1 -4
BITMAP
0040
00C0
00C0
C180
C100
C100
C100
C100
C100
C100
4300
6200
3C00
0000
0000
1800
1800
ENDCHAR
STARTCHAR uni1EF1
ENCODING 7921
SWIDTH 544 0
DWIDTH 9 0
BBX 8 15 1 -4
BITMAP
01
01
03
C6
C4
C4
C4
C4
C4
CC
74
00
00
10
10
ENDCHAR
STARTCHAR Ygrave
ENCODING 7922
SWIDTH 476 0
DWIDTH 8 0
BBX 8 14 0 0
BITMAP
20
30
18
00
C3
42
64
24
38
18
10
10
10
10
ENDCHAR
STARTCHAR ygrave
ENCODING 7923
SWIDTH 467 0
DWIDTH 7 0
BBX 7 15 0 -3
BITMAP
20
30
08
00
C2
42
44
24
24
38
18
18
10
30
60
ENDCHAR
STARTCHAR uni1EF4
ENCODING 7924
SWIDTH 476 0
DWIDTH 8 0
BBX 8 14 0 -4
BITMAP
C3
42
64
24
38
18
10
10
10
10
00
00
18
18
ENDCHAR
STARTCHAR uni1EF5
ENCODING 7925
SWIDTH 467 0
DWIDTH 7 0
BBX 7 12 0 -4
BITMAP
C2
42
44
24
24
38
18
18
10
30
66
06
ENDCHAR
STARTCHAR uni1EF6
ENCODING 7926
SWIDTH 476 0
DWIDTH 8 0
BBX 8 14 0 0
BITMAP
18
08
18
00
C3
42
64
24
38
18
10
10
10
10
ENDCHAR
STARTCHAR uni1EF7
ENCODING 7927
SWIDTH 467 0
DWIDTH 7 0
BBX 7 16 0 -3
BITMAP
18
08
08
10
00
C2
42
44
24
24
38
18
18
10
30
60
ENDCHAR
STARTCHAR uni1EF8
ENCODING 7928
SWIDTH 476 0
DWIDTH 8 0
BBX 8 13 0 0
BITMAP
72
4C
00
C3
42
64
24
38
18
10
10
10
10
ENDCHAR
STARTCHAR uni1EF9
ENCODING 7929
SWIDTH 467 0
DWIDTH 7 0
BBX 7 14 0 -3
BITMAP
72
4C
00
C2
42
44
24
24
38
18
18
10
30
60
ENDCHAR
STARTCHAR uni1F00
ENCODING 7936
SWIDTH 560 0
DWIDTH 9 0
BBX 8 13 1 0
BITMAP
30
08
08
10
00
7A
CA
86
86
84
84
CC
77
ENDCHAR
STARTCHAR uni1F01
ENCODING 7937
SWIDTH 560 0
DWIDTH 9 0
BBX 8 12 1 0
BITMAP
18
20
10
00
7A
CA
86
86
84
84
CC
77
ENDCHAR
STARTCHAR uni1F02
ENCODING 7938
SWIDTH 560 0
DWIDTH 9 0
BBX 8 12 1 0
BITMAP
68
28
68
00
7A
CA
86
86
84
84
CC
77
ENDCHAR
STARTCHAR uni1F03
ENCODING 7939
SWIDTH 560 0
DWIDTH 9 0
BBX 8 12 1 0
BITMAP
78
48
68
00
7A
CA
86
86
84
84
CC
77
ENDCHAR
STARTCHAR uni1F04
ENCODING 7940
SWIDTH 560 0
DWIDTH 9 0
BBX 8 12 1 0
BITMAP
6C
28
68
00
7A
CA
86
86
84
84
CC
77
ENDCHAR
STARTCHAR uni1F05
ENCODING 7941
SWIDTH 560 0
DWIDTH 9 0
BBX 8 12 1 0
BITMAP
2C
48
28
00
7A
CA
86
86
84
84
CC
77
ENDCHAR
STARTCHAR uni1F06
ENCODING 7942
SWIDTH 560 0
DWIDTH 9 0
BBX 8 15 1 0
BITMAP
34
58
00
10
08
10
00
7A
CA
86
86
84
84
CC
77
ENDCHAR
STARTCHAR uni1F07
ENCODING 7943
SWIDTH 560 0
DWIDTH 9 0
BBX 8 15 1 0
BITMAP
34
58
00
10
28
10
00
7A
CA
86
86
84
84
CC
77
ENDCHAR
STARTCHAR uni1F08
ENCODING 7944
SWIDTH 580 0
DWIDTH 9 0
BBX 9 10 0 0
BITMAP
CC00
4C00
5600
9200
1200
3300
3F00
2100
6180
4080
ENDCHAR
STARTCHAR uni1F09
ENCODING 7945
SWIDTH 573 0
DWIDTH 9 0
BBX 9 10 0 0
BITMAP
CC00
8C00
9400
5200
3200
2300
3F00
6100
4180
4080
ENDCHAR
STARTCHAR uni1F0A
ENCODING 7946
SWIDTH 714 0
DWIDTH 11 0
BBX 11 10 0 0
BITMAP
B300
5300
5680
8480
0480
0CC0
0FC0
0840
1860
1020
ENDCHAR
STARTCHAR uni1F0B
ENCODING 7947
SWIDTH 710 0
DWIDTH 11 0
BBX 11 10 0 0
BITMAP
F300
9300
9780
8480
0480
0CC0
0FC0
0840
1860
1020
ENDCHAR
STARTCHAR uni1F0C
ENCODING 7948
SWIDTH 709 0
DWIDTH 11 0
BBX 11 10 0 0
BITMAP
9300
5300
5780
A480
0480
0CC0
0FC0
0840
1860
1020
ENDCHAR
STARTCHAR uni1F0D
ENCODING 7949
SWIDTH 705 0
DWIDTH 11 0
BBX 11 10 0 0
BITMAP
D300
9300
A580
8480
0480
0CC0
0FC0
0840
1860
1020
ENDCHAR
STARTCHAR uni1F0E
ENCODING 7950
SWIDTH 613 0
DWIDTH 10 0
BBX 10 11 0 0
BITMAP
E000
E400
4A00
2A00
DA00
1100
1100
3F80
2080
2080
60C0
ENDCHAR
STARTCHAR uni1F0F
ENCODING 7951
SWIDTH 613 0
DWIDTH 10 0
BBX 10 11 0 0
BITMAP
E000
E400
4A00
AA00
5A00
1100
1100
3F80
2080
2080
60C0
ENDCHAR
STARTCHAR uni1F10
ENCODING 7952
SWIDTH 448 0
DWIDTH 7 0
BBX 6 13 1 0
BITMAP
30
10
10
30
00
78
CC
C0
70
80
80
88
7C
ENDCHAR
STARTCHAR uni1F11
ENCODING 7953
SWIDTH 448 0
DWIDTH 7 0
BBX 6 12 1 0
BITMAP
30
20
30
00
78
CC
C0
70
80
80
88
7C
ENDCHAR
STARTCHAR uni1F12
ENCODING 7954
SWIDTH 448 0
DWIDTH 7 0
BBX 6 12 1 0
BITMAP
D0
30
48
00
78
CC
C0
70
80
80
88
7C
ENDCHAR
STARTCHAR uni1F13
ENCODING 7955
SWIDTH 448 0
DWIDTH 7 0
BBX 6 12 1 0
BITMAP
50
90
48
00
78
CC
C0
70
80
80
88
7C
ENDCHAR
STARTCHAR uni1F14
ENCODING 7956
SWIDTH 448 0
DWIDTH 7 0
BBX 6 12 1 0
BITMAP
C8
38
50
00
78
CC
C0
70
80
80
88
7C
ENDCHAR
STARTCHAR uni1F15
ENCODING 7957
SWIDTH 448 0
DWIDTH 7 0
BBX 6 12 1 0
BITMAP
68
90
50
00
78
CC
C0
70
80
80
88
7C
ENDCHAR
STARTCHAR uni1F18
ENCODING 7960
SWIDTH 645 0
DWIDTH 10 0
BBX 10 10 0 0
BITMAP
DF80
5800
5800
9800
1F80
1800
1800
1800
1800
1FC0
ENDCHAR
STARTCHAR uni1F19
ENCODING 7961
SWIDTH 645 0
DWIDTH 10 0
BBX 10 10 0 0
BITMAP
DF80
9800
9800
5800
1F80
1800
1800
1800
1800
1FC0
ENDCHAR
STARTCHAR uni1F1A
ENCODING 7962
SWIDTH 764 0
DWIDTH 12 0
BBX 11 10 0 0
BITMAP
B7E0
5600
5600
8600
07E0
0600
0600
0600
0600
07E0
ENDCHAR
STARTCHAR uni1F1B
ENCODING 7963
SWIDTH 761 0
DWIDTH 12 0
BBX 11 10 0 0
BITMAP
F7E0
9600
9600
8600
07E0
0600
0600
0600
0600
07E0
ENDCHAR
STARTCHAR uni1F1C
ENCODING 7964
SWIDTH 760 0
DWIDTH 12 0
BBX 11 10 0 0
BITMAP
97E0
5600
5600
A600
07C0
0600
0600
0600
0600
07E0
ENDCHAR
STARTCHAR uni1F1D
ENCODING 7965
SWIDTH 756 0
DWIDTH 12 0
BBX 11 10 0 0
BITMAP
D7E0
9400
A400
8400
07C0
0400
0400
0400
0400
07E0
ENDCHAR
STARTCHAR uni1F20
ENCODING 7968
SWIDTH 541 0
DWIDTH 9 0
BBX 6 15 1 -2
BITMAP
10
08
08
10
00
9C
A4
C4
C4
C4
C4
C4
C4
04
04
ENDCHAR
STARTCHAR uni1F21
ENCODING 7969
SWIDTH 541 0
DWIDTH 9 0
BBX 6 14 1 -2
BITMAP
18
20
10
00
9C
A4
C4
C4
C4
C4
C4
C4
04
04
ENDCHAR
STARTCHAR uni1F22
ENCODING 7970
SWIDTH 541 0
DWIDTH 9 0
BBX 6 14 1 -2
BITMAP
68
28
28
00
9C
A4
C4
C4
C4
C4
C4
C4
04
04
ENDCHAR
STARTCHAR uni1F23
ENCODING 7971
SWIDTH 541 0
DWIDTH 9 0
BBX 6 14 1 -2
BITMAP
68
48
28
00
9C
A4
C4
C4
C4
C4
C4
C4
04
04
ENDCHAR
STARTCHAR uni1F24
ENCODING 7972
SWIDTH 541 0
DWIDTH 9 0
BBX 6 14 1 -2
BITMAP
6C
28
28
00
9C
A4
C4
C4
C4
C4
C4
C4
04
04
ENDCHAR
STARTCHAR uni1F25
ENCODING 7973
SWIDTH 541 0
DWIDTH 9 0
BBX 6 14 1 -2
BITMAP
2C
48
28
00
9C
A4
C4
C4
C4
C4
C4
C4
04
04
ENDCHAR
STARTCHAR uni1F26
ENCODING 7974
SWIDTH 541 0
DWIDTH 9 0
BBX 6 17 1 -2
BITMAP
34
5C
00
10
08
10
00
9C
A4
C4
C4
C4
C4
C4
C4
04
04
ENDCHAR
STARTCHAR uni1F27
ENCODING 7975
SWIDTH 541 0
DWIDTH 9 0
BBX 6 17 1 -2
BITMAP
34
5C
00
18
10
10
00
9C
A4
C4
C4
C4
C4
C4
C4
04
04
ENDCHAR
STARTCHAR uni1F28
ENCODING 7976
SWIDTH 770 0
DWIDTH 12 0
BBX 11 10 0 0
BITMAP
D820
5820
5820
9820
1FE0
1820
1820
1820
1820
1820
ENDCHAR
STARTCHAR uni1F29
ENCODING 7977
SWIDTH 770 0
DWIDTH 12 0
BBX 11 10 0 0
BITMAP
D820
9820
9820
5820
1FE0
1820
1820
1820
1820
1820
ENDCHAR
STARTCHAR uni1F2A
ENCODING 7978
SWIDTH 889 0
DWIDTH 14 0
BBX 13 10 0 0
BITMAP
B618
5618
5618
8618
07F8
0618
0618
0618
0618
0618
ENDCHAR
STARTCHAR uni1F2B
ENCODING 7979
SWIDTH 885 0
DWIDTH 14 0
BBX 13 10 0 0
BITMAP
F618
9618
9618
8618
07F8
0618
0618
0618
0618
0618
ENDCHAR
STARTCHAR uni1F2C
ENCODING 7980
SWIDTH 885 0
DWIDTH 14 0
BBX 13 10 0 0
BITMAP
9618
5618
5618
A618
07F8
0618
0618
0618
0618
0618
ENDCHAR
STARTCHAR uni1F2D
ENCODING 7981
SWIDTH 881 0
DWIDTH 14 0
BBX 13 10 0 0
BITMAP
D418
9418
A418
8418
07F8
0418
0418
0418
0418
0418
ENDCHAR
STARTCHAR uni1F2E
ENCODING 7982
SWIDTH 840 0
DWIDTH 13 0
BBX 12 11 0 0
BITMAP
E000
EC10
4C10
2C10
CC10
0FF0
0C10
0C10
0C10
0C10
0C10
ENDCHAR
STARTCHAR uni1F2F
ENCODING 7983
SWIDTH 840 0
DWIDTH 13 0
BBX 12 11 0 0
BITMAP
E000
EC10
4C10
AC10
4C10
0FF0
0C10
0C10
0C10
0C10
0C10
ENDCHAR
STARTCHAR uni1F30
ENCODING 7984
SWIDTH 262 0
DWIDTH 4 0
BBX 3 13 1 0
BITMAP
C0
40
40
C0
00
C0
C0
C0
C0
C0
C0
C0
60
ENDCHAR
STARTCHAR uni1F31
ENCODING 7985
SWIDTH 262 0
DWIDTH 4 0
BBX 3 12 1 0
BITMAP
C0
80
C0
00
C0
C0
C0
C0
C0
C0
C0
60
ENDCHAR
STARTCHAR uni1F32
ENCODING 7986
SWIDTH 262 0
DWIDTH 4 0
BBX 5 12 -1 0
BITMAP
50
B8
48
00
30
30
30
30
30
30
30
18
ENDCHAR
STARTCHAR uni1F33
ENCODING 7987
SWIDTH 262 0
DWIDTH 4 0
BBX 5 12 -1 0
BITMAP
50
B0
48
00
30
30
30
30
30
30
30
18
ENDCHAR
STARTCHAR uni1F34
ENCODING 7988
SWIDTH 262 0
DWIDTH 4 0
BBX 5 12 -1 0
BITMAP
48
B8
50
00
30
30
30
30
30
30
30
18
ENDCHAR
STARTCHAR uni1F35
ENCODING 7989
SWIDTH 262 0
DWIDTH 4 0
BBX 4 12 0 0
BITMAP
D0
A0
A0
00
60
60
60
60
60
60
60
30
ENDCHAR
STARTCHAR uni1F36
ENCODING 7990
SWIDTH 262 0
DWIDTH 4 0
BBX 4 15 0 0
BITMAP
D0
B0
00
60
20
60
00
60
60
60
60
60
60
60
30
ENDCHAR
STARTCHAR uni1F37
ENCODING 7991
SWIDTH 262 0
DWIDTH 4 0
BBX 4 15 0 0
BITMAP
D0
B0
00
60
40
60
00
60
60
60
60
60
60
60
30
ENDCHAR
STARTCHAR uni1F38
ENCODING 7992
SWIDTH 381 0
DWIDTH 6 0
BBX 5 10 0 0
BITMAP
D8
58
58
98
18
18
18
18
18
18
ENDCHAR
STARTCHAR uni1F39
ENCODING 7993
SWIDTH 381 0
DWIDTH 6 0
BBX 5 10 0 0
BITMAP
D8
98
98
58
18
18
18
18
18
18
ENDCHAR
STARTCHAR uni1F3A
ENCODING 7994
SWIDTH 500 0
DWIDTH 8 0
BBX 7 10 0 0
BITMAP
B6
56
56
86
06
06
06
06
06
06
ENDCHAR
STARTCHAR uni1F3B
ENCODING 7995
SWIDTH 497 0
DWIDTH 8 0
BBX 7 10 0 0
BITMAP
F6
96
96
86
06
06
06
06
06
06
ENDCHAR
STARTCHAR uni1F3C
ENCODING 7996
SWIDTH 496 0
DWIDTH 8 0
BBX 7 10 0 0
BITMAP
96
56
56
A6
06
06
06
06
06
06
ENDCHAR
STARTCHAR uni1F3D
ENCODING 7997
SWIDTH 492 0
DWIDTH 8 0
BBX 6 10 0 0
BITMAP
D4
94
A4
84
04
04
04
04
04
04
ENDCHAR
STARTCHAR uni1F3E
ENCODING 7998
SWIDTH 451 0
DWIDTH 7 0
BBX 6 11 0 0
BITMAP
E0
EC
4C
2C
CC
0C
0C
0C
0C
0C
0C
ENDCHAR
STARTCHAR uni1F3F
ENCODING 7999
SWIDTH 451 0
DWIDTH 7 0
BBX 6 11 0 0
BITMAP
E0
EC
4C
AC
4C
0C
0C
0C
0C
0C
0C
ENDCHAR
STARTCHAR uni1F40
ENCODING 8000
SWIDTH 535 0
DWIDTH 9 0
BBX 7 13 1 0
BITMAP
30
18
18
10
00
78
C4
86
86
86
86
C4
78
ENDCHAR
STARTCHAR uni1F41
ENCODING 8001
SWIDTH 535 0
DWIDTH 9 0
BBX 7 12 1 0
BITMAP
10
20
30
00
78
C4
86
86
86
86
C4
78
ENDCHAR
STARTCHAR uni1F42
ENCODING 8002
SWIDTH 535 0
DWIDTH 9 0
BBX 7 12 1 0
BITMAP
78
28
48
00
78
C4
86
86
86
86
C4
78
ENDCHAR
STARTCHAR uni1F43
ENCODING 8003
SWIDTH 535 0
DWIDTH 9 0
BBX 7 12 1 0
BITMAP
78
48
48
00
78
C4
86
86
86
86
C4
78
ENDCHAR
STARTCHAR uni1F44
ENCODING 8004
SWIDTH 535 0
DWIDTH 9 0
BBX 7 12 1 0
BITMAP
68
28
50
00
78
C4
86
86
86
86
C4
78
ENDCHAR
STARTCHAR uni1F45
ENCODING 8005
SWIDTH 535 0
DWIDTH 9 0
BBX 7 12 1 0
BITMAP
68
48
70
00
78
C4
86
86
86
86
C4
78
ENDCHAR
STARTCHAR uni1F48
ENCODING 8008
SWIDTH 761 0
DWIDTH 12 0
BBX 11 10 0 0
BITMAP
C780
5840
5060
9020
3020
3020
1020
1060
08C0
0780
ENDCHAR
STARTCHAR uni1F49
ENCODING 8009
SWIDTH 747 0
DWIDTH 12 0
BBX 11 10 0 0
BITMAP
CF80
98C0
9060
3020
3020
3020
3020
1060
18C0
0780
ENDCHAR
STARTCHAR uni1F4A
ENCODING 8010
SWIDTH 884 0
DWIDTH 14 0
BBX 13 10 0 0
BITMAP
B1E0
5210
5418
8408
0C08
0C08
0408
0418
0210
01E0
ENDCHAR
STARTCHAR uni1F4B
ENCODING 8011
SWIDTH 886 0
DWIDTH 14 0
BBX 13 10 0 0
BITMAP
F1E0
9610
9418
8408
0C08
0C08
0408
0418
0230
01E0
ENDCHAR
STARTCHAR uni1F4C
ENCODING 8012
SWIDTH 880 0
DWIDTH 14 0
BBX 13 10 0 0
BITMAP
91E0
5630
5418
AC08
0C08
0C08
0C08
0418
0630
01E0
ENDCHAR
STARTCHAR uni1F4D
ENCODING 8013
SWIDTH 876 0
DWIDTH 14 0
BBX 13 10 0 0
BITMAP
D1E0
9630
A418
8C08
0C08
0C08
0C08
0418
0630
01E0
ENDCHAR
STARTCHAR uni1F50
ENCODING 8016
SWIDTH 510 0
DWIDTH 8 0
BBX 6 13 1 0
BITMAP
30
10
10
20
00
8C
84
84
84
84
84
CC
78
ENDCHAR
STARTCHAR uni1F51
ENCODING 8017
SWIDTH 510 0
DWIDTH 8 0
BBX 6 12 1 0
BITMAP
30
20
30
00
8C
84
84
84
84
84
CC
78
ENDCHAR
STARTCHAR uni1F52
ENCODING 8018
SWIDTH 510 0
DWIDTH 8 0
BBX 6 12 1 0
BITMAP
D0
30
48
00
8C
84
84
84
84
84
CC
78
ENDCHAR
STARTCHAR uni1F53
ENCODING 8019
SWIDTH 510 0
DWIDTH 8 0
BBX 6 12 1 0
BITMAP
50
90
48
00
8C
84
84
84
84
84
CC
78
ENDCHAR
STARTCHAR uni1F54
ENCODING 8020
SWIDTH 510 0
DWIDTH 8 0
BBX 6 12 1 0
BITMAP
C8
30
50
00
8C
84
84
84
84
84
CC
78
ENDCHAR
STARTCHAR uni1F55
ENCODING 8021
SWIDTH 510 0
DWIDTH 8 0
BBX 6 12 1 0
BITMAP
68
90
50
00
8C
84
84
84
84
84
CC
78
ENDCHAR
STARTCHAR uni1F56
ENCODING 8022
SWIDTH 510 0
DWIDTH 8 0
BBX 6 15 1 0
BITMAP
68
58
00
30
10
20
00
8C
84
84
84
84
84
CC
78
ENDCHAR
STARTCHAR uni1F57
ENCODING 8023
SWIDTH 510 0
DWIDTH 8 0
BBX 6 15 1 0
BITMAP
68
58
00
30
20
20
00
8C
84
84
84
84
84
CC
78
ENDCHAR
STARTCHAR uni1F59
ENCODING 8025
SWIDTH 645 0
DWIDTH 10 0
BBX 10 10 0 0
BITMAP
D040
98C0
8880
4D80
0500
0300
0200
0200
0200
0200
ENDCHAR
STARTCHAR uni1F5B
ENCODING 8027
SWIDTH 769 0
DWIDTH 12 0
BBX 12 10 0 0
BITMAP
F410
9630
9220
8360
0140
00C0
0080
0080
0080
0080
ENDCHAR
STARTCHAR uni1F5D
ENCODING 8029
SWIDTH 765 0
DWIDTH 12 0
BBX 12 10 0 0
BITMAP
D410
9620
A220
8340
0140
0180
0080
0080
0080
0080
ENDCHAR
STARTCHAR uni1F5F
ENCODING 8031
SWIDTH 718 0
DWIDTH 11 0
BBX 12 11 0 0
BITMAP
E000
EC30
4460
A440
42C0
0280
0180
0100
0100
0100
0100
ENDCHAR
STARTCHAR uni1F60
ENCODING 8032
SWIDTH 701 0
DWIDTH 11 0
BBX 9 13 1 0
BITMAP
0800
1400
0400
0800
0000
4100
C180
C080
8880
8880
8880
CC80
7700
ENDCHAR
STARTCHAR uni1F61
ENCODING 8033
SWIDTH 701 0
DWIDTH 11 0
BBX 9 12 1 0
BITMAP
0C00
1000
0800
0000
4100
C180
C080
8880
8880
8880
CC80
7700
ENDCHAR
STARTCHAR uni1F62
ENCODING 8034
SWIDTH 701 0
DWIDTH 11 0
BBX 9 12 1 0
BITMAP
3400
1400
1400
0000
4100
C180
C080
8880
8880
8880
CC80
7700
ENDCHAR
STARTCHAR uni1F63
ENCODING 8035
SWIDTH 701 0
DWIDTH 11 0
BBX 9 12 1 0
BITMAP
3400
2400
3400
0000
4100
C180
C080
8880
8880
8880
CC80
7700
ENDCHAR
STARTCHAR uni1F64
ENCODING 8036
SWIDTH 701 0
DWIDTH 11 0
BBX 9 12 1 0
BITMAP
3600
1400
1400
0000
4100
C180
C080
8880
8880
8880
CC80
7700
ENDCHAR
STARTCHAR uni1F65
ENCODING 8037
SWIDTH 701 0
DWIDTH 11 0
BBX 9 12 1 0
BITMAP
1600
2400
1400
0000
4100
C180
C080
8880
8880
8880
CC80
7700
ENDCHAR
STARTCHAR uni1F66
ENCODING 8038
SWIDTH 701 0
DWIDTH 11 0
BBX 9 15 1 0
BITMAP
1A00
2C00
0000
0800
0400
0800
0000
4100
C180
C080
8880
8880
8880
CC80
7700
ENDCHAR
STARTCHAR uni1F67
ENCODING 8039
SWIDTH 701 0
DWIDTH 11 0
BBX 9 15 1 0
BITMAP
1A00
2C00
0000
0C00
1000
0800
0000
4100
C180
C080
8880
8880
8880
CC80
7700
ENDCHAR
STARTCHAR uni1F68
ENCODING 8040
SWIDTH 773 0
DWIDTH 12 0
BBX 12 10 0 0
BITMAP
C780
4840
5020
9020
3020
1020
1020
1860
0840
3CF0
ENDCHAR
STARTCHAR uni1F69
ENCODING 8041
SWIDTH 759 0
DWIDTH 12 0
BBX 11 10 0 0
BITMAP
C780
98C0
9060
3020
3020
3020
1020
1060
08C0
3CE0
ENDCHAR
STARTCHAR uni1F6A
ENCODING 8042
SWIDTH 900 0
DWIDTH 14 0
BBX 14 10 0 0
BITMAP
B1E0
5210
5408
8408
0408
040C
0408
0618
0210
0F3C
ENDCHAR
STARTCHAR uni1F6B
ENCODING 8043
SWIDTH 896 0
DWIDTH 14 0
BBX 14 10 0 0
BITMAP
F1E0
9210
9408
8408
0C08
0C08
0408
0618
0210
0F3C
ENDCHAR
STARTCHAR uni1F6C
ENCODING 8044
SWIDTH 895 0
DWIDTH 14 0
BBX 14 10 0 0
BITMAP
91E0
5210
5418
A408
0C08
0C08
0408
0618
0230
0F3C
ENDCHAR
STARTCHAR uni1F6D
ENCODING 8045
SWIDTH 891 0
DWIDTH 14 0
BBX 14 10 0 0
BITMAP
D1E0
9610
A418
8408
0C08
0C08
0408
0418
0230
0F3C
ENDCHAR
STARTCHAR uni1F6E
ENCODING 8046
SWIDTH 817 0
DWIDTH 13 0
BBX 12 11 0 0
BITMAP
E000
E3C0
4C60
2830
D810
1810
1810
1810
0820
0460
1E70
ENDCHAR
STARTCHAR uni1F6F
ENCODING 8047
SWIDTH 817 0
DWIDTH 13 0
BBX 12 11 0 0
BITMAP
E000
E3C0
4C60
A830
5810
1810
1810
1810
0820
0460
1E70
ENDCHAR
STARTCHAR uni1F70
ENCODING 8048
SWIDTH 560 0
DWIDTH 9 0
BBX 8 12 1 0
BITMAP
20
70
10
00
7A
CA
86
86
84
84
CC
77
ENDCHAR
STARTCHAR uni1F71
ENCODING 8049
SWIDTH 560 0
DWIDTH 9 0
BBX 8 12 1 0
BITMAP
08
0C
10
00
7A
CA
86
86
84
84
CC
77
ENDCHAR
STARTCHAR uni1F72
ENCODING 8050
SWIDTH 448 0
DWIDTH 7 0
BBX 6 12 1 0
BITMAP
40
60
10
00
78
CC
C0
70
80
80
88
7C
ENDCHAR
STARTCHAR uni1F73
ENCODING 8051
SWIDTH 448 0
DWIDTH 7 0
BBX 6 12 1 0
BITMAP
08
10
20
00
78
CC
C0
70
80
80
88
7C
ENDCHAR
STARTCHAR uni1F74
ENCODING 8052
SWIDTH 541 0
DWIDTH 9 0
BBX 6 14 1 -2
BITMAP
20
70
18
00
9C
A4
C4
C4
C4
C4
C4
C4
04
04
ENDCHAR
STARTCHAR uni1F75
ENCODING 8053
SWIDTH 541 0
DWIDTH 9 0
BBX 6 14 1 -2
BITMAP
04
08
10
00
9C
A4
C4
C4
C4
C4
C4
C4
04
04
ENDCHAR
STARTCHAR uni1F76
ENCODING 8054
SWIDTH 262 0
DWIDTH 4 0
BBX 4 12 0 0
BITMAP
80
40
20
00
60
60
60
60
60
60
60
30
ENDCHAR
STARTCHAR uni1F77
ENCODING 8055
SWIDTH 262 0
DWIDTH 4 0
BBX 3 12 1 0
BITMAP
20
40
80
00
C0
C0
C0
C0
C0
C0
C0
60
ENDCHAR
STARTCHAR uni1F78
ENCODING 8056
SWIDTH 535 0
DWIDTH 9 0
BBX 7 12 1 0
BITMAP
40
20
10
00
78
C4
86
86
86
86
C4
78
ENDCHAR
STARTCHAR uni1F79
ENCODING 8057
SWIDTH 535 0
DWIDTH 9 0
BBX 7 12 1 0
BITMAP
08
1C
30
00
78
C4
86
86
86
86
C4
78
ENDCHAR
STARTCHAR uni1F7A
ENCODING 8058
SWIDTH 510 0
DWIDTH 8 0
BBX 6 12 1 0
BITMAP
40
60
10
00
8C
84
84
84
84
84
CC
78
ENDCHAR
STARTCHAR uni1F7B
ENCODING 8059
SWIDTH 510 0
DWIDTH 8 0
BBX 6 12 1 0
BITMAP
08
10
20
00
8C
84
84
84
84
84
CC
78
ENDCHAR
STARTCHAR uni1F7C
ENCODING 8060
SWIDTH 701 0
DWIDTH 11 0
BBX 9 12 1 0
BITMAP
1000
3800
0800
0000
4100
C180
C080
8880
8880
8880
CC80
7700
ENDCHAR
STARTCHAR uni1F7D
ENCODING 8061
SWIDTH 701 0
DWIDTH 11 0
BBX 9 12 1 0
BITMAP
0600
0400
0800
0000
4100
C180
C080
8880
8880
8880
CC80
7700
ENDCHAR
STARTCHAR uni1F80
ENCODING 8064
SWIDTH 560 0
DWIDTH 9 0
BBX 8 16 1 -3
BITMAP
30
08
08
10
00
7A
CA
86
86
84
84
CC
77
00
10
18
ENDCHAR
STARTCHAR uni1F81
ENCODING 8065
SWIDTH 560 0
DWIDTH 9 0
BBX 8 15 1 -3
BITMAP
18
20
10
00
7A
CA
86
86
84
84
CC
77
00
10
18
ENDCHAR
STARTCHAR uni1F82
ENCODING 8066
SWIDTH 560 0
DWIDTH 9 0
BBX 8 15 1 -3
BITMAP
68
28
68
00
7A
CA
86
86
84
84
CC
77
00
10
18
ENDCHAR
STARTCHAR uni1F83
ENCODING 8067
SWIDTH 560 0
DWIDTH 9 0
BBX 8 15 1 -3
BITMAP
78
48
68
00
7A
CA
86
86
84
84
CC
77
00
10
18
ENDCHAR
STARTCHAR uni1F84
ENCODING 8068
SWIDTH 560 0
DWIDTH 9 0
BBX 8 15 1 -3
BITMAP
6C
28
68
00
7A
CA
86
86
84
84
CC
77
00
10
18
ENDCHAR
STARTCHAR uni1F85
ENCODING 8069
SWIDTH 560 0
DWIDTH 9 0
BBX 8 15 1 -3
BITMAP
2C
48
28
00
7A
CA
86
86
84
84
CC
77
00
10
18
ENDCHAR
STARTCHAR uni1F86
ENCODING 8070
SWIDTH 560 0
DWIDTH 9 0
BBX 8 18 1 -3
BITMAP
34
58
00
10
08
10
00
7A
CA
86
86
84
84
CC
77
00
10
18
ENDCHAR
STARTCHAR uni1F87
ENCODING 8071
SWIDTH 560 0
DWIDTH 9 0
BBX 8 18 1 -3
BITMAP
34
58
00
10
28
10
00
7A
CA
86
86
84
84
CC
77
00
10
18
ENDCHAR
STARTCHAR uni1F88
ENCODING 8072
SWIDTH 839 0
DWIDTH 13 0
BBX 13 10 0 0
BITMAP
CC00
4C00
5600
9210
1210
3310
3F10
2110
6190
4098
ENDCHAR
STARTCHAR uni1F89
ENCODING 8073
SWIDTH 832 0
DWIDTH 13 0
BBX 13 10 0 0
BITMAP
CC00
8C00
9400
5230
3230
2330
3F30
6130
41B0
4098
ENDCHAR
STARTCHAR uni1F8A
ENCODING 8074
SWIDTH 972 0
DWIDTH 16 0
BBX 15 10 0 0
BITMAP
B300
5300
5680
8484
0484
0CC4
0FC4
0844
1864
1026
ENDCHAR
STARTCHAR uni1F8B
ENCODING 8075
SWIDTH 968 0
DWIDTH 15 0
BBX 15 10 0 0
BITMAP
F300
9300
9780
8484
0484
0CC4
0FC4
0844
1864
1026
ENDCHAR
STARTCHAR uni1F8C
ENCODING 8076
SWIDTH 968 0
DWIDTH 15 0
BBX 15 10 0 0
BITMAP
9300
5300
5780
A484
0484
0CC4
0FC4
0844
1864
1026
ENDCHAR
STARTCHAR uni1F8D
ENCODING 8077
SWIDTH 964 0
DWIDTH 15 0
BBX 15 10 0 0
BITMAP
D300
9300
A580
8484
0484
0CC4
0FC4
0844
1864
1026
ENDCHAR
STARTCHAR uni1F8E
ENCODING 8078
SWIDTH 872 0
DWIDTH 14 0
BBX 14 11 0 0
BITMAP
E000
E400
4A00
2A00
DA10
1110
1110
3F90
2090
2090
60DC
ENDCHAR
STARTCHAR uni1F8F
ENCODING 8079
SWIDTH 872 0
DWIDTH 14 0
BBX 14 11 0 0
BITMAP
E000
E400
4A00
AA00
5A10
1110
1110
3F90
2090
2090
60DC
ENDCHAR
STARTCHAR uni1F90
ENCODING 8080
SWIDTH 541 0
DWIDTH 9 0
BBX 6 16 1 -3
BITMAP
10
08
08
10
00
9C
A4
C4
C4
C4
C4
C4
C4
04
84
40
ENDCHAR
STARTCHAR uni1F91
ENCODING 8081
SWIDTH 541 0
DWIDTH 9 0
BBX 6 15 1 -3
BITMAP
18
20
10
00
9C
A4
C4
C4
C4
C4
C4
C4
04
84
40
ENDCHAR
STARTCHAR uni1F92
ENCODING 8082
SWIDTH 541 0
DWIDTH 9 0
BBX 6 15 1 -3
BITMAP
68
28
28
00
9C
A4
C4
C4
C4
C4
C4
C4
04
84
40
ENDCHAR
STARTCHAR uni1F93
ENCODING 8083
SWIDTH 541 0
DWIDTH 9 0
BBX 6 15 1 -3
BITMAP
68
48
28
00
9C
A4
C4
C4
C4
C4
C4
C4
04
84
40
ENDCHAR
STARTCHAR uni1F94
ENCODING 8084
SWIDTH 541 0
DWIDTH 9 0
BBX 6 15 1 -3
BITMAP
6C
28
28
00
9C
A4
C4
C4
C4
C4
C4
C4
04
84
40
ENDCHAR
STARTCHAR uni1F95
ENCODING 8085
SWIDTH 541 0
DWIDTH 9 0
BBX 6 15 1 -3
BITMAP
2C
48
28
00
9C
A4
C4
C4
C4
C4
C4
C4
04
84
40
ENDCHAR
STARTCHAR uni1F96
ENCODING 8086
SWIDTH 541 0
DWIDTH 9 0
BBX 6 18 1 -3
BITMAP
34
5C
00
10
08
10
00
9C
A4
C4
C4
C4
C4
C4
C4
04
84
40
ENDCHAR
STARTCHAR uni1F97
ENCODING 8087
SWIDTH 541 0
DWIDTH 9 0
BBX 6 18 1 -3
BITMAP
34
5C
00
18
10
10
00
9C
A4
C4
C4
C4
C4
C4
C4
04
84
40
ENDCHAR
STARTCHAR uni1F98
ENCODING 8088
SWIDTH 1028 0
DWIDTH 16 0
BBX 16 10 0 0
BITMAP
D820
5820
5820
9822
1FE2
1822
1822
1822
1822
1823
ENDCHAR
STARTCHAR uni1F99
ENCODING 8089
SWIDTH 1028 0
DWIDTH 16 0
BBX 16 10 0 0
BITMAP
D820
9820
9820
5822
1FE2
1822
1822
1822
1822
1823
ENDCHAR
STARTCHAR uni1F9A
ENCODING 8090
SWIDTH 1148 0
DWIDTH 18 0
BBX 18 10 0 0
BITMAP
B61800
561800
561800
861980
07F980
061980
061980
061980
061880
0618C0
ENDCHAR
STARTCHAR uni1F9B
ENCODING 8091
SWIDTH 1144 0
DWIDTH 18 0
BBX 18 10 0 0
BITMAP
F61800
961800
961800
861980
07F980
061980
061980
061980
061980
0618C0
ENDCHAR
STARTCHAR uni1F9C
ENCODING 8092
SWIDTH 1143 0
DWIDTH 18 0
BBX 18 10 0 0
BITMAP
961800
561800
561800
A61980
07F980
061980
061980
061980
061980
0618C0
ENDCHAR
STARTCHAR uni1F9D
ENCODING 8093
SWIDTH 1140 0
DWIDTH 18 0
BBX 18 10 0 0
BITMAP
D41800
941800
A41800
841980
07F980
041980
041980
041980
041980
0418C0
ENDCHAR
STARTCHAR uni1F9E
ENCODING 8094
SWIDTH 1098 0
DWIDTH 18 0
BBX 17 11 0 0
BITMAP
E00000
EC1000
4C1000
2C1000
CC1100
0FF100
0C1100
0C1100
0C1100
0C1100
0C1180
ENDCHAR
STARTCHAR uni1F9F
ENCODING 8095
SWIDTH 1098 0
DWIDTH 18 0
BBX 17 11 0 0
BITMAP
E00000
EC1000
4C1000
AC1000
4C1100
0FF100
0C1100
0C1100
0C1100
0C1100
0C1180
ENDCHAR
STARTCHAR uni1FA0
ENCODING 8096
SWIDTH 701 0
DWIDTH 11 0
BBX 9 16 1 -3
BITMAP
0800
1400
0400
0800
0000
4100
C180
C080
8880
8880
8880
CC80
7700
0000
0800
0C00
ENDCHAR
STARTCHAR uni1FA1
ENCODING 8097
SWIDTH 701 0
DWIDTH 11 0
BBX 9 15 1 -3
BITMAP
0C00
1000
0800
0000
4100
C180
C080
8880
8880
8880
CC80
7700
0000
0800
0C00
ENDCHAR
STARTCHAR uni1FA2
ENCODING 8098
SWIDTH 701 0
DWIDTH 11 0
BBX 9 15 1 -3
BITMAP
3400
1400
1400
0000
4100
C180
C080
8880
8880
8880
CC80
7700
0000
0800
0C00
ENDCHAR
STARTCHAR uni1FA3
ENCODING 8099
SWIDTH 701 0
DWIDTH 11 0
BBX 9 15 1 -3
BITMAP
3400
2400
3400
0000
4100
C180
C080
8880
8880
8880
CC80
7700
0000
0800
0C00
ENDCHAR
STARTCHAR uni1FA4
ENCODING 8100
SWIDTH 701 0
DWIDTH 11 0
BBX 9 15 1 -3
BITMAP
3600
1400
1400
0000
4100
C180
C080
8880
8880
8880
CC80
7700
0000
0800
0C00
ENDCHAR
STARTCHAR uni1FA5
ENCODING 8101
SWIDTH 701 0
DWIDTH 11 0
BBX 9 15 1 -3
BITMAP
1600
2400
1400
0000
4100
C180
C080
8880
8880
8880
CC80
7700
0000
0800
0C00
ENDCHAR
STARTCHAR uni1FA6
ENCODING 8102
SWIDTH 701 0
DWIDTH 11 0
BBX 9 18 1 -3
BITMAP
1A00
2C00
0000
0800
0400
0800
0000
4100
C180
C080
8880
8880
8880
CC80
7700
0000
0800
0C00
ENDCHAR
STARTCHAR uni1FA7
ENCODING 8103
SWIDTH 701 0
DWIDTH 11 0
BBX 9 18 1 -3
BITMAP
1A00
2C00
0000
0C00
1000
0800
0000
4100
C180
C080
8880
8880
8880
CC80
7700
0000
0800
0C00
ENDCHAR
STARTCHAR uni1FA8
ENCODING 8104
SWIDTH 1031 0
DWIDTH 17 0
BBX 16 10 0 0
BITMAP
C780
4840
5020
9022
3022
1022
1022
1862
0842
3CF3
ENDCHAR
STARTCHAR uni1FA9
ENCODING 8105
SWIDTH 1018 0
DWIDTH 16 0
BBX 16 10 0 0
BITMAP
C780
98C0
9060
3026
3026
3026
1026
1066
08C6
3CE3
ENDCHAR
STARTCHAR uni1FAA
ENCODING 8106
SWIDTH 1158 0
DWIDTH 19 0
BBX 18 10 0 0
BITMAP
B1E000
521000
540800
840880
040880
040C80
040880
061880
021080
0F3CC0
ENDCHAR
STARTCHAR uni1FAB
ENCODING 8107
SWIDTH 1155 0
DWIDTH 18 0
BBX 18 10 0 0
BITMAP
F1E000
921000
940800
840880
0C0880
0C0880
040880
061880
021080
0F3CC0
ENDCHAR
STARTCHAR uni1FAC
ENCODING 8108
SWIDTH 1154 0
DWIDTH 18 0
BBX 18 10 0 0
BITMAP
91E000
521000
541800
A40880
0C0880
0C0880
040880
061880
023080
0F3CC0
ENDCHAR
STARTCHAR uni1FAD
ENCODING 8109
SWIDTH 1150 0
DWIDTH 18 0
BBX 18 10 0 0
BITMAP
D1E000
961000
A41800
840880
0C0880
0C0880
040880
041880
023080
0F3CC0
ENDCHAR
STARTCHAR uni1FAE
ENCODING 8110
SWIDTH 1078 0
DWIDTH 17 0
BBX 17 11 0 0
BITMAP
E00000
E3C000
4C6000
283000
D81300
181300
181300
181300
082300
046300
1E7180
ENDCHAR
STARTCHAR uni1FAF
ENCODING 8111
SWIDTH 1078 0
DWIDTH 17 0
BBX 17 11 0 0
BITMAP
E00000
E3C000
4C6000
A83000
581300
181300
181300
181300
082300
046300
1E7180
ENDCHAR
STARTCHAR uni1FB0
ENCODING 8112
SWIDTH 560 0
DWIDTH 9 0
BBX 8 12 1 0
BITMAP
44
44
38
00
7A
CA
86
86
84
84
CC
77
ENDCHAR
STARTCHAR uni1FB1
ENCODING 8113
SWIDTH 560 0
DWIDTH 9 0
BBX 8 11 1 0
BITMAP
7C
00
00
7A
CA
86
86
84
84
CC
77
ENDCHAR
STARTCHAR uni1FB2
ENCODING 8114
SWIDTH 560 0
DWIDTH 9 0
BBX 8 15 1 -3
BITMAP
20
70
10
00
7A
CA
86
86
84
84
CC
77
00
10
18
ENDCHAR
STARTCHAR uni1FB3
ENCODING 8115
SWIDTH 560 0
DWIDTH 9 0
BBX 8 11 1 -3
BITMAP
7A
CA
86
86
84
84
CC
77
00
10
18
ENDCHAR
STARTCHAR uni1FB4
ENCODING 8116
SWIDTH 560 0
DWIDTH 9 0
BBX 8 15 1 -3
BITMAP
08
0C
10
00
7A
CA
86
86
84
84
CC
77
00
10
18
ENDCHAR
STARTCHAR uni1FB6
ENCODING 8118
SWIDTH 560 0
DWIDTH 9 0
BBX 8 11 1 0
BITMAP
74
4C
00
7A
CA
86
86
84
84
CC
77
ENDCHAR
STARTCHAR uni1FB7
ENCODING 8119
SWIDTH 560 0
DWIDTH 9 0
BBX 8 14 1 -3
BITMAP
74
4C
00
7A
CA
86
86
84
84
CC
77
00
10
18
ENDCHAR
STARTCHAR uni1FB8
ENCODING 8120
SWIDTH 544 0
DWIDTH 9 0
BBX 9 13 0 0
BITMAP
2200
1C00
0000
1800
1C00
1400
3400
2600
2200
7E00
4300
4100
C180
ENDCHAR
STARTCHAR uni1FB9
ENCODING 8121
SWIDTH 544 0
DWIDTH 9 0
BBX 9 12 0 0
BITMAP
3C00
0000
1800
1C00
1400
3400
2600
2200
7E00
4300
4100
C180
ENDCHAR
STARTCHAR uni1FBA
ENCODING 8122
SWIDTH 566 0
DWIDTH 9 0
BBX 9 10 0 0
BITMAP
8C00
DC00
5400
1600
3200
2200
3F00
6100
4100
C180
ENDCHAR
STARTCHAR uni1FBB
ENCODING 8123
SWIDTH 566 0
DWIDTH 9 0
BBX 9 10 0 0
BITMAP
CC00
9C00
9400
1600
3200
2200
3F00
6100
4100
C180
ENDCHAR
STARTCHAR uni1FBC
ENCODING 8124
SWIDTH 802 0
DWIDTH 13 0
BBX 12 10 0 0
BITMAP
1800
1C00
1400
3420
2620
2220
7E20
4320
4120
C1B0
ENDCHAR
STARTCHAR uni1FBD
ENCODING 8125
SWIDTH 542 0
DWIDTH 9 0
BBX 3 4 3 9
BITMAP
C0
60
60
40
ENDCHAR
STARTCHAR uni1FBE
ENCODING 8126
SWIDTH 262 0
DWIDTH 4 0
BBX 3 7 1 0
BITMAP
C0
C0
C0
C0
C0
C0
60
ENDCHAR
STARTCHAR uni1FBF
ENCODING 8127
SWIDTH 542 0
DWIDTH 9 0
BBX 3 4 3 9
BITMAP
C0
60
60
40
ENDCHAR
STARTCHAR uni1FC0
ENCODING 8128
SWIDTH 542 0
DWIDTH 9 0
BBX 5 2 2 9
BITMAP
E8
B8
ENDCHAR
STARTCHAR uni1FC1
ENCODING 8129
SWIDTH 542 0
DWIDTH 9 0
BBX 5 4 2 10
BITMAP
C8
B0
00
D8
ENDCHAR
STARTCHAR uni1FC2
ENCODING 8130
SWIDTH 541 0
DWIDTH 9 0
BBX 6 15 1 -3
BITMAP
20
70
18
00
9C
A4
C4
C4
C4
C4
C4
C4
04
84
40
ENDCHAR
STARTCHAR uni1FC3
ENCODING 8131
SWIDTH 541 0
DWIDTH 9 0
BBX 6 11 1 -3
BITMAP
9C
A4
C4
C4
C4
C4
C4
C4
04
84
40
ENDCHAR
STARTCHAR uni1FC4
ENCODING 8132
SWIDTH 541 0
DWIDTH 9 0
BBX 6 15 1 -3
BITMAP
04
08
10
00
9C
A4
C4
C4
C4
C4
C4
C4
04
84
40
ENDCHAR
STARTCHAR uni1FC6
ENCODING 8134
SWIDTH 541 0
DWIDTH 9 0
BBX 6 13 1 -2
BITMAP
74
4C
00
9C
A4
C4
C4
C4
C4
C4
C4
04
04
ENDCHAR
STARTCHAR uni1FC7
ENCODING 8135
SWIDTH 541 0
DWIDTH 9 0
BBX 6 14 1 -3
BITMAP
74
4C
00
9C
A4
C4
C4
C4
C4
C4
C4
04
84
40
ENDCHAR
STARTCHAR uni1FC8
ENCODING 8136
SWIDTH 591 0
DWIDTH 9 0
BBX 9 10 0 0
BITMAP
BF80
B000
B000
3000
3F00
3000
3000
3000
3000
3F80
ENDCHAR
STARTCHAR uni1FC9
ENCODING 8137
SWIDTH 591 0
DWIDTH 9 0
BBX 9 10 0 0
BITMAP
BF80
B000
B000
3000
3F00
3000
3000
3000
3000
3F80
ENDCHAR
STARTCHAR uni1FCA
ENCODING 8138
SWIDTH 716 0
DWIDTH 11 0
BBX 10 10 0 0
BITMAP
B040
B040
B040
3040
3FC0
3040
3040
3040
3040
3040
ENDCHAR
STARTCHAR uni1FCB
ENCODING 8139
SWIDTH 716 0
DWIDTH 11 0
BBX 10 10 0 0
BITMAP
B040
B040
B040
3040
3FC0
3040
3040
3040
3040
3040
ENDCHAR
STARTCHAR uni1FCC
ENCODING 8140
SWIDTH 910 0
DWIDTH 15 0
BBX 13 10 1 0
BITMAP
C100
C100
C100
C110
FF10
C110
C110
C110
C110
C118
ENDCHAR
STARTCHAR uni1FCD
ENCODING 8141
SWIDTH 542 0
DWIDTH 9 0
BBX 4 3 2 9
BITMAP
F0
50
D0
ENDCHAR
STARTCHAR uni1FCE
ENCODING 8142
SWIDTH 542 0
DWIDTH 9 0
BBX 4 3 2 9
BITMAP
D0
50
D0
ENDCHAR
STARTCHAR uni1FCF
ENCODING 8143
SWIDTH 542 0
DWIDTH 9 0
BBX 5 6 2 9
BITMAP
48
B0
00
60
20
20
ENDCHAR
STARTCHAR uni1FD0
ENCODING 8144
SWIDTH 262 0
DWIDTH 4 0
BBX 5 12 -1 0
BITMAP
88
48
70
00
30
30
30
30
30
30
30
18
ENDCHAR
STARTCHAR uni1FD1
ENCODING 8145
SWIDTH 262 0
DWIDTH 4 0
BBX 4 11 0 0
BITMAP
F0
00
00
60
60
60
60
60
60
60
30
ENDCHAR
STARTCHAR uni1FD2
ENCODING 8146
SWIDTH 262 0
DWIDTH 4 0
BBX 5 12 -1 0
BITMAP
20
E8
10
00
30
30
30
30
30
30
30
18
ENDCHAR
STARTCHAR uni1FD3
ENCODING 8147
SWIDTH 262 0
DWIDTH 4 0
BBX 5 12 -1 0
BITMAP
10
D8
20
00
30
30
30
30
30
30
30
18
ENDCHAR
STARTCHAR uni1FD6
ENCODING 8150
SWIDTH 262 0
DWIDTH 4 0
BBX 6 11 -1 0
BITMAP
64
98
00
30
30
30
30
30
30
30
18
ENDCHAR
STARTCHAR uni1FD7
ENCODING 8151
SWIDTH 262 0
DWIDTH 4 0
BBX 4 14 0 0
BITMAP
D0
B0
00
90
00
00
60
60
60
60
60
60
60
30
ENDCHAR
STARTCHAR uni1FD8
ENCODING 8152
SWIDTH 263 0
DWIDTH 4 0
BBX 4 13 0 0
BITMAP
90
F0
00
60
60
60
60
60
60
60
60
60
60
ENDCHAR
STARTCHAR uni1FD9
ENCODING 8153
SWIDTH 263 0
DWIDTH 4 0
BBX 4 12 0 0
BITMAP
F0
00
60
60
60
60
60
60
60
60
60
60
ENDCHAR
STARTCHAR uni1FDA
ENCODING 8154
SWIDTH 327 0
DWIDTH 5 0
BBX 4 10 0 0
BITMAP
B0
B0
B0
30
30
30
30
30
30
30
ENDCHAR
STARTCHAR uni1FDB
ENCODING 8155
SWIDTH 327 0
DWIDTH 5 0
BBX 4 10 0 0
BITMAP
B0
B0
B0
30
30
30
30
30
30
30
ENDCHAR
STARTCHAR uni1FDD
ENCODING 8157
SWIDTH 542 0
DWIDTH 9 0
BBX 4 3 2 9
BITMAP
F0
90
90
ENDCHAR
STARTCHAR uni1FDE
ENCODING 8158
SWIDTH 542 0
DWIDTH 9 0
BBX 4 3 2 9
BITMAP
D0
90
E0
ENDCHAR
STARTCHAR uni1FDF
ENCODING 8159
SWIDTH 542 0
DWIDTH 9 0
BBX 5 6 2 9
BITMAP
48
B0
00
20
40
20
ENDCHAR
STARTCHAR uni1FE0
ENCODING 8160
SWIDTH 510 0
DWIDTH 8 0
BBX 6 12 1 0
BITMAP
88
48
70
00
8C
84
84
84
84
84
CC
78
ENDCHAR
STARTCHAR uni1FE1
ENCODING 8161
SWIDTH 510 0
DWIDTH 8 0
BBX 6 11 1 0
BITMAP
78
00
00
8C
84
84
84
84
84
CC
78
ENDCHAR
STARTCHAR uni1FE2
ENCODING 8162
SWIDTH 510 0
DWIDTH 8 0
BBX 6 12 1 0
BITMAP
20
E8
20
10
8C
84
84
84
84
84
CC
78
ENDCHAR
STARTCHAR uni1FE3
ENCODING 8163
SWIDTH 510 0
DWIDTH 8 0
BBX 6 12 1 0
BITMAP
10
D8
20
00
8C
84
84
84
84
84
CC
78
ENDCHAR
STARTCHAR uni1FE4
ENCODING 8164
SWIDTH 549 0
DWIDTH 9 0
BBX 7 15 1 -2
BITMAP
10
08
08
10
00
3C
44
C2
C2
C2
C6
C4
F8
C0
C0
ENDCHAR
STARTCHAR uni1FE5
ENCODING 8165
SWIDTH 549 0
DWIDTH 9 0
BBX 7 14 1 -2
BITMAP
18
20
10
00
3C
44
C2
C2
C2
C6
C4
F8
C0
C0
ENDCHAR
STARTCHAR uni1FE6
ENCODING 8166
SWIDTH 510 0
DWIDTH 8 0
BBX 6 11 1 0
BITMAP
E4
98
00
8C
84
84
84
84
84
CC
78
ENDCHAR
STARTCHAR uni1FE7
ENCODING 8167
SWIDTH 510 0
DWIDTH 8 0
BBX 6 14 1 0
BITMAP
68
98
00
48
00
00
8C
84
84
84
84
84
CC
78
ENDCHAR
STARTCHAR uni1FE8
ENCODING 8168
SWIDTH 476 0
DWIDTH 8 0
BBX 8 13 0 0
BITMAP
64
38
00
C3
42
64
24
38
18
10
10
10
10
ENDCHAR
STARTCHAR uni1FE9
ENCODING 8169
SWIDTH 476 0
DWIDTH 8 0
BBX 8 12 0 0
BITMAP
3C
00
C3
42
64
24
38
18
10
10
10
10
ENDCHAR
STARTCHAR uni1FEA
ENCODING 8170
SWIDTH 600 0
DWIDTH 10 0
BBX 10 10 0 0
BITMAP
B0C0
9080
9900
0900
0E00
0600
0400
0400
0400
0400
ENDCHAR
STARTCHAR uni1FEB
ENCODING 8171
SWIDTH 600 0
DWIDTH 10 0
BBX 10 10 0 0
BITMAP
B0C0
9080
9900
0900
0E00
0600
0400
0400
0400
0400
ENDCHAR
STARTCHAR uni1FEC
ENCODING 8172
SWIDTH 684 0
DWIDTH 11 0
BBX 10 10 0 0
BITMAP
DF80
98C0
9840
5840
18C0
1F80
1800
1800
1800
1800
ENDCHAR
STARTCHAR uni1FED
ENCODING 8173
SWIDTH 542 0
DWIDTH 9 0
BBX 5 3 2 9
BITMAP
40
B8
20
ENDCHAR
STARTCHAR uni1FEE
ENCODING 8174
SWIDTH 542 0
DWIDTH 9 0
BBX 5 3 2 9
BITMAP
20
B8
20
ENDCHAR
STARTCHAR uni1FEF
ENCODING 8175
SWIDTH 542 0
DWIDTH 9 0
BBX 2 3 3 9
BITMAP
80
C0
40
ENDCHAR
STARTCHAR uni1FF2
ENCODING 8178
SWIDTH 701 0
DWIDTH 11 0
BBX 9 15 1 -3
BITMAP
1000
3800
0800
0000
4100
C180
C080
8880
8880
8880
CC80
7700
0000
0800
0C00
ENDCHAR
STARTCHAR uni1FF3
ENCODING 8179
SWIDTH 701 0
DWIDTH 11 0
BBX 9 11 1 -3
BITMAP
4100
C180
C080
8880
8880
8880
CC80
7700
0000
0800
0C00
ENDCHAR
STARTCHAR uni1FF4
ENCODING 8180
SWIDTH 701 0
DWIDTH 11 0
BBX 9 15 1 -3
BITMAP
0600
0400
0800
0000
4100
C180
C080
8880
8880
8880
CC80
7700
0000
0800
0C00
ENDCHAR
STARTCHAR uni1FF6
ENCODING 8182
SWIDTH 701 0
DWIDTH 11 0
BBX 9 11 1 0
BITMAP
3A00
2600
0000
4100
C180
C080
8880
8880
8880
CC80
7700
ENDCHAR
STARTCHAR uni1FF7
ENCODING 8183
SWIDTH 701 0
DWIDTH 11 0
BBX 9 14 1 -3
BITMAP
3A00
2600
0000
4100
C180
C080
8880
8880
8880
CC80
7700
0000
0800
0C00
ENDCHAR
STARTCHAR uni1FF8
ENCODING 8184
SWIDTH 717 0
DWIDTH 11 0
BBX 11 10 0 0
BITMAP
8F00
90C0
B040
2060
2060
2060
2040
3040
18C0
0F00
ENDCHAR
STARTCHAR uni1FF9
ENCODING 8185
SWIDTH 711 0
DWIDTH 11 0
BBX 11 10 0 0
BITMAP
8F00
9080
B040
2040
2060
2060
2040
3040
1080
0F00
ENDCHAR
STARTCHAR uni1FFA
ENCODING 8186
SWIDTH 726 0
DWIDTH 12 0
BBX 11 10 0 0
BITMAP
8F00
98C0
B040
2060
2060
2060
2040
3040
1880
39E0
ENDCHAR
STARTCHAR uni1FFB
ENCODING 8187
SWIDTH 723 0
DWIDTH 12 0
BBX 11 10 0 0
BITMAP
8F00
90C0
B040
2060
2060
2060
2040
3040
1880
79E0
ENDCHAR
STARTCHAR uni1FFC
ENCODING 8188
SWIDTH 935 0
DWIDTH 15 0
BBX 14 10 1 0
BITMAP
3E00
6300
C100
8190
8090
8090
C190
4110
6210
E79C
ENDCHAR
STARTCHAR uni1FFD
ENCODING 8189
SWIDTH 542 0
DWIDTH 9 0
BBX 2 3 4 9
BITMAP
C0
80
80
ENDCHAR
STARTCHAR uni1FFE
ENCODING 8190
SWIDTH 542 0
DWIDTH 9 0
BBX 2 3 3 9
BITMAP
40
80
C0
ENDCHAR
STARTCHAR uni2007
ENCODING 8199
SWIDTH 497 0
DWIDTH 8 0
BBX 1 1 0 0
BITMAP
00
ENDCHAR
STARTCHAR figuredash
ENCODING 8210
SWIDTH 497 0
DWIDTH 8 0
BBX 6 1 1 4
BITMAP
FC
ENDCHAR
STARTCHAR endash
ENCODING 8211
SWIDTH 480 0
DWIDTH 8 0
BBX 6 1 1 4
BITMAP
FC
ENDCHAR
STARTCHAR emdash
ENCODING 8212
SWIDTH 800 0
DWIDTH 13 0
BBX 11 1 1 4
BITMAP
FFE0
ENDCHAR
STARTCHAR uni2015
ENCODING 8213
SWIDTH 800 0
DWIDTH 13 0
BBX 11 1 1 4
BITMAP
FFE0
ENDCHAR
STARTCHAR uni2016
ENCODING 8214
SWIDTH 390 0
DWIDTH 6 0
BBX 4 16 1 -4
BITMAP
90
90
90
90
90
90
90
90
90
90
90
90
90
90
90
90
ENDCHAR
STARTCHAR quoteleft
ENCODING 8216
SWIDTH 249 0
DWIDTH 4 0
BBX 2 4 1 7
BITMAP
40
80
80
C0
ENDCHAR
STARTCHAR quoteright
ENCODING 8217
SWIDTH 249 0
DWIDTH 4 0
BBX 2 4 1 7
BITMAP
C0
40
40
80
ENDCHAR
STARTCHAR quotesinglbase
ENCODING 8218
SWIDTH 249 0
DWIDTH 4 0
BBX 2 4 1 -2
BITMAP
C0
40
40
80
ENDCHAR
STARTCHAR quotedblleft
ENCODING 8220
SWIDTH 425 0
DWIDTH 7 0
BBX 5 4 1 7
BITMAP
50
98
90
D8
ENDCHAR
STARTCHAR quotedblright
ENCODING 8221
SWIDTH 425 0
DWIDTH 7 0
BBX 5 4 1 7
BITMAP
D8
48
50
A0
ENDCHAR
STARTCHAR quotedblbase
ENCODING 8222
SWIDTH 425 0
DWIDTH 7 0
BBX 5 4 1 -2
BITMAP
D8
48
50
A0
ENDCHAR
STARTCHAR dagger
ENCODING 8224
SWIDTH 454 0
DWIDTH 7 0
BBX 5 12 1 -1
BITMAP
20
20
F8
20
20
20
20
20
20
20
20
20
ENDCHAR
STARTCHAR daggerdbl
ENCODING 8225
SWIDTH 454 0
DWIDTH 7 0
BBX 5 12 1 -1
BITMAP
20
20
F8
20
20
20
20
20
20
F8
20
20
ENDCHAR
STARTCHAR bullet
ENCODING 8226
SWIDTH 304 0
DWIDTH 5 0
BBX 3 4 1 2
BITMAP
E0
E0
E0
E0
ENDCHAR
STARTCHAR ellipsis
ENCODING 8230
SWIDTH 948 0
DWIDTH 15 0
BBX 12 2 2 0
BITMAP
8630
8630
ENDCHAR
STARTCHAR uni202F
ENCODING 8239
SWIDTH 125 0
DWIDTH 2 0
BBX 1 1 0 0
BITMAP
00
ENDCHAR
STARTCHAR perthousand
ENCODING 8240
SWIDTH 1194 0
DWIDTH 19 0
BBX 18 10 1 0
BITMAP
E08000
910000
920000
92E380
952480
E51480
091440
091480
112480
20E380
ENDCHAR
STARTCHAR uni2032
ENCODING 8242
SWIDTH 249 0
DWIDTH 4 0
BBX 2 4 1 7
BITMAP
40
40
C0
80
ENDCHAR
STARTCHAR uni2033
ENCODING 8243
SWIDTH 426 0
DWIDTH 7 0
BBX 5 4 1 7
BITMAP
58
58
D0
90
ENDCHAR
STARTCHAR uni2035
ENCODING 8245
SWIDTH 249 0
DWIDTH 4 0
BBX 2 4 1 7
BITMAP
80
80
C0
40
ENDCHAR
STARTCHAR guilsinglleft
ENCODING 8249
SWIDTH 271 0
DWIDTH 4 0
BBX 2 6 1 1
BITMAP
40
40
80
80
40
40
ENDCHAR
STARTCHAR guilsinglright
ENCODING 8250
SWIDTH 271 0
DWIDTH 4 0
BBX 3 6 1 1
BITMAP
80
40
60
60
40
80
ENDCHAR
STARTCHAR uni203C
ENCODING 8252
SWIDTH 549 0
DWIDTH 9 0
BBX 6 11 1 0
BITMAP
44
44
44
44
44
44
44
44
00
C4
C4
ENDCHAR
STARTCHAR uni203D
ENCODING 8253
SWIDTH 432 0
DWIDTH 7 0
BBX 6 11 0 0
BITMAP
78
CC
34
14
1C
18
10
10
00
30
30
ENDCHAR
STARTCHAR uni203E
ENCODING 8254
SWIDTH 500 0
DWIDTH 8 0
BBX 8 1 0 9
BITMAP
FF
ENDCHAR
STARTCHAR uni203F
ENCODING 8255
SWIDTH 0 0
DWIDTH 0 0
BBX 14 3 -7 -4
BITMAP
8004
6018
1FE0
ENDCHAR
STARTCHAR fraction
ENCODING 8260
SWIDTH 86 0
DWIDTH 1 0
BBX 7 11 -3 0
BITMAP
02
04
04
08
08
10
10
20
20
40
80
ENDCHAR
STARTCHAR uni2047
ENCODING 8263
SWIDTH 815 0
DWIDTH 13 0
BBX 11 11 1 0
BITMAP
71C0
9A20
0820
0820
1060
30C0
2080
2080
0000
6080
6180
ENDCHAR
STARTCHAR uni2048
ENCODING 8264
SWIDTH 679 0
DWIDTH 11 0
BBX 9 11 1 0
BITMAP
7100
9900
0900
0900
1100
3100
2100
2100
0000
6100
6180
ENDCHAR
STARTCHAR uni2049
ENCODING 8265
SWIDTH 679 0
DWIDTH 11 0
BBX 9 11 1 0
BITMAP
4700
4980
4080
4080
4100
4300
4200
4200
0000
C600
C600
ENDCHAR
STARTCHAR zero.sups
ENCODING 8304
SWIDTH 367 0
DWIDTH 6 0
BBX 4 6 1 6
BITMAP
E0
90
90
90
90
E0
ENDCHAR
STARTCHAR i.sups
ENCODING 8305
SWIDTH 166 0
DWIDTH 3 0
BBX 1 7 1 6
BITMAP
80
00
80
80
80
80
80
ENDCHAR
STARTCHAR four.sups
ENCODING 8308
SWIDTH 367 0
DWIDTH 6 0
BBX 4 6 1 6
BITMAP
20
60
A0
F0
20
20
ENDCHAR
STARTCHAR five.sups
ENCODING 8309
SWIDTH 367 0
DWIDTH 6 0
BBX 4 6 1 6
BITMAP
F0
80
F0
90
90
E0
ENDCHAR
STARTCHAR six.sups
ENCODING 8310
SWIDTH 367 0
DWIDTH 6 0
BBX 4 6 1 6
BITMAP
70
80
F0
90
90
70
ENDCHAR
STARTCHAR seven.sups
ENCODING 8311
SWIDTH 367 0
DWIDTH 6 0
BBX 4 6 1 6
BITMAP
F0
10
20
20
40
40
ENDCHAR
STARTCHAR eight.sups
ENCODING 8312
SWIDTH 367 0
DWIDTH 6 0
BBX 4 6 1 6
BITMAP
F0
90
60
90
90
E0
ENDCHAR
STARTCHAR nine.sups
ENCODING 8313
SWIDTH 367 0
DWIDTH 6 0
BBX 4 6 1 6
BITMAP
E0
90
90
F0
10
E0
ENDCHAR
STARTCHAR parenleft.sups
ENCODING 8317
SWIDTH 237 0
DWIDTH 4 0
BBX 2 9 1 5
BITMAP
40
40
80
80
80
80
80
40
40
ENDCHAR
STARTCHAR parenright.sups
ENCODING 8318
SWIDTH 237 0
DWIDTH 4 0
BBX 2 9 1 5
BITMAP
80
80
40
40
40
40
40
80
80
ENDCHAR
STARTCHAR n.sups
ENCODING 8319
SWIDTH 369 0
DWIDTH 6 0
BBX 4 6 1 6
BITMAP
F0
90
90
90
90
90
ENDCHAR
STARTCHAR zero.subs
ENCODING 8320
SWIDTH 367 0
DWIDTH 6 0
BBX 4 6 1 -3
BITMAP
E0
90
90
90
90
E0
ENDCHAR
STARTCHAR one.subs
ENCODING 8321
SWIDTH 367 0
DWIDTH 6 0
BBX 3 6 1 -3
BITMAP
E0
20
20
20
20
20
ENDCHAR
STARTCHAR two.subs
ENCODING 8322
SWIDTH 367 0
DWIDTH 6 0
BBX 4 6 1 -3
BITMAP
E0
90
10
20
40
F0
ENDCHAR
STARTCHAR three.subs
ENCODING 8323
SWIDTH 367 0
DWIDTH 6 0
BBX 4 6 1 -3
BITMAP
60
90
60
10
90
E0
ENDCHAR
STARTCHAR four.subs
ENCODING 8324
SWIDTH 367 0
DWIDTH 6 0
BBX 4 6 1 -3
BITMAP
20
60
A0
F0
20
20
ENDCHAR
STARTCHAR five.subs
ENCODING 8325
SWIDTH 367 0
DWIDTH 6 0
BBX 4 6 1 -3
BITMAP
F0
80
F0
90
90
E0
ENDCHAR
STARTCHAR six.subs
ENCODING 8326
SWIDTH 367 0
DWIDTH 6 0
BBX 4 6 1 -3
BITMAP
70
80
F0
90
90
70
ENDCHAR
STARTCHAR seven.subs
ENCODING 8327
SWIDTH 367 0
DWIDTH 6 0
BBX 4 6 1 -3
BITMAP
F0
10
20
20
40
40
ENDCHAR
STARTCHAR eight.subs
ENCODING 8328
SWIDTH 367 0
DWIDTH 6 0
BBX 4 6 1 -3
BITMAP
F0
90
60
90
90
E0
ENDCHAR
STARTCHAR nine.subs
ENCODING 8329
SWIDTH 367 0
DWIDTH 6 0
BBX 4 6 1 -3
BITMAP
E0
90
90
F0
10
E0
ENDCHAR
STARTCHAR parenleft.subs
ENCODING 8333
SWIDTH 237 0
DWIDTH 4 0
BBX 2 9 1 -4
BITMAP
40
40
80
80
80
80
80
40
40
ENDCHAR
STARTCHAR parenright.subs
ENCODING 8334
SWIDTH 237 0
DWIDTH 4 0
BBX 2 9 1 -4
BITMAP
80
80
40
40
40
40
40
80
80
ENDCHAR
STARTCHAR uni0259.sups
ENCODING 8340
SWIDTH 336 0
DWIDTH 5 0
BBX 5 6 0 6
BITMAP
70
18
08
F8
88
70
ENDCHAR
STARTCHAR colonmonetary
ENCODING 8353
SWIDTH 497 0
DWIDTH 8 0
BBX 7 14 1 -2
BITMAP
1C
18
3C
76
E8
A8
A8
A8
A8
F0
76
3C
50
50
ENDCHAR
STARTCHAR lira
ENCODING 8356
SWIDTH 497 0
DWIDTH 8 0
BBX 6 10 1 0
BITMAP
3C
64
40
40
F8
60
F8
60
40
FC
ENDCHAR
STARTCHAR uni20A6
ENCODING 8358
SWIDTH 497 0
DWIDTH 8 0
BBX 8 10 0 0
BITMAP
62
62
52
FF
5A
FF
4A
4A
46
46
ENDCHAR
STARTCHAR peseta
ENCODING 8359
SWIDTH 497 0
DWIDTH 8 0
BBX 8 10 0 0
BITMAP
7C
66
FF
66
64
78
60
60
60
60
ENDCHAR
STARTCHAR uni20A9
ENCODING 8361
SWIDTH 497 0
DWIDTH 8 0
BBX 8 10 0 0
BITMAP
81
DB
5A
5A
FF
6A
6A
66
66
66
ENDCHAR
STARTCHAR dong
ENCODING 8363
SWIDTH 497 0
DWIDTH 8 0
BBX 7 11 1 0
BITMAP
0C
3E
0C
7C
CC
8C
8C
CC
74
00
FC
ENDCHAR
STARTCHAR Euro
ENCODING 8364
SWIDTH 497 0
DWIDTH 8 0
BBX 8 10 0 0
BITMAP
1E
33
20
FE
60
FC
20
20
33
1E
ENDCHAR
STARTCHAR uni20AE
ENCODING 8366
SWIDTH 497 0
DWIDTH 8 0
BBX 6 10 1 0
BITMAP
FC
30
34
38
74
B8
70
B0
30
30
ENDCHAR
STARTCHAR uni20B1
ENCODING 8369
SWIDTH 497 0
DWIDTH 8 0
BBX 8 10 0 0
BITMAP
78
64
FF
66
FF
7C
60
60
60
60
ENDCHAR
STARTCHAR uni20B2
ENCODING 8370
SWIDTH 497 0
DWIDTH 8 0
BBX 6 14 1 -2
BITMAP
10
10
3C
44
C0
80
80
8C
84
C4
44
3C
10
10
ENDCHAR
STARTCHAR uni20B4
ENCODING 8372
SWIDTH 497 0
DWIDTH 8 0
BBX 8 10 0 0
BITMAP
3C
44
06
FF
18
FF
60
60
22
3C
ENDCHAR
STARTCHAR uni20B5
ENCODING 8373
SWIDTH 497 0
DWIDTH 8 0
BBX 7 14 1 -2
BITMAP
10
10
3C
56
D0
90
90
90
90
D0
56
3C
10
10
ENDCHAR
STARTCHAR uni20B8
ENCODING 8376
SWIDTH 497 0
DWIDTH 8 0
BBX 6 10 1 0
BITMAP
FC
00
FC
30
30
30
30
30
30
30
ENDCHAR
STARTCHAR uni20B9
ENCODING 8377
SWIDTH 497 0
DWIDTH 8 0
BBX 6 10 1 0
BITMAP
FC
18
FC
08
18
F0
20
30
18
0C
ENDCHAR
STARTCHAR uni20BA
ENCODING 8378
SWIDTH 497 0
DWIDTH 8 0
BBX 7 10 0 0
BITMAP
20
24
38
64
B8
62
A2
22
26
38
ENDCHAR
STARTCHAR uni20BD
ENCODING 8381
SWIDTH 497 0
DWIDTH 8 0
BBX 7 10 0 0
BITMAP
7C
66
62
66
FC
60
FC
60
60
60
ENDCHAR
STARTCHAR uni2113
ENCODING 8467
SWIDTH 409 0
DWIDTH 7 0
BBX 6 11 0 0
BITMAP
18
24
24
24
2C
28
30
60
E0
24
1C
ENDCHAR
STARTCHAR uni2116
ENCODING 8470
SWIDTH 893 0
DWIDTH 14 0
BBX 13 10 1 0
BITMAP
C270
E2C8
E288
F288
D2C8
D270
CA00
CA78
C600
8600
ENDCHAR
STARTCHAR uni2117
ENCODING 8471
SWIDTH 743 0
DWIDTH 12 0
BBX 10 11 1 0
BITMAP
1E00
6180
4080
9E40
9340
9340
9E40
9040
5080
6180
1E00
ENDCHAR
STARTCHAR uni2120
ENCODING 8480
SWIDTH 637 0
DWIDTH 10 0
BBX 10 5 0 6
BITMAP
74C0
46C0
6740
9540
7440
ENDCHAR
STARTCHAR trademark
ENCODING 8482
SWIDTH 637 0
DWIDTH 10 0
BBX 10 6 0 6
BITMAP
F000
E4C0
2740
2740
2640
2440
ENDCHAR
STARTCHAR uni2126
ENCODING 8486
SWIDTH 678 0
DWIDTH 11 0
BBX 9 10 1 0
BITMAP
3E00
6300
C100
8180
8080
8080
C180
4100
6200
E780
ENDCHAR
STARTCHAR estimated
ENCODING 8494
SWIDTH 800 0
DWIDTH 13 0
BBX 11 10 1 0
BITMAP
1F00
6080
C040
C060
FFE0
C000
C000
C000
60C0
1F00
ENDCHAR
STARTCHAR uni2150
ENCODING 8528
SWIDTH 804 0
DWIDTH 13 0
BBX 11 11 1 0
BITMAP
0100
C200
4200
4400
4400
49E0
4820
1040
1040
2080
6080
ENDCHAR
STARTCHAR uni2151
ENCODING 8529
SWIDTH 804 0
DWIDTH 13 0
BBX 11 11 1 0
BITMAP
0100
C100
4200
4400
4400
49C0
4920
1120
11E0
2020
21C0
ENDCHAR
STARTCHAR uni2152
ENCODING 8530
SWIDTH 1092 0
DWIDTH 17 0
BBX 16 11 1 0
BITMAP
0100
C100
4200
4200
440E
49DB
48D1
10D1
10D1
20DB
20CE
ENDCHAR
STARTCHAR onethird
ENCODING 8531
SWIDTH 804 0
DWIDTH 13 0
BBX 11 11 1 0
BITMAP
0100
C200
4200
4400
4400
49C0
4920
10C0
1020
2120
61C0
ENDCHAR
STARTCHAR twothirds
ENCODING 8532
SWIDTH 821 0
DWIDTH 13 0
BBX 11 11 1 0
BITMAP
0080
E100
9100
1200
2200
44E0
F520
08C0
1020
1120
20E0
ENDCHAR
STARTCHAR uni2155
ENCODING 8533
SWIDTH 804 0
DWIDTH 13 0
BBX 11 11 1 0
BITMAP
0100
C200
4200
4400
4400
49E0
4900
11E0
1120
2120
61C0
ENDCHAR
STARTCHAR uni2156
ENCODING 8534
SWIDTH 821 0
DWIDTH 13 0
BBX 11 11 1 0
BITMAP
0080
E100
9100
1200
2200
44E0
F500
09E0
1120
1120
20E0
ENDCHAR
STARTCHAR uni2157
ENCODING 8535
SWIDTH 821 0
DWIDTH 13 0
BBX 11 11 1 0
BITMAP
0080
6100
9100
6200
1200
94E0
E900
09E0
1120
1120
20E0
ENDCHAR
STARTCHAR uni2158
ENCODING 8536
SWIDTH 846 0
DWIDTH 14 0
BBX 12 11 1 0
BITMAP
0080
2100
6100
A200
F200
24E0
2480
08E0
0910
1110
10E0
ENDCHAR
STARTCHAR uni2159
ENCODING 8537
SWIDTH 804 0
DWIDTH 13 0
BBX 11 11 1 0
BITMAP
0100
C100
4200
4400
4400
48E0
4900
11E0
1120
2120
21C0
ENDCHAR
STARTCHAR uni215A
ENCODING 8538
SWIDTH 821 0
DWIDTH 13 0
BBX 11 11 1 0
BITMAP
0080
F100
8100
F200
9200
94E0
E900
09E0
1120
1120
20E0
ENDCHAR
STARTCHAR oneeighth
ENCODING 8539
SWIDTH 804 0
DWIDTH 13 0
BBX 11 11 1 0
BITMAP
0100
C100
4200
4400
4400
49E0
4920
10C0
1120
2120
21C0
ENDCHAR
STARTCHAR threeeighths
ENCODING 8540
SWIDTH 821 0
DWIDTH 13 0
BBX 11 11 1 0
BITMAP
0080
6100
9100
6200
1200
94E0
E920
08C0
1120
1120
20E0
ENDCHAR
STARTCHAR fiveeighths
ENCODING 8541
SWIDTH 821 0
DWIDTH 13 0
BBX 11 11 1 0
BITMAP
0080
F100
8100
F200
9200
94E0
E920
08C0
1120
1120
20E0
ENDCHAR
STARTCHAR seveneighths
ENCODING 8542
SWIDTH 801 0
DWIDTH 13 0
BBX 12 11 0 0
BITMAP
0080
F900
1100
1200
2200
24E0
2490
0860
0890
1090
30E0
ENDCHAR
STARTCHAR uni2189
ENCODING 8585
SWIDTH 821 0
DWIDTH 13 0
BBX 11 11 1 0
BITMAP
0080
E100
9100
9200
9200
94E0
E920
08C0
1020
1120
20E0
ENDCHAR
STARTCHAR uni2190
ENCODING 8592
SWIDTH 619 0
DWIDTH 10 0
BBX 9 9 0 0
BITMAP
0800
0800
3000
6000
FF80
6000
3000
0800
0800
ENDCHAR
STARTCHAR arrowup
ENCODING 8593
SWIDTH 619 0
DWIDTH 10 0
BBX 8 9 1 -1
BITMAP
10
38
34
52
91
10
10
10
10
ENDCHAR
STARTCHAR uni2192
ENCODING 8594
SWIDTH 619 0
DWIDTH 10 0
BBX 8 9 1 0
BITMAP
10
08
04
02
FF
02
04
08
10
ENDCHAR
STARTCHAR arrowdown
ENCODING 8595
SWIDTH 619 0
DWIDTH 10 0
BBX 8 9 1 -1
BITMAP
10
10
10
10
91
52
34
38
10
ENDCHAR
STARTCHAR partialdiff
ENCODING 8706
SWIDTH 528 0
DWIDTH 8 0
BBX 7 10 1 0
BITMAP
38
44
06
06
7A
C6
86
84
8C
70
ENDCHAR
STARTCHAR uni2206
ENCODING 8710
SWIDTH 588 0
DWIDTH 9 0
BBX 9 10 0 0
BITMAP
0C00
1C00
1400
1200
3200
2300
2100
4100
4180
FF80
ENDCHAR
STARTCHAR product
ENCODING 8719
SWIDTH 673 0
DWIDTH 11 0
BBX 8 12 1 -2
BITMAP
FF
C1
C1
C1
C1
C1
C1
C1
C1
C1
C1
C1
ENDCHAR
STARTCHAR summation
ENCODING 8721
SWIDTH 504 0
DWIDTH 8 0
BBX 8 12 0 -2
BITMAP
7F
40
20
30
18
08
0C
10
30
20
40
FF
ENDCHAR
STARTCHAR minus
ENCODING 8722
SWIDTH 497 0
DWIDTH 8 0
BBX 6 1 1 5
BITMAP
FC
ENDCHAR
STARTCHAR uni2215
ENCODING 8725
SWIDTH 86 0
DWIDTH 1 0
BBX 7 11 -3 0
BITMAP
02
04
04
08
08
10
10
20
20
40
80
ENDCHAR
STARTCHAR uni2219
ENCODING 8729
SWIDTH 502 0
DWIDTH 8 0
BBX 2 2 3 4
BITMAP
C0
C0
ENDCHAR
STARTCHAR radical
ENCODING 8730
SWIDTH 557 0
DWIDTH 9 0
BBX 8 14 1 -1
BITMAP
01
01
02
02
02
02
44
C4
44
24
28
28
18
18
ENDCHAR
STARTCHAR infinity
ENCODING 8734
SWIDTH 782 0
DWIDTH 13 0
BBX 11 6 1 2
BITMAP
73C0
9E60
8C20
8C20
7260
01C0
ENDCHAR
STARTCHAR integral
ENCODING 8747
SWIDTH 332 0
DWIDTH 5 0
BBX 4 16 1 -3
BITMAP
30
40
40
40
40
40
40
40
60
60
20
20
20
20
60
C0
ENDCHAR
STARTCHAR approxequal
ENCODING 8776
SWIDTH 497 0
DWIDTH 8 0
BBX 6 6 1 2
BITMAP
E4
9C
00
00
E4
9C
ENDCHAR
STARTCHAR notequal
ENCODING 8800
SWIDTH 497 0
DWIDTH 8 0
BBX 6 8 1 1
BITMAP
04
08
FC
10
20
FC
40
80
ENDCHAR
STARTCHAR lessequal
ENCODING 8804
SWIDTH 497 0
DWIDTH 8 0
BBX 6 9 1 0
BITMAP
04
0C
70
80
70
1C
04
00
FC
ENDCHAR
STARTCHAR greaterequal
ENCODING 8805
SWIDTH 497 0
DWIDTH 8 0
BBX 6 9 1 0
BITMAP
80
C0
38
04
38
C0
80
00
FC
ENDCHAR
STARTCHAR uni231C
ENCODING 8988
SWIDTH 303 0
DWIDTH 5 0
BBX 3 11 1 0
BITMAP
E0
C0
C0
C0
C0
C0
C0
C0
C0
C0
C0
ENDCHAR
STARTCHAR uni231D
ENCODING 8989
SWIDTH 303 0
DWIDTH 5 0
BBX 3 11 0 0
BITMAP
E0
20
20
20
20
20
20
20
20
20
20
ENDCHAR
STARTCHAR uni231E
ENCODING 8990
SWIDTH 303 0
DWIDTH 5 0
BBX 3 11 1 -1
BITMAP
C0
C0
C0
C0
C0
C0
C0
C0
C0
C0
E0
ENDCHAR
STARTCHAR uni231F
ENCODING 8991
SWIDTH 303 0
DWIDTH 5 0
BBX 3 11 0 -1
BITMAP
20
20
20
20
20
20
20
20
20
20
E0
ENDCHAR
STARTCHAR uni25A0
ENCODING 9632
SWIDTH 895 0
DWIDTH 14 0
BBX 13 13 1 -1
BITMAP
FFF8
FFF8
FFF8
FFF8
FFF8
FFF8
FFF8
FFF8
FFF8
FFF8
FFF8
FFF8
FFF8
ENDCHAR
STARTCHAR triagup
ENCODING 9650
SWIDTH 895 0
DWIDTH 14 0
BBX 13 13 1 -1
BITMAP
0400
0600
0600
0F00
0F00
1F80
1F80
3FC0
3FC0
3FE0
7FE0
7FF0
FFF8
ENDCHAR
STARTCHAR uni25B3
ENCODING 9651
SWIDTH 895 0
DWIDTH 14 0
BBX 13 13 1 -1
BITMAP
0200
0600
0600
0900
0900
1080
1080
2040
2040
6020
4020
4010
FFF8
ENDCHAR
STARTCHAR uni25B6
ENCODING 9654
SWIDTH 895 0
DWIDTH 14 0
BBX 13 13 1 -1
BITMAP
8000
E000
F800
FE00
FF80
FFE0
FFF8
FFE0
FF80
FE00
F800
E000
8000
ENDCHAR
STARTCHAR uni25B7
ENCODING 9655
SWIDTH 895 0
DWIDTH 14 0
BBX 13 13 1 -1
BITMAP
8000
E000
9800
8600
8180
8060
8018
8060
8180
8600
9800
E000
8000
ENDCHAR
STARTCHAR triagdn
ENCODING 9660
SWIDTH 895 0
DWIDTH 14 0
BBX 13 13 1 -1
BITMAP
FFF8
7FF0
7FE0
3FE0
3FC0
3FC0
1F80
1F80
0F00
0F00
0600
0600
0400
ENDCHAR
STARTCHAR uni25BD
ENCODING 9661
SWIDTH 895 0
DWIDTH 14 0
BBX 13 13 1 -1
BITMAP
FFF8
4010
4020
6020
2040
2040
1080
1080
0900
0900
0600
0600
0200
ENDCHAR
STARTCHAR uni25C0
ENCODING 9664
SWIDTH 895 0
DWIDTH 14 0
BBX 14 13 0 -1
BITMAP
0004
001C
00FC
03FC
0FFC
3FFC
FFFC
3FFC
0FFC
03FC
00FC
001C
0004
ENDCHAR
STARTCHAR uni25C1
ENCODING 9665
SWIDTH 895 0
DWIDTH 14 0
BBX 14 13 0 -1
BITMAP
0004
001C
00E4
0384
0E04
3004
C004
3804
0E04
0384
00E4
001C
0004
ENDCHAR
STARTCHAR uni25C6
ENCODING 9670
SWIDTH 895 0
DWIDTH 14 0
BBX 14 14 0 -2
BITMAP
0100
0380
07C0
0FE0
1FF0
3FF0
7FF8
FFFC
3FF0
1FF0
0FE0
07C0
0380
0100
ENDCHAR
STARTCHAR uni25C9
ENCODING 9673
SWIDTH 895 0
DWIDTH 14 0
BBX 13 13 1 -1
BITMAP
0F80
3060
4730
9F90
9FD8
BFC8
BFC8
BFC8
BFD8
9F90
4730
3060
1F80
ENDCHAR
STARTCHAR lozenge
ENCODING 9674
SWIDTH 517 0
DWIDTH 8 0
BBX 6 10 1 0
BITMAP
30
38
48
4C
84
84
4C
48
38
30
ENDCHAR
STARTCHAR uni25CC
ENCODING 9676
SWIDTH 585 0
DWIDTH 9 0
BBX 8 8 1 0
BITMAP
10
64
82
00
83
82
00
74
ENDCHAR
STARTCHAR uni2610
ENCODING 9744
SWIDTH 799 0
DWIDTH 13 0
BBX 11 11 1 0
BITMAP
7FE0
8060
8060
8060
8060
8060
8060
8060
8060
8060
FFC0
ENDCHAR
STARTCHAR uni2611
ENCODING 9745
SWIDTH 799 0
DWIDTH 13 0
BBX 12 13 1 0
BITMAP
0010
0020
7FE0
80E0
81E0
8160
B360
9260
8A60
8C60
8C60
8060
FFC0
ENDCHAR
STARTCHAR uni266A
ENCODING 9834
SWIDTH 503 0
DWIDTH 8 0
BBX 8 11 0 0
BITMAP
0C
0E
0A
09
09
0A
08
08
78
78
F0
ENDCHAR
STARTCHAR uni2713
ENCODING 10003
SWIDTH 612 0
DWIDTH 10 0
BBX 10 11 0 0
BITMAP
0080
00C0
0100
0300
0200
0400
8400
4800
4800
3000
3000
ENDCHAR
STARTCHAR uni2752
ENCODING 10066
SWIDTH 895 0
DWIDTH 14 0
BBX 13 13 1 -1
BITMAP
FFF8
8018
8018
8018
8018
8018
8018
8018
8018
8018
8018
8018
FFF0
ENDCHAR
STARTCHAR uni27E6
ENCODING 10214
SWIDTH 378 0
DWIDTH 6 0
BBX 5 14 1 -3
BITMAP
F8
A0
A0
A0
A0
A0
A0
A0
A0
A0
A0
A0
A0
F8
ENDCHAR
STARTCHAR uni27E7
ENCODING 10215
SWIDTH 378 0
DWIDTH 6 0
BBX 5 14 0 -3
BITMAP
F8
28
28
28
28
28
28
28
28
28
28
28
28
F8
ENDCHAR
STARTCHAR uni2E22
ENCODING 11810
SWIDTH 303 0
DWIDTH 5 0
BBX 3 7 1 4
BITMAP
E0
C0
C0
C0
C0
C0
C0
ENDCHAR
STARTCHAR uni2E23
ENCODING 11811
SWIDTH 303 0
DWIDTH 5 0
BBX 3 7 0 4
BITMAP
E0
20
20
20
20
20
20
ENDCHAR
STARTCHAR uni2E24
ENCODING 11812
SWIDTH 303 0
DWIDTH 5 0
BBX 3 7 1 -3
BITMAP
C0
C0
C0
C0
C0
C0
E0
ENDCHAR
STARTCHAR uni2E25
ENCODING 11813
SWIDTH 303 0
DWIDTH 5 0
BBX 3 7 0 -3
BITMAP
20
20
20
20
20
20
E0
ENDCHAR
STARTCHAR uni2E3A
ENCODING 11834
SWIDTH 1500 0
DWIDTH 24 0
BBX 22 1 1 4
BITMAP
FFFFFC
ENDCHAR
STARTCHAR uni2E3B
ENCODING 11835
SWIDTH 2200 0
DWIDTH 35 0
BBX 34 1 1 4
BITMAP
FFFFFFFFC0
ENDCHAR
STARTCHAR f_f
ENCODING 64256
SWIDTH 577 0
DWIDTH 9 0
BBX 10 11 0 0
BITMAP
39C0
2300
2200
FF80
2200
2200
2200
2200
2200
2200
2200
ENDCHAR
STARTCHAR fi
ENCODING 64257
SWIDTH 556 0
DWIDTH 9 0
BBX 8 12 0 0
BITMAP
03
3B
20
20
FB
23
23
23
23
23
23
23
ENDCHAR
STARTCHAR fl
ENCODING 64258
SWIDTH 547 0
DWIDTH 9 0
BBX 8 11 0 0
BITMAP
3A
22
22
FA
22
22
22
22
22
22
23
ENDCHAR
STARTCHAR f_f_i
ENCODING 64259
SWIDTH 823 0
DWIDTH 13 0
BBX 12 12 0 0
BITMAP
0010
39F0
2300
2200
FF90
2210
2210
2210
2210
2210
2210
2210
ENDCHAR
STARTCHAR f_f_l
ENCODING 64260
SWIDTH 832 0
DWIDTH 13 0
BBX 13 11 0 0
BITMAP
39D0
2310
2210
FF90
2210
2210
2210
2210
2210
2210
2218
ENDCHAR
STARTCHAR uniFEFF
ENCODING 65279
SWIDTH 0 0
DWIDTH 0 0
BBX 1 1 0 0
BITMAP
00
ENDCHAR
STARTCHAR u1F16A
ENCODING 127338
SWIDTH 637 0
DWIDTH 10 0
BBX 10 5 0 6
BITMAP
C9C0
DB00
BA00
AB40
89C0
ENDCHAR
STARTCHAR u1F16B
ENCODING 127339
SWIDTH 653 0
DWIDTH 10 0
BBX 10 5 0 6
BITMAP
CBC0
DA40
BA40
AA40
8BC0
ENDCHAR
STARTCHAR .notdef
ENCODING -1
SWIDTH 653 0
DWIDTH 10 0
BBX 8 10 1 0
BITMAP
FF
A3
A5
95
99
99
95
A5
C3
FF
ENDCHAR
STARTCHAR uni00470303
ENCODING -1
SWIDTH 617 0
DWIDTH 10 0
BBX 8 13 1 0
BITMAP
3A
26
00
3E
63
C0
80
80
8F
81
C1
63
3E
ENDCHAR
STARTCHAR uni00670303
ENCODING -1
SWIDTH 504 0
DWIDTH 8 0
BBX 7 14 1 -3
BITMAP
74
9C
00
7E
CC
84
CC
78
80
80
7C
82
86
78
ENDCHAR
STARTCHAR iogonek.d
ENCODING -1
SWIDTH 246 0
DWIDTH 4 0
BBX 2 11 1 -3
BITMAP
C0
C0
C0
C0
C0
C0
C0
C0
80
80
C0
ENDCHAR
STARTCHAR f_t
ENCODING -1
SWIDTH 594 0
DWIDTH 10 0
BBX 9 11 0 0
BITMAP
3800
2200
2200
FF80
2200
2200
2200
2200
2200
2200
2380
ENDCHAR
STARTCHAR f_f_t
ENCODING -1
SWIDTH 879 0
DWIDTH 14 0
BBX 14 11 0 0
BITMAP
39C0
2330
2230
FFFC
2230
2230
2230
2230
2230
2230
221C
ENDCHAR
STARTCHAR I.a
ENCODING -1
SWIDTH 343 0
DWIDTH 5 0
BBX 4 10 1 0
BITMAP
F0
40
40
40
40
40
40
40
40
F0
ENDCHAR
STARTCHAR Igrave.a
ENCODING -1
SWIDTH 343 0
DWIDTH 5 0
BBX 4 14 1 0
BITMAP
80
C0
60
00
F0
40
40
40
40
40
40
40
40
F0
ENDCHAR
STARTCHAR Iacute.a
ENCODING -1
SWIDTH 343 0
DWIDTH 5 0
BBX 4 14 1 0
BITMAP
10
20
40
00
F0
40
40
40
40
40
40
40
40
F0
ENDCHAR
STARTCHAR Icircumflex.a
ENCODING -1
SWIDTH 343 0
DWIDTH 5 0
BBX 5 13 0 0
BITMAP
30
48
80
78
20
20
20
20
20
20
20
20
78
ENDCHAR
STARTCHAR Itilde.a
ENCODING -1
SWIDTH 343 0
DWIDTH 5 0
BBX 6 13 0 0
BITMAP
E4
98
00
78
20
20
20
20
20
20
20
20
78
ENDCHAR
STARTCHAR Idieresis.a
ENCODING -1
SWIDTH 343 0
DWIDTH 5 0
BBX 5 13 0 0
BITMAP
C8
C8
00
78
20
20
20
20
20
20
20
20
78
ENDCHAR
STARTCHAR Imacron.a
ENCODING -1
SWIDTH 343 0
DWIDTH 5 0
BBX 4 12 1 0
BITMAP
F0
00
F0
40
40
40
40
40
40
40
40
F0
ENDCHAR
STARTCHAR Idotaccent.a
ENCODING -1
SWIDTH 343 0
DWIDTH 5 0
BBX 4 13 1 0
BITMAP
60
60
00
F0
40
40
40
40
40
40
40
40
F0
ENDCHAR
STARTCHAR uni01CF.a
ENCODING -1
SWIDTH 343 0
DWIDTH 5 0
BBX 5 13 0 0
BITMAP
C8
30
00
78
20
20
20
20
20
20
20
20
78
ENDCHAR
STARTCHAR uni1EC8.a
ENCODING -1
SWIDTH 343 0
DWIDTH 5 0
BBX 4 14 1 0
BITMAP
60
20
40
00
F0
40
40
40
40
40
40
40
40
F0
ENDCHAR
STARTCHAR uni1ECA.a
ENCODING -1
SWIDTH 343 0
DWIDTH 5 0
BBX 4 14 1 -4
BITMAP
F0
40
40
40
40
40
40
40
40
F0
00
00
60
60
ENDCHAR
STARTCHAR Iogonek.a
ENCODING -1
SWIDTH 343 0
DWIDTH 5 0
BBX 4 13 1 -3
BITMAP
F0
40
40
40
40
40
40
40
40
F0
40
80
60
ENDCHAR
STARTCHAR uni012C.a
ENCODING -1
SWIDTH 343 0
DWIDTH 5 0
BBX 5 13 0 0
BITMAP
88
70
00
78
20
20
20
20
20
20
20
20
78
ENDCHAR
STARTCHAR uni014A.a
ENCODING -1
SWIDTH 647 0
DWIDTH 10 0
BBX 8 13 1 -3
BITMAP
C1
E1
E1
D1
D9
C9
CD
C5
C3
C3
01
03
06
ENDCHAR
STARTCHAR a.a
ENCODING -1
SWIDTH 555 0
DWIDTH 9 0
BBX 7 8 1 0
BITMAP
7E
C6
86
86
86
86
C6
7E
ENDCHAR
STARTCHAR agrave.a
ENCODING -1
SWIDTH 555 0
DWIDTH 9 0
BBX 7 12 1 0
BITMAP
20
70
10
00
7E
C6
86
86
86
86
C6
7E
ENDCHAR
STARTCHAR aacute.a
ENCODING -1
SWIDTH 555 0
DWIDTH 9 0
BBX 7 12 1 0
BITMAP
08
1C
10
00
7E
C6
86
86
86
86
C6
7E
ENDCHAR
STARTCHAR acircumflex.a
ENCODING -1
SWIDTH 555 0
DWIDTH 9 0
BBX 7 12 1 0
BITMAP
38
28
44
00
7E
C6
86
86
86
86
C6
7E
ENDCHAR
STARTCHAR atilde.a
ENCODING -1
SWIDTH 555 0
DWIDTH 9 0
BBX 7 11 1 0
BITMAP
74
4C
00
7E
C6
86
86
86
86
C6
7E
ENDCHAR
STARTCHAR adieresis.a
ENCODING -1
SWIDTH 555 0
DWIDTH 9 0
BBX 7 11 1 0
BITMAP
6C
6C
00
7E
C6
86
86
86
86
C6
7E
ENDCHAR
STARTCHAR amacron.a
ENCODING -1
SWIDTH 555 0
DWIDTH 9 0
BBX 7 11 1 0
BITMAP
7C
00
00
7E
C6
86
86
86
86
C6
7E
ENDCHAR
STARTCHAR abreve.a
ENCODING -1
SWIDTH 555 0
DWIDTH 9 0
BBX 7 12 1 0
BITMAP
44
44
38
00
7E
C6
86
86
86
86
C6
7E
ENDCHAR
STARTCHAR aring.a
ENCODING -1
SWIDTH 555 0
DWIDTH 9 0
BBX 7 12 1 0
BITMAP
38
28
38
00
7E
C6
86
86
86
86
C6
7E
ENDCHAR
STARTCHAR uni01CE.a
ENCODING -1
SWIDTH 555 0
DWIDTH 9 0
BBX 7 12 1 0
BITMAP
44
28
38
00
7E
C6
86
86
86
86
C6
7E
ENDCHAR
STARTCHAR uni1EA1.a
ENCODING -1
SWIDTH 555 0
DWIDTH 9 0
BBX 7 12 1 -4
BITMAP
7E
C6
86
86
86
86
C6
7E
00
00
10
10
ENDCHAR
STARTCHAR uni1EA3.a
ENCODING -1
SWIDTH 555 0
DWIDTH 9 0
BBX 7 13 1 0
BITMAP
30
08
08
10
00
7E
C6
86
86
86
86
C6
7E
ENDCHAR
STARTCHAR uni1EA5.a
ENCODING -1
SWIDTH 555 0
DWIDTH 9 0
BBX 7 12 1 0
BITMAP
02
14
28
4C
7E
C6
86
86
86
86
C6
7E
ENDCHAR
STARTCHAR uni1EA7.a
ENCODING -1
SWIDTH 555 0
DWIDTH 9 0
BBX 7 12 1 0
BITMAP
80
50
28
4C
7E
C6
86
86
86
86
C6
7E
ENDCHAR
STARTCHAR uni1EA9.a
ENCODING -1
SWIDTH 555 0
DWIDTH 9 0
BBX 7 13 1 0
BITMAP
06
02
14
28
4C
7E
C6
86
86
86
86
C6
7E
ENDCHAR
STARTCHAR uni1EAB.a
ENCODING -1
SWIDTH 555 0
DWIDTH 9 0
BBX 7 14 1 0
BITMAP
34
58
00
10
28
4C
7E
C6
86
86
86
86
C6
7E
ENDCHAR
STARTCHAR uni1EAD.a
ENCODING -1
SWIDTH 555 0
DWIDTH 9 0
BBX 7 16 1 -4
BITMAP
38
28
44
00
7E
C6
86
86
86
86
C6
7E
00
00
10
10
ENDCHAR
STARTCHAR uni1EAF.a
ENCODING -1
SWIDTH 555 0
DWIDTH 9 0
BBX 7 13 1 0
BITMAP
08
54
44
38
00
7E
C6
86
86
86
86
C6
7E
ENDCHAR
STARTCHAR uni1EB1.a
ENCODING -1
SWIDTH 555 0
DWIDTH 9 0
BBX 7 13 1 0
BITMAP
20
54
44
38
00
7E
C6
86
86
86
86
C6
7E
ENDCHAR
STARTCHAR uni1EB3.a
ENCODING -1
SWIDTH 555 0
DWIDTH 9 0
BBX 7 14 1 0
BITMAP
10
28
54
44
38
00
7E
C6
86
86
86
86
C6
7E
ENDCHAR
STARTCHAR uni1EB5.a
ENCODING -1
SWIDTH 555 0
DWIDTH 9 0
BBX 7 14 1 0
BITMAP
34
58
00
44
38
00
7E
C6
86
86
86
86
C6
7E
ENDCHAR
STARTCHAR uni1EB7.a
ENCODING -1
SWIDTH 555 0
DWIDTH 9 0
BBX 7 16 1 -4
BITMAP
44
44
38
00
7E
C6
86
86
86
86
C6
7E
00
00
10
10
ENDCHAR
STARTCHAR aogonek.a
ENCODING -1
SWIDTH 555 0
DWIDTH 9 0
BBX 7 11 1 -3
BITMAP
7E
C6
86
86
86
86
C6
7E
04
08
0E
ENDCHAR
STARTCHAR g.a
ENCODING -1
SWIDTH 559 0
DWIDTH 9 0
BBX 7 11 1 -3
BITMAP
7E
46
86
86
86
86
C6
7E
06
84
78
ENDCHAR
STARTCHAR uni01F5.a
ENCODING -1
SWIDTH 559 0
DWIDTH 9 0
BBX 7 15 1 -3
BITMAP
0C
08
10
00
7E
46
86
86
86
86
C6
7E
06
84
78
ENDCHAR
STARTCHAR gcircumflex.a
ENCODING -1
SWIDTH 559 0
DWIDTH 9 0
BBX 7 15 1 -3
BITMAP
18
28
44
00
7E
46
86
86
86
86
C6
7E
06
84
78
ENDCHAR
STARTCHAR gbreve.a
ENCODING -1
SWIDTH 559 0
DWIDTH 9 0
BBX 7 15 1 -3
BITMAP
44
64
38
00
7E
46
86
86
86
86
C6
7E
06
84
78
ENDCHAR
STARTCHAR gdotaccent.a
ENCODING -1
SWIDTH 559 0
DWIDTH 9 0
BBX 7 14 1 -3
BITMAP
10
10
00
7E
46
86
86
86
86
C6
7E
06
84
78
ENDCHAR
STARTCHAR uni0123.a
ENCODING -1
SWIDTH 559 0
DWIDTH 9 0
BBX 7 15 1 -3
BITMAP
18
20
18
00
7E
46
86
86
86
86
C6
7E
06
84
78
ENDCHAR
STARTCHAR gcaron.a
ENCODING -1
SWIDTH 559 0
DWIDTH 9 0
BBX 7 15 1 -3
BITMAP
44
28
18
00
7E
46
86
86
86
86
C6
7E
06
84
78
ENDCHAR
STARTCHAR uni1E21.a
ENCODING -1
SWIDTH 559 0
DWIDTH 9 0
BBX 7 14 1 -3
BITMAP
7C
00
00
7E
46
86
86
86
86
C6
7E
06
84
78
ENDCHAR
STARTCHAR uni00670303.a
ENCODING -1
SWIDTH 559 0
DWIDTH 9 0
BBX 7 14 1 -3
BITMAP
74
4C
00
7E
46
86
86
86
86
C6
7E
06
84
78
ENDCHAR
STARTCHAR l.a
ENCODING -1
SWIDTH 246 0
DWIDTH 4 0
BBX 2 11 1 0
BITMAP
C0
C0
C0
C0
C0
C0
C0
C0
C0
C0
C0
ENDCHAR
STARTCHAR lacute.a
ENCODING -1
SWIDTH 246 0
DWIDTH 4 0
BBX 3 15 1 0
BITMAP
20
40
80
00
C0
C0
C0
C0
C0
C0
C0
C0
C0
C0
C0
ENDCHAR
STARTCHAR lcaron.a
ENCODING -1
SWIDTH 265 0
DWIDTH 4 0
BBX 3 12 1 0
BITMAP
20
E0
E0
C0
C0
C0
C0
C0
C0
C0
C0
C0
ENDCHAR
STARTCHAR ldot.a
ENCODING -1
SWIDTH 362 0
DWIDTH 6 0
BBX 5 11 1 0
BITMAP
C0
C0
C0
C0
C0
D8
D8
C0
C0
C0
C0
ENDCHAR
STARTCHAR uni013C.a
ENCODING -1
SWIDTH 246 0
DWIDTH 4 0
BBX 3 15 0 -4
BITMAP
60
60
60
60
60
60
60
60
60
60
60
00
60
20
E0
ENDCHAR
STARTCHAR uni1E37.a
ENCODING -1
SWIDTH 246 0
DWIDTH 4 0
BBX 2 15 1 -4
BITMAP
C0
C0
C0
C0
C0
C0
C0
C0
C0
C0
C0
00
00
C0
C0
ENDCHAR
STARTCHAR uni1E39.a
ENCODING -1
SWIDTH 246 0
DWIDTH 4 0
BBX 4 19 0 -4
BITMAP
F0
00
00
00
60
60
60
60
60
60
60
60
60
60
60
00
00
60
60
ENDCHAR
STARTCHAR uni1E3B.a
ENCODING -1
SWIDTH 246 0
DWIDTH 4 0
BBX 4 13 0 -2
BITMAP
60
60
60
60
60
60
60
60
60
60
60
00
F0
ENDCHAR
STARTCHAR lslash.a
ENCODING -1
SWIDTH 257 0
DWIDTH 4 0
BBX 4 11 0 0
BITMAP
60
60
60
60
70
E0
E0
60
60
60
60
ENDCHAR
STARTCHAR fl.a
ENCODING -1
SWIDTH 556 0
DWIDTH 9 0
BBX 8 11 0 0
BITMAP
3B
23
23
FB
23
23
23
23
23
23
23
ENDCHAR
STARTCHAR anoteleia.cap
ENCODING -1
SWIDTH 249 0
DWIDTH 4 0
BBX 2 2 1 9
BITMAP
C0
C0
ENDCHAR
STARTCHAR tonos.cap
ENCODING -1
SWIDTH 64 0
DWIDTH 1 0
BBX 1 3 0 7
BITMAP
80
80
80
ENDCHAR
STARTCHAR uni1FBD.cap
ENCODING -1
SWIDTH 119 0
DWIDTH 2 0
BBX 2 4 0 6
BITMAP
C0
40
40
80
ENDCHAR
STARTCHAR uni1FFE.cap
ENCODING -1
SWIDTH 117 0
DWIDTH 2 0
BBX 2 4 0 6
BITMAP
C0
80
80
40
ENDCHAR
STARTCHAR uni1FEF.cap
ENCODING -1
SWIDTH 64 0
DWIDTH 1 0
BBX 1 3 0 7
BITMAP
80
80
80
ENDCHAR
STARTCHAR uni1FCD.cap
ENCODING -1
SWIDTH 237 0
DWIDTH 4 0
BBX 4 4 0 6
BITMAP
B0
50
50
80
ENDCHAR
STARTCHAR uni1FDD.cap
ENCODING -1
SWIDTH 234 0
DWIDTH 4 0
BBX 4 4 0 6
BITMAP
F0
90
90
80
ENDCHAR
STARTCHAR uni1FCE.cap
ENCODING -1
SWIDTH 237 0
DWIDTH 4 0
BBX 4 4 0 6
BITMAP
90
50
50
A0
ENDCHAR
STARTCHAR uni1FDE.cap
ENCODING -1
SWIDTH 230 0
DWIDTH 4 0
BBX 4 4 0 6
BITMAP
D0
90
A0
80
ENDCHAR
STARTCHAR uni1FCF.cap
ENCODING -1
SWIDTH 188 0
DWIDTH 3 0
BBX 3 5 0 6
BITMAP
E0
E0
40
20
C0
ENDCHAR
STARTCHAR uni1FDF.cap
ENCODING -1
SWIDTH 188 0
DWIDTH 3 0
BBX 3 5 0 6
BITMAP
E0
E0
40
A0
40
ENDCHAR
STARTCHAR uni0407.a
ENCODING -1
SWIDTH 263 0
DWIDTH 4 0
BBX 4 13 0 0
BITMAP
D0
F0
00
60
60
60
60
60
60
60
60
60
60
ENDCHAR
STARTCHAR uni0457.a
ENCODING -1
SWIDTH 257 0
DWIDTH 4 0
BBX 4 12 0 0
BITMAP
F0
F0
00
00
60
60
60
60
60
60
60
60
ENDCHAR
STARTCHAR uni0431.srb
ENCODING -1
SWIDTH 526 0
DWIDTH 8 0
BBX 7 11 1 0
BITMAP
3E
40
40
30
38
44
86
86
86
C4
78
ENDCHAR
STARTCHAR zero.0
ENCODING -1
SWIDTH 497 0
DWIDTH 8 0
BBX 6 10 1 0
BITMAP
78
CC
84
84
B4
B4
84
84
CC
78
ENDCHAR
STARTCHAR zero.0s
ENCODING -1
SWIDTH 497 0
DWIDTH 8 0
BBX 6 10 1 0
BITMAP
78
CC
C4
C4
A4
94
8C
8C
CC
78
ENDCHAR
STARTCHAR zero.pnum
ENCODING -1
SWIDTH 538 0
DWIDTH 9 0
BBX 7 10 1 0
BITMAP
38
4C
C4
86
86
86
86
C4
4C
38
ENDCHAR
STARTCHAR one.pnum
ENCODING -1
SWIDTH 369 0
DWIDTH 6 0
BBX 3 10 1 0
BITMAP
60
E0
20
20
20
20
20
20
20
20
ENDCHAR
STARTCHAR two.pnum
ENCODING -1
SWIDTH 501 0
DWIDTH 8 0
BBX 6 10 1 0
BITMAP
78
88
0C
0C
08
18
30
60
C0
FC
ENDCHAR
STARTCHAR three.pnum
ENCODING -1
SWIDTH 497 0
DWIDTH 8 0
BBX 7 10 0 0
BITMAP
3C
46
06
04
18
06
02
02
46
BC
ENDCHAR
STARTCHAR four.pnum
ENCODING -1
SWIDTH 519 0
DWIDTH 8 0
BBX 7 10 1 0
BITMAP
08
18
28
68
48
88
FE
08
08
08
ENDCHAR
STARTCHAR five.pnum
ENCODING -1
SWIDTH 497 0
DWIDTH 8 0
BBX 7 10 0 0
BITMAP
3E
60
60
60
7C
46
02
02
46
BC
ENDCHAR
STARTCHAR six.pnum
ENCODING -1
SWIDTH 525 0
DWIDTH 8 0
BBX 7 10 1 0
BITMAP
3C
44
C0
80
B8
C4
84
C6
44
38
ENDCHAR
STARTCHAR seven.pnum
ENCODING -1
SWIDTH 491 0
DWIDTH 8 0
BBX 6 10 1 0
BITMAP
FC
0C
08
10
10
30
20
20
20
20
ENDCHAR
STARTCHAR eight.pnum
ENCODING -1
SWIDTH 525 0
DWIDTH 8 0
BBX 7 10 1 0
BITMAP
78
44
C4
44
38
5C
84
86
C4
78
ENDCHAR
STARTCHAR nine.pnum
ENCODING -1
SWIDTH 525 0
DWIDTH 8 0
BBX 6 10 1 0
BITMAP
78
CC
84
84
CC
74
04
04
88
70
ENDCHAR
STARTCHAR zero.0p
ENCODING -1
SWIDTH 538 0
DWIDTH 9 0
BBX 7 10 1 0
BITMAP
38
44
84
86
B6
B6
86
84
44
38
ENDCHAR
STARTCHAR zero.0ps
ENCODING -1
SWIDTH 538 0
DWIDTH 9 0
BBX 7 10 1 0
BITMAP
38
44
C4
A6
A2
92
8E
84
44
38
ENDCHAR
STARTCHAR zero.tnum
ENCODING -1
SWIDTH 497 0
DWIDTH 8 0
BBX 6 9 1 0
BITMAP
78
CC
84
84
84
84
84
CC
78
ENDCHAR
STARTCHAR one.tnum
ENCODING -1
SWIDTH 497 0
DWIDTH 8 0
BBX 6 9 1 0
BITMAP
30
70
10
10
10
10
10
10
FC
ENDCHAR
STARTCHAR two.tnum
ENCODING -1
SWIDTH 497 0
DWIDTH 8 0
BBX 6 9 1 0
BITMAP
78
88
0C
0C
08
10
20
C0
FC
ENDCHAR
STARTCHAR three.tnum
ENCODING -1
SWIDTH 497 0
DWIDTH 8 0
BBX 7 10 0 -1
BITMAP
3C
46
06
04
18
06
02
02
46
BC
ENDCHAR
STARTCHAR four.tnum
ENCODING -1
SWIDTH 497 0
DWIDTH 8 0
BBX 8 10 0 -1
BITMAP
0C
0C
14
34
64
44
FF
04
04
04
ENDCHAR
STARTCHAR five.tnum
ENCODING -1
SWIDTH 497 0
DWIDTH 8 0
BBX 7 10 0 -1
BITMAP
3E
60
60
40
7C
02
02
02
46
BC
ENDCHAR
STARTCHAR six.tnum
ENCODING -1
SWIDTH 497 0
DWIDTH 8 0
BBX 6 10 1 0
BITMAP
3C
44
C0
80
B8
C4
84
84
44
38
ENDCHAR
STARTCHAR seven.tnum
ENCODING -1
SWIDTH 497 0
DWIDTH 8 0
BBX 6 10 1 -1
BITMAP
FC
0C
08
18
10
10
30
20
20
20
ENDCHAR
STARTCHAR eight.tnum
ENCODING -1
SWIDTH 497 0
DWIDTH 8 0
BBX 6 10 1 0
BITMAP
78
CC
84
4C
38
D8
84
84
84
78
ENDCHAR
STARTCHAR nine.tnum
ENCODING -1
SWIDTH 497 0
DWIDTH 8 0
BBX 7 10 0 -1
BITMAP
38
44
42
C2
46
3A
02
06
44
78
ENDCHAR
STARTCHAR zero.onum
ENCODING -1
SWIDTH 518 0
DWIDTH 8 0
BBX 6 9 1 0
BITMAP
78
CC
84
84
84
84
84
CC
78
ENDCHAR
STARTCHAR one.onum
ENCODING -1
SWIDTH 369 0
DWIDTH 6 0
BBX 3 9 1 0
BITMAP
60
E0
20
20
20
20
20
20
20
ENDCHAR
STARTCHAR two.onum
ENCODING -1
SWIDTH 497 0
DWIDTH 8 0
BBX 6 9 1 0
BITMAP
70
88
0C
0C
08
10
20
C0
FC
ENDCHAR
STARTCHAR three.onum
ENCODING -1
SWIDTH 497 0
DWIDTH 8 0
BBX 7 10 0 -1
BITMAP
3C
46
06
04
18
06
02
02
46
BC
ENDCHAR
STARTCHAR four.onum
ENCODING -1
SWIDTH 518 0
DWIDTH 8 0
BBX 8 10 0 -1
BITMAP
0C
0C
14
34
24
44
FF
04
04
04
ENDCHAR
STARTCHAR five.onum
ENCODING -1
SWIDTH 497 0
DWIDTH 8 0
BBX 7 10 0 -1
BITMAP
3E
60
60
40
7C
02
02
02
46
BC
ENDCHAR
STARTCHAR six.onum
ENCODING -1
SWIDTH 518 0
DWIDTH 8 0
BBX 6 10 1 0
BITMAP
3C
44
C0
80
B8
C4
84
84
44
38
ENDCHAR
STARTCHAR seven.onum
ENCODING -1
SWIDTH 489 0
DWIDTH 8 0
BBX 6 10 1 -1
BITMAP
FC
0C
08
10
10
30
20
20
20
20
ENDCHAR
STARTCHAR eight.onum
ENCODING -1
SWIDTH 519 0
DWIDTH 8 0
BBX 6 10 1 0
BITMAP
78
C4
C4
44
38
DC
84
84
C4
78
ENDCHAR
STARTCHAR nine.onum
ENCODING -1
SWIDTH 518 0
DWIDTH 8 0
BBX 6 10 1 -1
BITMAP
78
8C
84
84
8C
74
04
04
88
F0
ENDCHAR
STARTCHAR at.case
ENCODING -1
SWIDTH 782 0
DWIDTH 13 0
BBX 11 11 1 0
BITMAP
1F00
30C0
4040
8F20
9320
9220
9220
9240
9D80
6200
3E00
ENDCHAR
STARTCHAR i.trk
ENCODING -1
SWIDTH 246 0
DWIDTH 4 0
BBX 2 12 1 0
BITMAP
C0
C0
00
00
C0
C0
C0
C0
C0
C0
C0
C0
ENDCHAR
STARTCHAR A.sc
ENCODING -1
SWIDTH 470 0
DWIDTH 8 0
BBX 7 8 0 0
BITMAP
18
38
28
24
64
7E
42
C2
ENDCHAR
STARTCHAR B.sc
ENCODING -1
SWIDTH 526 0
DWIDTH 8 0
BBX 7 8 1 0
BITMAP
FC
C4
C4
F8
C6
C6
C6
FC
ENDCHAR
STARTCHAR C.sc
ENCODING -1
SWIDTH 503 0
DWIDTH 8 0
BBX 7 8 1 0
BITMAP
3C
44
80
80
80
80
44
3E
ENDCHAR
STARTCHAR D.sc
ENCODING -1
SWIDTH 555 0
DWIDTH 9 0
BBX 7 8 1 0
BITMAP
F8
C4
C6
C2
C2
C6
C4
F8
ENDCHAR
STARTCHAR E.sc
ENCODING -1
SWIDTH 475 0
DWIDTH 8 0
BBX 6 8 1 0
BITMAP
FC
C0
C0
F8
C0
C0
C0
FC
ENDCHAR
STARTCHAR F.sc
ENCODING -1
SWIDTH 443 0
DWIDTH 7 0
BBX 6 8 1 0
BITMAP
FC
C0
C0
F8
C0
C0
C0
C0
ENDCHAR
STARTCHAR G.sc
ENCODING -1
SWIDTH 549 0
DWIDTH 9 0
BBX 7 8 1 0
BITMAP
3C
46
80
80
8E
82
42
3C
ENDCHAR
STARTCHAR H.sc
ENCODING -1
SWIDTH 594 0
DWIDTH 10 0
BBX 7 8 1 0
BITMAP
C2
C2
C2
FE
C2
C2
C2
C2
ENDCHAR
STARTCHAR I.sc
ENCODING -1
SWIDTH 263 0
DWIDTH 4 0
BBX 2 8 1 0
BITMAP
C0
C0
C0
C0
C0
C0
C0
C0
ENDCHAR
STARTCHAR J.sc
ENCODING -1
SWIDTH 438 0
DWIDTH 7 0
BBX 6 8 0 0
BITMAP
0C
0C
0C
0C
0C
0C
48
F8
ENDCHAR
STARTCHAR K.sc
ENCODING -1
SWIDTH 514 0
DWIDTH 8 0
BBX 7 8 1 0
BITMAP
C6
C8
D8
F0
E8
CC
C4
C6
ENDCHAR
STARTCHAR L.sc
ENCODING -1
SWIDTH 437 0
DWIDTH 7 0
BBX 6 8 1 0
BITMAP
C0
C0
C0
C0
C0
C0
C0
FC
ENDCHAR
STARTCHAR M.sc
ENCODING -1
SWIDTH 647 0
DWIDTH 10 0
BBX 8 8 1 0
BITMAP
C3
E3
E5
E5
D5
D9
C9
C1
ENDCHAR
STARTCHAR N.sc
ENCODING -1
SWIDTH 585 0
DWIDTH 9 0
BBX 7 8 1 0
BITMAP
C2
E2
E2
D2
DA
CA
C6
C6
ENDCHAR
STARTCHAR O.sc
ENCODING -1
SWIDTH 589 0
DWIDTH 9 0
BBX 8 8 1 0
BITMAP
3C
46
82
83
83
82
46
3C
ENDCHAR
STARTCHAR P.sc
ENCODING -1
SWIDTH 518 0
DWIDTH 8 0
BBX 7 8 1 0
BITMAP
FC
C4
C6
C4
F8
C0
C0
C0
ENDCHAR
STARTCHAR Q.sc
ENCODING -1
SWIDTH 589 0
DWIDTH 9 0
BBX 8 10 1 -2
BITMAP
3C
46
82
83
83
82
46
3C
18
0F
ENDCHAR
STARTCHAR R.sc
ENCODING -1
SWIDTH 523 0
DWIDTH 8 0
BBX 7 8 1 0
BITMAP
FC
C4
C4
C4
F8
C8
CC
C6
ENDCHAR
STARTCHAR S.sc
ENCODING -1
SWIDTH 474 0
DWIDTH 8 0
BBX 6 8 1 0
BITMAP
78
CC
C0
70
1C
04
8C
78
ENDCHAR
STARTCHAR T.sc
ENCODING -1
SWIDTH 467 0
DWIDTH 7 0
BBX 7 8 0 0
BITMAP
FE
10
10
10
10
10
10
10
ENDCHAR
STARTCHAR U.sc
ENCODING -1
SWIDTH 583 0
DWIDTH 9 0
BBX 7 8 1 0
BITMAP
C2
C2
C2
C2
C2
C2
46
3C
ENDCHAR
STARTCHAR V.sc
ENCODING -1
SWIDTH 447 0
DWIDTH 7 0
BBX 7 8 0 0
BITMAP
C2
46
44
64
2C
28
28
18
ENDCHAR
STARTCHAR W.sc
ENCODING -1
SWIDTH 684 0
DWIDTH 11 0
BBX 11 8 0 0
BITMAP
C460
4640
4A40
4A40
6AC0
3380
3180
3180
ENDCHAR
STARTCHAR X.sc
ENCODING -1
SWIDTH 453 0
DWIDTH 7 0
BBX 7 8 0 0
BITMAP
C6
64
28
18
38
28
64
C6
ENDCHAR
STARTCHAR Y.sc
ENCODING -1
SWIDTH 415 0
DWIDTH 7 0
BBX 7 8 0 0
BITMAP
C6
44
68
28
30
10
10
10
ENDCHAR
STARTCHAR Z.sc
ENCODING -1
SWIDTH 475 0
DWIDTH 8 0
BBX 6 8 1 0
BITMAP
FC
08
18
30
20
40
C0
FC
ENDCHAR
STARTCHAR Agrave.sc
ENCODING -1
SWIDTH 470 0
DWIDTH 8 0
BBX 7 12 0 0
BITMAP
20
30
18
00
18
38
28
24
64
7E
42
C2
ENDCHAR
STARTCHAR Aacute.sc
ENCODING -1
SWIDTH 470 0
DWIDTH 8 0
BBX 7 12 0 0
BITMAP
04
08
10
00
18
38
28
24
64
7E
42
C2
ENDCHAR
STARTCHAR Acircumflex.sc
ENCODING -1
SWIDTH 470 0
DWIDTH 8 0
BBX 7 11 0 0
BITMAP
18
24
40
18
38
28
24
64
7E
42
C2
ENDCHAR
STARTCHAR Atilde.sc
ENCODING -1
SWIDTH 470 0
DWIDTH 8 0
BBX 7 11 0 0
BITMAP
72
4C
00
18
38
28
24
64
7E
42
C2
ENDCHAR
STARTCHAR Adieresis.sc
ENCODING -1
SWIDTH 470 0
DWIDTH 8 0
BBX 7 11 0 0
BITMAP
64
64
00
18
38
28
24
64
7E
42
C2
ENDCHAR
STARTCHAR Amacron.sc
ENCODING -1
SWIDTH 470 0
DWIDTH 8 0
BBX 7 10 0 0
BITMAP
3C
00
18
38
28
24
64
7E
42
C2
ENDCHAR
STARTCHAR Abreve.sc
ENCODING -1
SWIDTH 470 0
DWIDTH 8 0
BBX 7 11 0 0
BITMAP
44
38
00
18
38
28
24
64
7E
42
C2
ENDCHAR
STARTCHAR Aring.sc
ENCODING -1
SWIDTH 470 0
DWIDTH 8 0
BBX 7 12 0 0
BITMAP
18
28
18
00
18
38
28
24
64
7E
42
C2
ENDCHAR
STARTCHAR uni01CD.sc
ENCODING -1
SWIDTH 470 0
DWIDTH 8 0
BBX 7 11 0 0
BITMAP
64
18
00
18
38
28
24
64
7E
42
C2
ENDCHAR
STARTCHAR uni1EA0.sc
ENCODING -1
SWIDTH 470 0
DWIDTH 8 0
BBX 7 12 0 -4
BITMAP
18
38
28
24
64
7E
42
C2
00
00
18
18
ENDCHAR
STARTCHAR uni1EA2.sc
ENCODING -1
SWIDTH 470 0
DWIDTH 8 0
BBX 7 12 0 0
BITMAP
18
08
10
00
18
38
28
24
64
7E
42
C2
ENDCHAR
STARTCHAR uni1EA4.sc
ENCODING -1
SWIDTH 470 0
DWIDTH 8 0
BBX 7 12 0 0
BITMAP
02
1C
24
00
18
38
28
24
64
7E
42
C2
ENDCHAR
STARTCHAR uni1EA6.sc
ENCODING -1
SWIDTH 470 0
DWIDTH 8 0
BBX 7 12 0 0
BITMAP
80
58
24
00
18
38
28
24
64
7E
42
C2
ENDCHAR
STARTCHAR uni1EA8.sc
ENCODING -1
SWIDTH 470 0
DWIDTH 8 0
BBX 7 13 0 0
BITMAP
06
02
1E
24
00
18
38
28
24
64
7E
42
C2
ENDCHAR
STARTCHAR uni1EAA.sc
ENCODING -1
SWIDTH 470 0
DWIDTH 8 0
BBX 7 14 0 0
BITMAP
34
4C
00
18
24
00
18
38
28
24
64
7E
42
C2
ENDCHAR
STARTCHAR uni1EAC.sc
ENCODING -1
SWIDTH 470 0
DWIDTH 8 0
BBX 7 15 0 -4
BITMAP
18
24
40
18
38
28
24
64
7E
42
C2
00
00
18
18
ENDCHAR
STARTCHAR uni1EAE.sc
ENCODING -1
SWIDTH 470 0
DWIDTH 8 0
BBX 7 13 0 0
BITMAP
0C
10
44
38
00
18
38
28
24
64
7E
42
C2
ENDCHAR
STARTCHAR uni1EB0.sc
ENCODING -1
SWIDTH 470 0
DWIDTH 8 0
BBX 7 13 0 0
BITMAP
20
10
44
38
00
18
38
28
24
64
7E
42
C2
ENDCHAR
STARTCHAR uni1EB2.sc
ENCODING -1
SWIDTH 470 0
DWIDTH 8 0
BBX 7 14 0 0
BITMAP
18
08
10
44
38
00
18
38
28
24
64
7E
42
C2
ENDCHAR
STARTCHAR uni1EB4.sc
ENCODING -1
SWIDTH 470 0
DWIDTH 8 0
BBX 7 14 0 0
BITMAP
34
4C
00
44
38
00
18
38
28
24
64
7E
42
C2
ENDCHAR
STARTCHAR uni1EB6.sc
ENCODING -1
SWIDTH 470 0
DWIDTH 8 0
BBX 7 15 0 -4
BITMAP
44
38
00
18
38
28
24
64
7E
42
C2
00
00
18
18
ENDCHAR
STARTCHAR Aogonek.sc
ENCODING -1
SWIDTH 470 0
DWIDTH 8 0
BBX 8 11 0 -3
BITMAP
18
38
28
24
64
7E
42
C2
02
04
07
ENDCHAR
STARTCHAR AE.sc
ENCODING -1
SWIDTH 712 0
DWIDTH 11 0
BBX 11 8 0 0
BITMAP
0FC0
0E00
1E00
17C0
2600
3E00
4600
C7E0
ENDCHAR
STARTCHAR uni01FC.sc
ENCODING -1
SWIDTH 712 0
DWIDTH 11 0
BBX 11 12 0 0
BITMAP
0080
01C0
0100
0000
0FC0
0E00
1E00
17C0
2600
3E00
4600
C7E0
ENDCHAR
STARTCHAR uni01E2.sc
ENCODING -1
SWIDTH 712 0
DWIDTH 11 0
BBX 11 10 0 0
BITMAP
07C0
0000
0FC0
0E00
1E00
17C0
2600
3E00
4600
C7E0
ENDCHAR
STARTCHAR uni0243.sc
ENCODING -1
SWIDTH 545 0
DWIDTH 9 0
BBX 7 8 1 0
BITMAP
7C
46
44
78
46
F2
46
7C
ENDCHAR
STARTCHAR uni1E06.sc
ENCODING -1
SWIDTH 526 0
DWIDTH 8 0
BBX 7 10 1 -2
BITMAP
FC
C4
C4
F8
C6
C6
C6
FC
00
7C
ENDCHAR
STARTCHAR Ccedilla.sc
ENCODING -1
SWIDTH 503 0
DWIDTH 8 0
BBX 7 13 1 -5
BITMAP
3C
44
80
80
80
80
44
3E
10
18
08
08
30
ENDCHAR
STARTCHAR Cacute.sc
ENCODING -1
SWIDTH 503 0
DWIDTH 8 0
BBX 7 12 1 0
BITMAP
08
0C
10
00
3C
44
80
80
80
80
44
3E
ENDCHAR
STARTCHAR Ccircumflex.sc
ENCODING -1
SWIDTH 503 0
DWIDTH 8 0
BBX 7 11 1 0
BITMAP
38
64
00
3C
44
80
80
80
80
44
3E
ENDCHAR
STARTCHAR Ccaron.sc
ENCODING -1
SWIDTH 503 0
DWIDTH 8 0
BBX 7 11 1 0
BITMAP
64
38
00
3C
44
80
80
80
80
44
3E
ENDCHAR
STARTCHAR Cdotaccent.sc
ENCODING -1
SWIDTH 503 0
DWIDTH 8 0
BBX 7 11 1 0
BITMAP
18
18
00
3C
44
80
80
80
80
44
3E
ENDCHAR
STARTCHAR Dcaron.sc
ENCODING -1
SWIDTH 555 0
DWIDTH 9 0
BBX 7 11 1 0
BITMAP
44
38
00
F8
C4
C6
C2
C2
C6
C4
F8
ENDCHAR
STARTCHAR uni1E0C.sc
ENCODING -1
SWIDTH 555 0
DWIDTH 9 0
BBX 7 12 1 -4
BITMAP
F8
C4
C6
C2
C2
C6
C4
F8
00
00
10
10
ENDCHAR
STARTCHAR uni1E0E.sc
ENCODING -1
SWIDTH 555 0
DWIDTH 9 0
BBX 7 10 1 -2
BITMAP
F8
C4
C6
C2
C2
C6
C4
F8
00
7C
ENDCHAR
STARTCHAR Dcroat.sc
ENCODING -1
SWIDTH 574 0
DWIDTH 9 0
BBX 7 8 1 0
BITMAP
78
46
42
F2
42
42
46
78
ENDCHAR
STARTCHAR Egrave.sc
ENCODING -1
SWIDTH 475 0
DWIDTH 8 0
BBX 6 12 1 0
BITMAP
40
20
10
00
FC
C0
C0
F8
C0
C0
C0
FC
ENDCHAR
STARTCHAR Eacute.sc
ENCODING -1
SWIDTH 475 0
DWIDTH 8 0
BBX 6 12 1 0
BITMAP
08
18
30
00
FC
C0
C0
F8
C0
C0
C0
FC
ENDCHAR
STARTCHAR Ecircumflex.sc
ENCODING -1
SWIDTH 475 0
DWIDTH 8 0
BBX 6 11 1 0
BITMAP
30
48
04
FC
C0
C0
F8
C0
C0
C0
FC
ENDCHAR
STARTCHAR Ecaron.sc
ENCODING -1
SWIDTH 475 0
DWIDTH 8 0
BBX 6 11 1 0
BITMAP
4C
30
00
FC
C0
C0
F8
C0
C0
C0
FC
ENDCHAR
STARTCHAR Edieresis.sc
ENCODING -1
SWIDTH 475 0
DWIDTH 8 0
BBX 6 11 1 0
BITMAP
4C
4C
00
FC
C0
C0
F8
C0
C0
C0
FC
ENDCHAR
STARTCHAR Emacron.sc
ENCODING -1
SWIDTH 475 0
DWIDTH 8 0
BBX 6 10 1 0
BITMAP
78
00
FC
C0
C0
F8
C0
C0
C0
FC
ENDCHAR
STARTCHAR Ebreve.sc
ENCODING -1
SWIDTH 475 0
DWIDTH 8 0
BBX 6 11 1 0
BITMAP
4C
38
00
FC
C0
C0
F8
C0
C0
C0
FC
ENDCHAR
STARTCHAR Edotaccent.sc
ENCODING -1
SWIDTH 475 0
DWIDTH 8 0
BBX 6 11 1 0
BITMAP
30
30
00
FC
C0
C0
F8
C0
C0
C0
FC
ENDCHAR
STARTCHAR uni1EB8.sc
ENCODING -1
SWIDTH 475 0
DWIDTH 8 0
BBX 6 12 1 -4
BITMAP
FC
C0
C0
F8
C0
C0
C0
FC
00
00
30
30
ENDCHAR
STARTCHAR uni1EBA.sc
ENCODING -1
SWIDTH 475 0
DWIDTH 8 0
BBX 6 12 1 0
BITMAP
30
10
10
00
FC
C0
C0
F8
C0
C0
C0
FC
ENDCHAR
STARTCHAR uni1EBC.sc
ENCODING -1
SWIDTH 475 0
DWIDTH 8 0
BBX 6 11 1 0
BITMAP
64
9C
00
FC
C0
C0
F8
C0
C0
C0
FC
ENDCHAR
STARTCHAR uni1EBE.sc
ENCODING -1
SWIDTH 475 0
DWIDTH 8 0
BBX 7 12 1 0
BITMAP
02
34
48
00
FC
C0
C0
F8
C0
C0
C0
FC
ENDCHAR
STARTCHAR uni1EC0.sc
ENCODING -1
SWIDTH 475 0
DWIDTH 8 0
BBX 6 12 1 0
BITMAP
80
70
48
00
FC
C0
C0
F8
C0
C0
C0
FC
ENDCHAR
STARTCHAR uni1EC2.sc
ENCODING -1
SWIDTH 475 0
DWIDTH 8 0
BBX 7 13 1 0
BITMAP
04
0A
34
48
00
FC
C0
C0
F8
C0
C0
C0
FC
ENDCHAR
STARTCHAR uni1EC4.sc
ENCODING -1
SWIDTH 475 0
DWIDTH 8 0
BBX 6 14 1 0
BITMAP
64
58
00
30
48
00
FC
C0
C0
F8
C0
C0
C0
FC
ENDCHAR
STARTCHAR uni1EC6.sc
ENCODING -1
SWIDTH 475 0
DWIDTH 8 0
BBX 6 15 1 -4
BITMAP
30
48
04
FC
C0
C0
F8
C0
C0
C0
FC
00
00
30
30
ENDCHAR
STARTCHAR Eogonek.sc
ENCODING -1
SWIDTH 475 0
DWIDTH 8 0
BBX 6 11 1 -3
BITMAP
FC
C0
C0
F8
C0
C0
C0
FC
08
10
0C
ENDCHAR
STARTCHAR uni1E16.sc
ENCODING -1
SWIDTH 475 0
DWIDTH 8 0
BBX 6 13 1 0
BITMAP
08
30
00
78
00
FC
C0
C0
F8
C0
C0
C0
FC
ENDCHAR
STARTCHAR uni01F4.sc
ENCODING -1
SWIDTH 549 0
DWIDTH 9 0
BBX 7 12 1 0
BITMAP
04
08
10
00
3C
46
80
80
8E
82
42
3C
ENDCHAR
STARTCHAR Gcircumflex.sc
ENCODING -1
SWIDTH 549 0
DWIDTH 9 0
BBX 7 11 1 0
BITMAP
18
24
00
3C
46
80
80
8E
82
42
3C
ENDCHAR
STARTCHAR Gbreve.sc
ENCODING -1
SWIDTH 549 0
DWIDTH 9 0
BBX 7 11 1 0
BITMAP
24
3C
00
3C
46
80
80
8E
82
42
3C
ENDCHAR
STARTCHAR Gdotaccent.sc
ENCODING -1
SWIDTH 549 0
DWIDTH 9 0
BBX 7 11 1 0
BITMAP
18
18
00
3C
46
80
80
8E
82
42
3C
ENDCHAR
STARTCHAR uni0122.sc
ENCODING -1
SWIDTH 549 0
DWIDTH 9 0
BBX 7 12 1 -4
BITMAP
3C
46
80
80
8E
82
42
3C
00
18
08
38
ENDCHAR
STARTCHAR Gcaron.sc
ENCODING -1
SWIDTH 549 0
DWIDTH 9 0
BBX 7 11 1 0
BITMAP
24
18
00
3C
46
80
80
8E
82
42
3C
ENDCHAR
STARTCHAR uni1E20.sc
ENCODING -1
SWIDTH 549 0
DWIDTH 9 0
BBX 7 10 1 0
BITMAP
3C
00
3C
46
80
80
8E
82
42
3C
ENDCHAR
STARTCHAR uni00470303.sc
ENCODING -1
SWIDTH 549 0
DWIDTH 9 0
BBX 7 11 1 0
BITMAP
72
4C
00
3C
46
80
80
8E
82
42
3C
ENDCHAR
STARTCHAR uni0193.sc
ENCODING -1
SWIDTH 549 0
DWIDTH 9 0
BBX 8 10 1 0
BITMAP
07
04
3C
46
80
80
8E
82
42
3C
ENDCHAR
STARTCHAR Hcircumflex.sc
ENCODING -1
SWIDTH 594 0
DWIDTH 10 0
BBX 7 11 1 0
BITMAP
18
24
40
C2
C2
C2
FE
C2
C2
C2
C2
ENDCHAR
STARTCHAR uni1E24.sc
ENCODING -1
SWIDTH 594 0
DWIDTH 10 0
BBX 7 12 1 -4
BITMAP
C2
C2
C2
FE
C2
C2
C2
C2
00
00
18
18
ENDCHAR
STARTCHAR uni1E2A.sc
ENCODING -1
SWIDTH 594 0
DWIDTH 10 0
BBX 7 12 1 -4
BITMAP
C2
C2
C2
FE
C2
C2
C2
C2
00
44
24
38
ENDCHAR
STARTCHAR Hbar.sc
ENCODING -1
SWIDTH 630 0
DWIDTH 10 0
BBX 9 8 1 0
BITMAP
4200
FF80
4200
7E00
4200
4200
4200
4200
ENDCHAR
STARTCHAR Igrave.sc
ENCODING -1
SWIDTH 263 0
DWIDTH 4 0
BBX 3 12 0 0
BITMAP
80
40
20
00
60
60
60
60
60
60
60
60
ENDCHAR
STARTCHAR Iacute.sc
ENCODING -1
SWIDTH 263 0
DWIDTH 4 0
BBX 3 12 1 0
BITMAP
20
60
80
00
C0
C0
C0
C0
C0
C0
C0
C0
ENDCHAR
STARTCHAR Icircumflex.sc
ENCODING -1
SWIDTH 263 0
DWIDTH 4 0
BBX 4 11 0 0
BITMAP
60
90
00
60
60
60
60
60
60
60
60
ENDCHAR
STARTCHAR Itilde.sc
ENCODING -1
SWIDTH 263 0
DWIDTH 4 0
BBX 6 11 -1 0
BITMAP
64
98
00
30
30
30
30
30
30
30
30
ENDCHAR
STARTCHAR Idieresis.sc
ENCODING -1
SWIDTH 263 0
DWIDTH 4 0
BBX 5 11 0 0
BITMAP
90
98
00
60
60
60
60
60
60
60
60
ENDCHAR
STARTCHAR Imacron.sc
ENCODING -1
SWIDTH 263 0
DWIDTH 4 0
BBX 4 10 0 0
BITMAP
F0
00
60
60
60
60
60
60
60
60
ENDCHAR
STARTCHAR Idotaccent.sc
ENCODING -1
SWIDTH 263 0
DWIDTH 4 0
BBX 2 11 1 0
BITMAP
C0
C0
00
C0
C0
C0
C0
C0
C0
C0
C0
ENDCHAR
STARTCHAR uni01CF.sc
ENCODING -1
SWIDTH 263 0
DWIDTH 4 0
BBX 4 11 0 0
BITMAP
90
60
00
60
60
60
60
60
60
60
60
ENDCHAR
STARTCHAR uni1EC8.sc
ENCODING -1
SWIDTH 263 0
DWIDTH 4 0
BBX 2 12 1 0
BITMAP
C0
40
C0
00
C0
C0
C0
C0
C0
C0
C0
C0
ENDCHAR
STARTCHAR uni1ECA.sc
ENCODING -1
SWIDTH 263 0
DWIDTH 4 0
BBX 2 12 1 -4
BITMAP
C0
C0
C0
C0
C0
C0
C0
C0
00
00
C0
C0
ENDCHAR
STARTCHAR Iogonek.sc
ENCODING -1
SWIDTH 263 0
DWIDTH 4 0
BBX 3 11 1 -3
BITMAP
C0
C0
C0
C0
C0
C0
C0
C0
80
80
E0
ENDCHAR
STARTCHAR uni012C.sc
ENCODING -1
SWIDTH 263 0
DWIDTH 4 0
BBX 4 11 0 0
BITMAP
90
F0
00
60
60
60
60
60
60
60
60
ENDCHAR
STARTCHAR Jcircumflex.sc
ENCODING -1
SWIDTH 438 0
DWIDTH 7 0
BBX 7 11 0 0
BITMAP
0C
12
20
0C
0C
0C
0C
0C
0C
48
F8
ENDCHAR
STARTCHAR uni0136.sc
ENCODING -1
SWIDTH 514 0
DWIDTH 8 0
BBX 7 12 1 -4
BITMAP
C6
C8
D8
F0
E8
CC
C4
C6
00
18
08
30
ENDCHAR
STARTCHAR uni1E32.sc
ENCODING -1
SWIDTH 514 0
DWIDTH 8 0
BBX 7 12 1 -4
BITMAP
C6
C8
D8
F0
E8
CC
C4
C6
00
00
18
18
ENDCHAR
STARTCHAR uni1E34.sc
ENCODING -1
SWIDTH 514 0
DWIDTH 8 0
BBX 7 10 1 -2
BITMAP
C6
C8
D8
F0
E8
CC
C4
C6
00
3C
ENDCHAR
STARTCHAR Lacute.sc
ENCODING -1
SWIDTH 437 0
DWIDTH 7 0
BBX 6 12 1 0
BITMAP
20
60
C0
00
C0
C0
C0
C0
C0
C0
C0
FC
ENDCHAR
STARTCHAR Lcaron.sc
ENCODING -1
SWIDTH 437 0
DWIDTH 7 0
BBX 6 10 1 0
BITMAP
08
08
C8
C0
C0
C0
C0
C0
C0
FC
ENDCHAR
STARTCHAR uni013B.sc
ENCODING -1
SWIDTH 437 0
DWIDTH 7 0
BBX 6 12 1 -4
BITMAP
C0
C0
C0
C0
C0
C0
C0
FC
00
30
10
30
ENDCHAR
STARTCHAR Ldot.sc
ENCODING -1
SWIDTH 437 0
DWIDTH 7 0
BBX 6 8 1 0
BITMAP
C0
C0
C8
CC
C0
C0
C0
FC
ENDCHAR
STARTCHAR uni1E36.sc
ENCODING -1
SWIDTH 437 0
DWIDTH 7 0
BBX 6 12 1 -4
BITMAP
C0
C0
C0
C0
C0
C0
C0
FC
00
00
30
30
ENDCHAR
STARTCHAR uni1E38.sc
ENCODING -1
SWIDTH 437 0
DWIDTH 7 0
BBX 7 14 0 -4
BITMAP
F0
00
60
60
60
60
60
60
60
7E
00
00
18
18
ENDCHAR
STARTCHAR uni1E3A.sc
ENCODING -1
SWIDTH 437 0
DWIDTH 7 0
BBX 6 10 1 -2
BITMAP
C0
C0
C0
C0
C0
C0
C0
FC
00
78
ENDCHAR
STARTCHAR Lslash.sc
ENCODING -1
SWIDTH 437 0
DWIDTH 7 0
BBX 7 8 0 0
BITMAP
20
20
28
3C
60
A0
20
3E
ENDCHAR
STARTCHAR uni1E3E.sc
ENCODING -1
SWIDTH 647 0
DWIDTH 10 0
BBX 8 12 1 0
BITMAP
04
0C
18
00
C3
E3
E5
E5
D5
D9
C9
C1
ENDCHAR
STARTCHAR uni1E40.sc
ENCODING -1
SWIDTH 647 0
DWIDTH 10 0
BBX 8 11 1 0
BITMAP
18
18
00
C3
E3
E5
E5
D5
D9
C9
C1
ENDCHAR
STARTCHAR uni1E42.sc
ENCODING -1
SWIDTH 647 0
DWIDTH 10 0
BBX 8 12 1 -4
BITMAP
C3
E3
E5
E5
D5
D9
C9
C1
00
00
18
18
ENDCHAR
STARTCHAR Nacute.sc
ENCODING -1
SWIDTH 585 0
DWIDTH 9 0
BBX 7 12 1 0
BITMAP
04
08
10
00
C2
E2
E2
D2
DA
CA
C6
C6
ENDCHAR
STARTCHAR uni01F8.sc
ENCODING -1
SWIDTH 585 0
DWIDTH 9 0
BBX 7 12 1 0
BITMAP
20
30
18
00
C2
E2
E2
D2
DA
CA
C6
C6
ENDCHAR
STARTCHAR Ncaron.sc
ENCODING -1
SWIDTH 585 0
DWIDTH 9 0
BBX 7 11 1 0
BITMAP
64
18
00
C2
E2
E2
D2
DA
CA
C6
C6
ENDCHAR
STARTCHAR Ntilde.sc
ENCODING -1
SWIDTH 585 0
DWIDTH 9 0
BBX 7 11 1 0
BITMAP
72
4C
00
C2
E2
E2
D2
DA
CA
C6
C6
ENDCHAR
STARTCHAR uni0145.sc
ENCODING -1
SWIDTH 585 0
DWIDTH 9 0
BBX 7 12 1 -4
BITMAP
C2
E2
E2
D2
DA
CA
C6
C6
00
18
08
30
ENDCHAR
STARTCHAR uni1E44.sc
ENCODING -1
SWIDTH 585 0
DWIDTH 9 0
BBX 7 11 1 0
BITMAP
18
18
00
C2
E2
E2
D2
DA
CA
C6
C6
ENDCHAR
STARTCHAR uni1E46.sc
ENCODING -1
SWIDTH 585 0
DWIDTH 9 0
BBX 7 12 1 -4
BITMAP
C2
E2
E2
D2
DA
CA
C6
C6
00
00
18
18
ENDCHAR
STARTCHAR uni1E48.sc
ENCODING -1
SWIDTH 585 0
DWIDTH 9 0
BBX 7 10 1 -2
BITMAP
C2
E2
E2
D2
DA
CA
C6
C6
00
3C
ENDCHAR
STARTCHAR Ograve.sc
ENCODING -1
SWIDTH 589 0
DWIDTH 9 0
BBX 8 12 1 0
BITMAP
20
30
18
00
3C
46
82
83
83
82
46
3C
ENDCHAR
STARTCHAR Oacute.sc
ENCODING -1
SWIDTH 589 0
DWIDTH 9 0
BBX 8 12 1 0
BITMAP
08
0C
10
00
3C
46
82
83
83
82
46
3C
ENDCHAR
STARTCHAR Ocircumflex.sc
ENCODING -1
SWIDTH 589 0
DWIDTH 9 0
BBX 8 11 1 0
BITMAP
38
64
00
3C
46
82
83
83
82
46
3C
ENDCHAR
STARTCHAR Otilde.sc
ENCODING -1
SWIDTH 589 0
DWIDTH 9 0
BBX 8 11 1 0
BITMAP
76
4C
00
3C
46
82
83
83
82
46
3C
ENDCHAR
STARTCHAR Odieresis.sc
ENCODING -1
SWIDTH 589 0
DWIDTH 9 0
BBX 8 11 1 0
BITMAP
64
64
00
3C
46
82
83
83
82
46
3C
ENDCHAR
STARTCHAR Omacron.sc
ENCODING -1
SWIDTH 589 0
DWIDTH 9 0
BBX 8 10 1 0
BITMAP
3C
00
3C
46
82
83
83
82
46
3C
ENDCHAR
STARTCHAR Ohungarumlaut.sc
ENCODING -1
SWIDTH 589 0
DWIDTH 9 0
BBX 8 12 1 0
BITMAP
12
14
24
00
3C
46
82
83
83
82
46
3C
ENDCHAR
STARTCHAR uni01D1.sc
ENCODING -1
SWIDTH 589 0
DWIDTH 9 0
BBX 8 11 1 0
BITMAP
64
38
00
3C
46
82
83
83
82
46
3C
ENDCHAR
STARTCHAR uni1ECC.sc
ENCODING -1
SWIDTH 589 0
DWIDTH 9 0
BBX 8 12 1 -4
BITMAP
3C
46
82
83
83
82
46
3C
00
00
10
18
ENDCHAR
STARTCHAR uni1ECE.sc
ENCODING -1
SWIDTH 589 0
DWIDTH 9 0
BBX 8 12 1 0
BITMAP
18
08
10
00
3C
46
82
83
83
82
46
3C
ENDCHAR
STARTCHAR uni1ED0.sc
ENCODING -1
SWIDTH 589 0
DWIDTH 9 0
BBX 8 12 1 0
BITMAP
02
1C
2C
00
3C
46
82
83
83
82
46
3C
ENDCHAR
STARTCHAR uni1ED2.sc
ENCODING -1
SWIDTH 589 0
DWIDTH 9 0
BBX 8 12 1 0
BITMAP
80
58
2C
00
3C
46
82
83
83
82
46
3C
ENDCHAR
STARTCHAR uni1ED4.sc
ENCODING -1
SWIDTH 589 0
DWIDTH 9 0
BBX 8 13 1 0
BITMAP
06
02
1E
2C
00
3C
46
82
83
83
82
46
3C
ENDCHAR
STARTCHAR uni1ED6.sc
ENCODING -1
SWIDTH 589 0
DWIDTH 9 0
BBX 8 14 1 0
BITMAP
34
4C
00
18
2C
00
3C
46
82
83
83
82
46
3C
ENDCHAR
STARTCHAR uni1ED8.sc
ENCODING -1
SWIDTH 589 0
DWIDTH 9 0
BBX 8 15 1 -4
BITMAP
38
64
00
3C
46
82
83
83
82
46
3C
00
00
10
18
ENDCHAR
STARTCHAR Oslash.sc
ENCODING -1
SWIDTH 589 0
DWIDTH 9 0
BBX 8 8 1 0
BITMAP
3F
46
86
8B
93
A2
46
BC
ENDCHAR
STARTCHAR OE.sc
ENCODING -1
SWIDTH 735 0
DWIDTH 12 0
BBX 10 8 1 0
BITMAP
3FC0
4400
8400
8780
8400
8400
4400
3FC0
ENDCHAR
STARTCHAR Ohorn.sc
ENCODING -1
SWIDTH 589 0
DWIDTH 9 0
BBX 8 10 1 0
BITMAP
01
01
3E
46
82
83
83
82
46
3C
ENDCHAR
STARTCHAR uni1EDA.sc
ENCODING -1
SWIDTH 589 0
DWIDTH 9 0
BBX 8 12 1 0
BITMAP
08
0C
11
01
3E
46
82
83
83
82
46
3C
ENDCHAR
STARTCHAR uni1EDC.sc
ENCODING -1
SWIDTH 589 0
DWIDTH 9 0
BBX 8 12 1 0
BITMAP
20
30
19
01
3E
46
82
83
83
82
46
3C
ENDCHAR
STARTCHAR uni1EDE.sc
ENCODING -1
SWIDTH 589 0
DWIDTH 9 0
BBX 8 12 1 0
BITMAP
18
08
11
01
3E
46
82
83
83
82
46
3C
ENDCHAR
STARTCHAR uni1EE0.sc
ENCODING -1
SWIDTH 589 0
DWIDTH 9 0
BBX 8 11 1 0
BITMAP
74
5D
01
3E
46
82
83
83
82
46
3C
ENDCHAR
STARTCHAR uni1EE2.sc
ENCODING -1
SWIDTH 589 0
DWIDTH 9 0
BBX 8 14 1 -4
BITMAP
01
01
3E
46
82
83
83
82
46
3C
00
00
10
18
ENDCHAR
STARTCHAR uni01EA.sc
ENCODING -1
SWIDTH 589 0
DWIDTH 9 0
BBX 8 11 1 -3
BITMAP
3C
46
82
83
83
82
46
3C
10
10
18
ENDCHAR
STARTCHAR uni014E.sc
ENCODING -1
SWIDTH 589 0
DWIDTH 9 0
BBX 8 11 1 0
BITMAP
44
38
00
3C
46
82
83
83
82
46
3C
ENDCHAR
STARTCHAR uni1E52.sc
ENCODING -1
SWIDTH 589 0
DWIDTH 9 0
BBX 8 13 1 0
BITMAP
08
10
00
3C
00
3C
46
82
83
83
82
46
3C
ENDCHAR
STARTCHAR Racute.sc
ENCODING -1
SWIDTH 523 0
DWIDTH 8 0
BBX 7 12 1 0
BITMAP
08
1C
10
00
FC
C4
C4
C4
F8
C8
CC
C6
ENDCHAR
STARTCHAR uni1E58.sc
ENCODING -1
SWIDTH 523 0
DWIDTH 8 0
BBX 7 11 1 0
BITMAP
10
10
00
FC
C4
C4
C4
F8
C8
CC
C6
ENDCHAR
STARTCHAR Rcaron.sc
ENCODING -1
SWIDTH 523 0
DWIDTH 8 0
BBX 7 11 1 0
BITMAP
44
38
00
FC
C4
C4
C4
F8
C8
CC
C6
ENDCHAR
STARTCHAR uni0156.sc
ENCODING -1
SWIDTH 523 0
DWIDTH 8 0
BBX 7 12 1 -4
BITMAP
FC
C4
C4
C4
F8
C8
CC
C4
02
10
08
30
ENDCHAR
STARTCHAR uni1E5A.sc
ENCODING -1
SWIDTH 523 0
DWIDTH 8 0
BBX 7 12 1 -4
BITMAP
FC
C4
C4
C4
F8
C8
CC
C4
02
00
10
10
ENDCHAR
STARTCHAR uni1E5C.sc
ENCODING -1
SWIDTH 523 0
DWIDTH 8 0
BBX 7 14 1 -4
BITMAP
7C
00
FC
C4
C4
C4
F8
C8
CC
C4
02
00
10
10
ENDCHAR
STARTCHAR uni1E5E.sc
ENCODING -1
SWIDTH 523 0
DWIDTH 8 0
BBX 7 10 1 -2
BITMAP
FC
C4
C4
C4
F8
C8
CC
C4
02
7C
ENDCHAR
STARTCHAR Sacute.sc
ENCODING -1
SWIDTH 474 0
DWIDTH 8 0
BBX 6 12 1 0
BITMAP
08
18
20
00
78
CC
C0
70
1C
04
8C
78
ENDCHAR
STARTCHAR Scircumflex.sc
ENCODING -1
SWIDTH 474 0
DWIDTH 8 0
BBX 6 11 1 0
BITMAP
30
48
00
78
CC
C0
70
1C
04
8C
78
ENDCHAR
STARTCHAR Scaron.sc
ENCODING -1
SWIDTH 474 0
DWIDTH 8 0
BBX 6 11 1 0
BITMAP
48
30
00
78
CC
C0
70
1C
04
8C
78
ENDCHAR
STARTCHAR uni015E.sc
ENCODING -1
SWIDTH 474 0
DWIDTH 8 0
BBX 6 13 1 -5
BITMAP
78
CC
C0
70
1C
04
8C
78
20
30
10
10
60
ENDCHAR
STARTCHAR uni0218.sc
ENCODING -1
SWIDTH 474 0
DWIDTH 8 0
BBX 6 12 1 -4
BITMAP
78
CC
C0
70
1C
04
8C
78
00
30
10
30
ENDCHAR
STARTCHAR uni1E60.sc
ENCODING -1
SWIDTH 474 0
DWIDTH 8 0
BBX 6 11 1 0
BITMAP
30
30
00
78
CC
C0
70
1C
04
8C
78
ENDCHAR
STARTCHAR uni1E62.sc
ENCODING -1
SWIDTH 474 0
DWIDTH 8 0
BBX 6 12 1 -4
BITMAP
78
CC
C0
70
1C
04
8C
78
00
00
30
30
ENDCHAR
STARTCHAR uni1E9E.sc
ENCODING -1
SWIDTH 594 0
DWIDTH 10 0
BBX 8 8 1 0
BITMAP
3C
46
C4
CC
C6
C3
D3
DE
ENDCHAR
STARTCHAR Tcaron.sc
ENCODING -1
SWIDTH 467 0
DWIDTH 7 0
BBX 7 11 0 0
BITMAP
64
18
00
FE
10
10
10
10
10
10
10
ENDCHAR
STARTCHAR uni0162.sc
ENCODING -1
SWIDTH 467 0
DWIDTH 7 0
BBX 7 13 0 -5
BITMAP
FE
10
10
10
10
10
10
10
10
18
08
08
30
ENDCHAR
STARTCHAR uni021A.sc
ENCODING -1
SWIDTH 467 0
DWIDTH 7 0
BBX 7 12 0 -4
BITMAP
FE
10
10
10
10
10
10
10
00
18
08
30
ENDCHAR
STARTCHAR uni1E6C.sc
ENCODING -1
SWIDTH 467 0
DWIDTH 7 0
BBX 7 12 0 -4
BITMAP
FE
10
10
10
10
10
10
10
00
00
10
18
ENDCHAR
STARTCHAR uni1E6E.sc
ENCODING -1
SWIDTH 467 0
DWIDTH 7 0
BBX 7 10 0 -2
BITMAP
FE
10
10
10
10
10
10
10
00
3C
ENDCHAR
STARTCHAR uni0166.sc
ENCODING -1
SWIDTH 467 0
DWIDTH 7 0
BBX 7 8 0 0
BITMAP
FE
10
10
10
7C
10
10
10
ENDCHAR
STARTCHAR Ugrave.sc
ENCODING -1
SWIDTH 583 0
DWIDTH 9 0
BBX 7 12 1 0
BITMAP
20
70
18
00
C2
C2
C2
C2
C2
C2
46
3C
ENDCHAR
STARTCHAR Uacute.sc
ENCODING -1
SWIDTH 583 0
DWIDTH 9 0
BBX 7 12 1 0
BITMAP
08
0C
10
00
C2
C2
C2
C2
C2
C2
46
3C
ENDCHAR
STARTCHAR Ucircumflex.sc
ENCODING -1
SWIDTH 583 0
DWIDTH 9 0
BBX 7 11 1 0
BITMAP
38
64
00
C2
C2
C2
C2
C2
C2
46
3C
ENDCHAR
STARTCHAR Utilde.sc
ENCODING -1
SWIDTH 583 0
DWIDTH 9 0
BBX 7 11 1 0
BITMAP
74
4C
00
C2
C2
C2
C2
C2
C2
46
3C
ENDCHAR
STARTCHAR Udieresis.sc
ENCODING -1
SWIDTH 583 0
DWIDTH 9 0
BBX 7 11 1 0
BITMAP
64
64
00
C2
C2
C2
C2
C2
C2
46
3C
ENDCHAR
STARTCHAR Umacron.sc
ENCODING -1
SWIDTH 583 0
DWIDTH 9 0
BBX 7 10 1 0
BITMAP
3C
00
C2
C2
C2
C2
C2
C2
46
3C
ENDCHAR
STARTCHAR Ubreve.sc
ENCODING -1
SWIDTH 583 0
DWIDTH 9 0
BBX 7 11 1 0
BITMAP
44
38
00
C2
C2
C2
C2
C2
C2
46
3C
ENDCHAR
STARTCHAR Uring.sc
ENCODING -1
SWIDTH 583 0
DWIDTH 9 0
BBX 7 12 1 0
BITMAP
38
28
38
00
C2
C2
C2
C2
C2
C2
46
3C
ENDCHAR
STARTCHAR Uhungarumlaut.sc
ENCODING -1
SWIDTH 583 0
DWIDTH 9 0
BBX 7 12 1 0
BITMAP
12
14
24
00
C2
C2
C2
C2
C2
C2
46
3C
ENDCHAR
STARTCHAR uni01D3.sc
ENCODING -1
SWIDTH 583 0
DWIDTH 9 0
BBX 7 11 1 0
BITMAP
64
38
00
C2
C2
C2
C2
C2
C2
46
3C
ENDCHAR
STARTCHAR uni01D5.sc
ENCODING -1
SWIDTH 583 0
DWIDTH 9 0
BBX 7 12 1 0
BITMAP
3C
00
64
00
C2
C2
C2
C2
C2
C2
46
3C
ENDCHAR
STARTCHAR uni01D7.sc
ENCODING -1
SWIDTH 583 0
DWIDTH 9 0
BBX 7 13 1 0
BITMAP
08
10
00
64
00
C2
C2
C2
C2
C2
C2
46
3C
ENDCHAR
STARTCHAR uni01D9.sc
ENCODING -1
SWIDTH 583 0
DWIDTH 9 0
BBX 7 13 1 0
BITMAP
64
18
00
64
00
C2
C2
C2
C2
C2
C2
46
3C
ENDCHAR
STARTCHAR uni01DB.sc
ENCODING -1
SWIDTH 583 0
DWIDTH 9 0
BBX 7 13 1 0
BITMAP
20
10
00
64
00
C2
C2
C2
C2
C2
C2
46
3C
ENDCHAR
STARTCHAR uni1EE4.sc
ENCODING -1
SWIDTH 583 0
DWIDTH 9 0
BBX 7 12 1 -4
BITMAP
C2
C2
C2
C2
C2
C2
46
3C
00
00
10
18
ENDCHAR
STARTCHAR uni1EE6.sc
ENCODING -1
SWIDTH 583 0
DWIDTH 9 0
BBX 7 12 1 0
BITMAP
18
08
10
00
C2
C2
C2
C2
C2
C2
46
3C
ENDCHAR
STARTCHAR Uogonek.sc
ENCODING -1
SWIDTH 583 0
DWIDTH 9 0
BBX 7 11 1 -3
BITMAP
C2
C2
C2
C2
C2
C2
46
3C
10
10
18
ENDCHAR
STARTCHAR Uhorn.sc
ENCODING -1
SWIDTH 597 0
DWIDTH 10 0
BBX 9 11 1 0
BITMAP
0100
0080
0180
C300
C200
C200
C200
C200
C200
4600
3C00
ENDCHAR
STARTCHAR uni1EE8.sc
ENCODING -1
SWIDTH 597 0
DWIDTH 10 0
BBX 9 12 1 0
BITMAP
0800
0D00
1080
0180
C300
C200
C200
C200
C200
C200
4600
3C00
ENDCHAR
STARTCHAR uni1EEA.sc
ENCODING -1
SWIDTH 597 0
DWIDTH 10 0
BBX 9 12 1 0
BITMAP
2000
7100
1880
0180
C300
C200
C200
C200
C200
C200
4600
3C00
ENDCHAR
STARTCHAR uni1EEC.sc
ENCODING -1
SWIDTH 597 0
DWIDTH 10 0
BBX 9 12 1 0
BITMAP
1800
0900
1080
0180
C300
C200
C200
C200
C200
C200
4600
3C00
ENDCHAR
STARTCHAR uni1EEE.sc
ENCODING -1
SWIDTH 597 0
DWIDTH 10 0
BBX 9 11 1 0
BITMAP
7500
4C80
0180
C300
C200
C200
C200
C200
C200
4600
3C00
ENDCHAR
STARTCHAR uni1EF0.sc
ENCODING -1
SWIDTH 597 0
DWIDTH 10 0
BBX 9 15 1 -4
BITMAP
0100
0080
0180
C300
C200
C200
C200
C200
C200
4600
3C00
0000
0000
1000
1800
ENDCHAR
STARTCHAR Wgrave.sc
ENCODING -1
SWIDTH 684 0
DWIDTH 11 0
BBX 11 12 0 0
BITMAP
0800
1C00
0400
0000
C460
4640
4A40
4A40
6AC0
3380
3180
3180
ENDCHAR
STARTCHAR Wacute.sc
ENCODING -1
SWIDTH 684 0
DWIDTH 11 0
BBX 11 12 0 0
BITMAP
0200
0700
0400
0000
C460
4640
4A40
4A40
6AC0
3380
3180
3180
ENDCHAR
STARTCHAR Wcircumflex.sc
ENCODING -1
SWIDTH 684 0
DWIDTH 11 0
BBX 11 11 0 0
BITMAP
0E00
1100
0000
C460
4640
4A40
4A40
6AC0
3380
3180
3180
ENDCHAR
STARTCHAR Wdieresis.sc
ENCODING -1
SWIDTH 684 0
DWIDTH 11 0
BBX 11 11 0 0
BITMAP
1B00
1B00
0000
C460
4640
4A40
4A40
6AC0
3380
3180
3180
ENDCHAR
STARTCHAR Ygrave.sc
ENCODING -1
SWIDTH 415 0
DWIDTH 7 0
BBX 7 12 0 0
BITMAP
40
20
10
00
C6
44
68
28
30
10
10
10
ENDCHAR
STARTCHAR Yacute.sc
ENCODING -1
SWIDTH 415 0
DWIDTH 7 0
BBX 7 12 0 0
BITMAP
08
18
30
00
C6
44
68
28
30
10
10
10
ENDCHAR
STARTCHAR Ycircumflex.sc
ENCODING -1
SWIDTH 415 0
DWIDTH 7 0
BBX 7 11 0 0
BITMAP
38
4C
00
C6
44
68
28
30
10
10
10
ENDCHAR
STARTCHAR Ydieresis.sc
ENCODING -1
SWIDTH 415 0
DWIDTH 7 0
BBX 7 11 0 0
BITMAP
4C
4C
00
C6
44
68
28
30
10
10
10
ENDCHAR
STARTCHAR uni1E8E.sc
ENCODING -1
SWIDTH 415 0
DWIDTH 7 0
BBX 7 11 0 0
BITMAP
10
30
00
C6
44
68
28
30
10
10
10
ENDCHAR
STARTCHAR uni1EF4.sc
ENCODING -1
SWIDTH 415 0
DWIDTH 7 0
BBX 7 12 0 -4
BITMAP
C6
44
68
28
30
10
10
10
00
00
10
30
ENDCHAR
STARTCHAR uni1EF6.sc
ENCODING -1
SWIDTH 415 0
DWIDTH 7 0
BBX 7 12 0 0
BITMAP
30
08
10
00
C6
44
68
28
30
10
10
10
ENDCHAR
STARTCHAR uni1EF8.sc
ENCODING -1
SWIDTH 415 0
DWIDTH 7 0
BBX 7 11 0 0
BITMAP
74
9C
00
C6
44
68
28
30
10
10
10
ENDCHAR
STARTCHAR Zacute.sc
ENCODING -1
SWIDTH 475 0
DWIDTH 8 0
BBX 6 12 1 0
BITMAP
08
18
20
00
FC
08
18
30
20
40
C0
FC
ENDCHAR
STARTCHAR Zcaron.sc
ENCODING -1
SWIDTH 475 0
DWIDTH 8 0
BBX 6 11 1 0
BITMAP
48
30
00
FC
08
18
30
20
40
C0
FC
ENDCHAR
STARTCHAR Zdotaccent.sc
ENCODING -1
SWIDTH 475 0
DWIDTH 8 0
BBX 6 11 1 0
BITMAP
30
30
00
FC
08
18
30
20
40
C0
FC
ENDCHAR
STARTCHAR uni1E92.sc
ENCODING -1
SWIDTH 475 0
DWIDTH 8 0
BBX 6 12 1 -4
BITMAP
FC
08
18
30
20
40
C0
FC
00
00
30
30
ENDCHAR
STARTCHAR uni1E94.sc
ENCODING -1
SWIDTH 475 0
DWIDTH 8 0
BBX 6 10 1 -2
BITMAP
FC
08
18
30
20
40
C0
FC
00
78
ENDCHAR
STARTCHAR Eth.sc
ENCODING -1
SWIDTH 574 0
DWIDTH 9 0
BBX 7 8 1 0
BITMAP
78
46
42
F2
42
42
46
78
ENDCHAR
STARTCHAR Thorn.sc
ENCODING -1
SWIDTH 525 0
DWIDTH 8 0
BBX 7 8 1 0
BITMAP
C0
FC
C4
C6
C4
F8
C0
C0
ENDCHAR
STARTCHAR uni018F.sc
ENCODING -1
SWIDTH 582 0
DWIDTH 9 0
BBX 7 8 1 0
BITMAP
3C
46
02
02
FE
82
46
3C
ENDCHAR
STARTCHAR uni014A.sc
ENCODING -1
SWIDTH 568 0
DWIDTH 9 0
BBX 7 8 1 0
BITMAP
DC
E6
C2
C2
C2
C2
C6
CC
ENDCHAR
STARTCHAR uni0132.sc
ENCODING -1
SWIDTH 526 0
DWIDTH 8 0
BBX 6 10 1 -2
BITMAP
C4
C4
C4
C4
C4
C4
C4
C4
04
18
ENDCHAR
STARTCHAR Alpha.sc
ENCODING -1
SWIDTH 470 0
DWIDTH 8 0
BBX 7 8 0 0
BITMAP
18
38
28
24
64
7E
42
C2
ENDCHAR
STARTCHAR Beta.sc
ENCODING -1
SWIDTH 526 0
DWIDTH 8 0
BBX 7 8 1 0
BITMAP
FC
C4
C4
F8
C6
C6
C6
FC
ENDCHAR
STARTCHAR Gamma.sc
ENCODING -1
SWIDTH 448 0
DWIDTH 7 0
BBX 6 8 1 0
BITMAP
FC
C0
C0
C0
C0
C0
C0
C0
ENDCHAR
STARTCHAR uni0394.sc
ENCODING -1
SWIDTH 514 0
DWIDTH 8 0
BBX 8 8 0 0
BITMAP
18
18
34
24
26
42
42
FF
ENDCHAR
STARTCHAR Epsilon.sc
ENCODING -1
SWIDTH 475 0
DWIDTH 8 0
BBX 6 8 1 0
BITMAP
FC
C0
C0
F8
C0
C0
C0
FC
ENDCHAR
STARTCHAR Zeta.sc
ENCODING -1
SWIDTH 475 0
DWIDTH 8 0
BBX 6 8 1 0
BITMAP
FC
08
18
30
20
40
C0
FC
ENDCHAR
STARTCHAR Eta.sc
ENCODING -1
SWIDTH 594 0
DWIDTH 10 0
BBX 7 8 1 0
BITMAP
C2
C2
C2
FE
C2
C2
C2
C2
ENDCHAR
STARTCHAR Theta.sc
ENCODING -1
SWIDTH 589 0
DWIDTH 9 0
BBX 8 8 1 0
BITMAP
3C
46
82
BB
83
82
46
3C
ENDCHAR
STARTCHAR Iota.sc
ENCODING -1
SWIDTH 263 0
DWIDTH 4 0
BBX 2 8 1 0
BITMAP
C0
C0
C0
C0
C0
C0
C0
C0
ENDCHAR
STARTCHAR Kappa.sc
ENCODING -1
SWIDTH 514 0
DWIDTH 8 0
BBX 7 8 1 0
BITMAP
C6
C8
D8
F0
E8
CC
C4
C6
ENDCHAR
STARTCHAR Lambda.sc
ENCODING -1
SWIDTH 445 0
DWIDTH 7 0
BBX 7 8 0 0
BITMAP
18
28
28
2C
44
44
46
82
ENDCHAR
STARTCHAR Mu.sc
ENCODING -1
SWIDTH 647 0
DWIDTH 10 0
BBX 8 8 1 0
BITMAP
C3
E3
E5
E5
D5
D9
C9
C1
ENDCHAR
STARTCHAR Nu.sc
ENCODING -1
SWIDTH 585 0
DWIDTH 9 0
BBX 7 8 1 0
BITMAP
C2
E2
E2
D2
DA
CA
C6
C6
ENDCHAR
STARTCHAR Xi.sc
ENCODING -1
SWIDTH 471 0
DWIDTH 8 0
BBX 6 8 1 0
BITMAP
FC
00
00
78
00
00
00
FC
ENDCHAR
STARTCHAR Omicron.sc
ENCODING -1
SWIDTH 589 0
DWIDTH 9 0
BBX 8 8 1 0
BITMAP
3C
46
82
83
83
82
46
3C
ENDCHAR
STARTCHAR Pi.sc
ENCODING -1
SWIDTH 588 0
DWIDTH 9 0
BBX 7 8 1 0
BITMAP
FE
C2
C2
C2
C2
C2
C2
C2
ENDCHAR
STARTCHAR Rho.sc
ENCODING -1
SWIDTH 518 0
DWIDTH 8 0
BBX 7 8 1 0
BITMAP
FC
C4
C6
C4
F8
C0
C0
C0
ENDCHAR
STARTCHAR Sigma.sc
ENCODING -1
SWIDTH 471 0
DWIDTH 8 0
BBX 6 8 1 0
BITMAP
FC
C0
60
30
30
60
C0
FC
ENDCHAR
ENDFONT
